<svg width="18" height="13" viewBox="0 0 18 13" fill="none" xmlns="http://www.w3.org/2000/svg">
<g clip-path="url(#clip0_236_22174)">
<path d="M1.5 1.5H16.5V6.49999H1.5V1.5Z" fill="#FF3D00"/>
<path d="M1.5 6.50008H16.5V11.5001H1.5V6.50008ZM5.4617 5.72941C5.25784 5.79774 5.04034 5.83341 4.81227 5.83341C3.73773 5.83341 2.86364 5.01441 2.86364 4.00008C2.86364 2.98575 3.73773 2.16675 4.81227 2.16675C5.04034 2.16675 5.25784 2.20241 5.4617 2.27075C4.47716 2.30308 3.69273 3.06708 3.69273 4.00008C3.69273 4.93308 4.47716 5.69674 5.4617 5.72941Z" fill="#ECEFF1"/>
<path d="M5.05464 4.04427L4.78975 3.85327L4.52521 4.04427L4.62714 3.73627L4.36157 3.54627L4.68919 3.54694L4.78975 3.23827L4.89032 3.54694L5.21794 3.54627L4.95237 3.73627L5.05464 4.04427ZM7.1318 4.04427L6.86691 3.85327L6.60237 4.04427L6.7043 3.73627L6.43873 3.54627L6.76634 3.54694L6.86691 3.23827L6.96748 3.54694L7.29544 3.54594L7.02987 3.73594L7.1318 4.04427ZM6.09441 3.31894L5.82953 3.12794L5.56498 3.31894L5.66691 3.01094L5.40134 2.82094L5.72896 2.82161L5.82953 2.51294L5.93009 2.82161L6.25771 2.82094L5.99214 3.01094L6.09441 3.31894ZM5.44328 5.2046L5.17839 5.0136L4.91384 5.2046L5.01578 4.8966L4.75021 4.7066L5.07782 4.70727L5.17839 4.3986L5.27896 4.70727L5.60657 4.7066L5.341 4.8966L5.44328 5.2046ZM6.74316 5.2046L6.47828 5.0136L6.21373 5.2046L6.31566 4.8966L6.05009 4.7066L6.37771 4.70727L6.47828 4.3986L6.57885 4.70727L6.90646 4.7066L6.64089 4.8966L6.74316 5.2046Z" fill="#ECEFF1"/>
</g>
<path d="M15.5 0.75C16.4665 0.75 17.25 1.5335 17.25 2.5V10.5C17.25 11.4665 16.4665 12.25 15.5 12.25H2.5C1.5335 12.25 0.75 11.4665 0.75 10.5V2.5C0.75 1.5335 1.5335 0.75 2.5 0.75H15.5Z" stroke="white" stroke-width="1.5"/>
<defs>
<clipPath id="clip0_236_22174">
<path d="M1.5 2.5C1.5 1.94772 1.94772 1.5 2.5 1.5H15.5C16.0523 1.5 16.5 1.94772 16.5 2.5V10.5C16.5 11.0523 16.0523 11.5 15.5 11.5H2.5C1.94772 11.5 1.5 11.0523 1.5 10.5V2.5Z" fill="white"/>
</clipPath>
</defs>
</svg>
