<svg width="65" height="65" viewBox="0 0 65 65" fill="none" xmlns="http://www.w3.org/2000/svg">
<g clip-path="url(#clip0_259_7042)">
<path d="M52.5609 58.3845C71.7826 42.6173 67.6895 17.9014 47.4122 5.11931C29.3259 -6.49324 8.10645 2.69418 1.87431 22.1637C-0.56523 29.7322 -0.567018 38.4334 1.54097 45.9493C6.88161 65.6903 37.6648 70.4949 52.4649 58.4594L52.5609 58.3845Z" fill="#F19FB4"/>
<path d="M46.856 22.1532C46.8202 20.9357 48.0331 19.3876 47.339 16.5851C45.0193 7.22213 32.9093 7.43159 31.598 17.2304C31.3332 19.2085 34.5557 26.2183 32.7983 28.0625C30.0934 30.9007 27.0111 29.1472 28.0582 25.7544C29.2765 21.8069 29.6229 15.9813 26.7791 13.2227C21.3353 7.94119 14.907 12.7926 14.0399 18.7727C13.5486 22.1643 14.6834 24.7457 14.0685 26.5138C11.4483 34.0455 6.11484 33.7787 7.83582 46.3659C8.81736 53.5431 18.2911 51.9452 24.1213 50.8985C26.9514 50.4661 30.8555 50.4843 33.542 50.8447C40.5642 51.985 53.5676 54.2095 56.6803 46.8603C59.5594 39.2836 54.4346 26.9321 47.7016 23.125C47.3134 22.8758 47.0289 22.6271 46.9061 22.3147L46.8554 22.1538L46.856 22.1532Z" fill="#FBD8D8"/>
<path d="M5.40999 36.6877C6.01108 36.5882 6.1053 37.1493 6.72607 37.0229C7.34385 36.8924 7.29495 36.7514 7.90081 36.5905C8.50608 36.4285 8.58599 36.6607 9.19065 36.4595C9.79353 36.2565 9.80725 36.2886 10.3994 36.0493C10.9921 35.8095 10.8884 35.5906 11.4585 35.3197C12.0285 35.0494 12.1782 35.3209 12.7417 35.0126C13.3059 34.706 13.2802 34.6639 13.8247 34.3269C14.3709 33.9916 14.378 34.001 14.9058 33.6365C15.4365 33.2726 15.189 32.9514 15.6899 32.5687C16.1926 32.1873 16.3453 32.3657 16.8349 31.9556C17.3239 31.5472 17.4801 31.7122 17.9554 31.2775C18.4294 30.841 18.3281 30.7427 18.7819 30.291C19.2279 29.8312 19.1051 29.7229 19.5338 29.2531C19.9477 28.7722 20.256 29.0173 20.6692 28.5194C21.0568 28.0028 20.7318 27.7688 21.1027 27.2568C21.4528 26.7303 21.3591 26.6683 21.6865 26.1347C22.0139 25.6005 21.897 25.5332 22.191 24.9897C22.4939 24.4502 22.612 24.5105 22.8881 23.9553C23.135 23.3942 23.3395 23.4743 23.5602 22.8969C23.7653 22.3182 23.9454 22.3726 24.1058 21.7765C24.1964 21.4798 24.1726 21.323 24.1785 21.1703C24.175 21.017 24.1875 20.8637 24.2101 20.5741C24.2435 20.2822 24.1845 20.1312 24.101 19.9943C24.0158 19.8597 23.9704 19.7123 23.9341 19.4677C23.9054 19.2185 23.8494 19.0997 23.7635 19.0126C23.6824 18.9242 23.6329 18.8101 23.5417 18.6603C23.4797 18.4819 23.4826 18.4047 23.5029 18.2724C23.5327 18.1332 23.4952 18.0396 23.361 17.8968C23.1749 17.8061 23.1231 17.7371 22.9996 17.6809C22.8792 17.6353 22.7521 17.5487 22.5053 17.4955C22.2566 17.4293 22.1373 17.4381 22.0234 17.4487C21.9036 17.4422 21.8016 17.4797 21.5935 17.4896C21.4003 17.5399 21.2912 17.5247 21.1838 17.5458C21.0693 17.544 20.9584 17.5809 20.764 17.7037C20.5839 17.8658 20.5201 17.9711 20.4772 18.1045C20.4265 18.2233 20.3836 18.3432 20.2399 18.5621C19.9578 19.0178 20.154 19.1196 19.9298 19.621C19.7294 20.1482 19.2649 20.0037 19.0902 20.5958C18.9351 21.1972 19.1903 21.2528 19.0687 21.8554C18.9691 22.4692 18.9327 22.4622 18.857 23.0858C18.7836 23.7107 18.928 23.7247 18.8773 24.3514C18.8349 24.9797 18.5809 24.9674 18.5576 25.6069C18.5403 26.247 18.8516 26.2511 18.8486 26.8865C18.854 27.523 18.6334 27.5266 18.6542 28.1684C18.6715 28.8102 18.9047 28.8009 18.9327 29.4392C18.9786 30.0781 19.0132 30.0757 19.0681 30.714C19.1218 31.3518 18.6835 31.3916 18.7508 32.0351C18.817 32.6781 19.0424 32.653 19.117 33.2919C19.2058 33.9296 18.919 33.9682 19.0156 34.6089C19.1146 35.2495 19.7073 35.1577 19.8165 35.7884C19.9196 36.4285 19.6328 36.4448 19.7616 37.0504C19.8898 37.6454 20.2023 37.5536 20.3693 38.117C20.5643 38.6675 20.117 38.8472 20.3526 39.4188C20.643 39.9576 20.5988 39.9822 20.9131 40.5105C21.2739 41.0131 21.5786 40.806 21.9596 41.2553C22.3341 41.7099 22.0252 41.9773 22.4677 42.4114C22.8947 42.8561 22.9066 42.8444 23.3723 43.2504C23.8655 43.6266 23.968 43.4886 24.4731 43.8302C25.0128 44.1263 25.1118 43.9543 25.6598 44.2018C26.1983 44.4645 26.02 44.8693 26.6115 45.0917C27.2001 45.3163 27.2895 45.0413 27.8745 45.2262C28.4798 45.3479 28.4995 45.2596 29.103 45.3473C29.7082 45.4269 29.6963 45.5463 30.3135 45.5743C30.9307 45.6188 30.9307 45.4573 31.5401 45.4567C32.1436 45.4082 32.1877 45.8207 32.8138 45.7352C33.4364 45.62 33.3434 45.1765 33.9194 45.0179C34.5014 44.8769 34.6302 45.2689 35.226 45.0694C35.8014 44.8331 35.7853 44.7939 36.3393 44.523C36.876 44.214 36.7352 43.9847 37.2189 43.6413C37.718 43.3125 37.6273 43.2001 38.0817 42.8321C38.5123 42.4372 38.5015 42.4249 38.9029 42.0031C39.2547 41.5397 39.3316 41.5964 39.6405 41.0974C39.8003 40.8522 39.8868 40.7334 39.9709 40.6129C40.0406 40.4836 40.1104 40.3543 40.2494 40.0951C40.5314 39.5808 40.6692 39.6335 40.9059 39.0794C41.1104 38.5125 41.0615 38.4955 41.238 37.9192C41.3585 37.3266 41.6573 37.381 41.7729 36.7649C41.8552 36.1195 41.5118 36.0768 41.5869 35.435C41.6632 34.7926 41.6507 34.7914 41.7169 34.1478C41.7849 33.5043 41.7539 33.5019 41.8141 32.8583C41.8636 32.2136 41.662 32.199 41.7056 31.5566C41.7443 30.9147 42.2178 30.9399 42.247 30.2922C42.2792 29.6451 41.9351 29.6334 41.9572 28.991C41.9703 28.3486 42.3287 28.3533 42.3335 27.7062C42.3305 27.0597 42.1134 27.0614 42.0979 26.4196C42.0866 25.7772 41.8207 25.7877 41.7968 25.1517C41.7533 24.5199 41.897 24.5082 41.8379 23.8769C41.7843 23.245 41.8356 23.2415 41.7646 22.6131C41.6704 21.9918 41.6221 21.9964 41.5064 21.3862C41.3883 20.7777 41.5213 20.7491 41.3692 20.1517C41.2088 19.5608 41.2321 19.5538 41.0293 18.9903C40.9208 18.7136 40.826 18.5936 40.7216 18.4872C40.6197 18.3795 40.529 18.2607 40.3865 18.0384C40.1062 17.5996 40.1969 17.5265 39.8606 17.1842C39.7711 17.1175 39.7007 17.0719 39.6399 17.0385C39.5761 17.0163 39.5207 17.0122 39.4694 17.0028C39.3686 16.9742 39.266 16.9917 39.1002 16.9309C39.009 16.9227 38.9464 16.8911 38.8903 16.8501C38.8325 16.8144 38.7782 16.7864 38.7246 16.746C38.6691 16.7103 38.6125 16.6647 38.5349 16.6436C38.4556 16.6301 38.359 16.6284 38.2338 16.6489C37.9804 16.7103 37.8766 16.8571 37.7931 16.9736C37.7544 17.097 37.7406 17.1947 37.6583 17.2725C37.5027 17.4323 37.0984 17.2398 36.9326 17.7078C36.8169 18.2262 37.2922 18.2771 37.2803 18.7885C37.3011 19.3303 37.3345 19.332 37.4162 19.8978C37.5272 20.4676 37.1449 20.5542 37.3059 21.1522C37.4806 21.7495 37.8742 21.6273 38.077 22.203C38.2898 22.7763 37.675 23.0156 37.9267 23.6066C38.1873 24.1928 38.4246 24.0857 38.7043 24.6556C38.9929 25.2225 38.8116 25.3156 39.1211 25.8802C39.4401 26.4401 39.5523 26.3763 39.885 26.9245C40.2273 27.4686 40.2959 27.4259 40.6513 27.9601C41.0156 28.489 41.1021 28.4299 41.479 28.9477C41.735 29.2894 41.9966 29.6272 42.2637 29.9611C42.6674 30.4595 42.826 30.3332 43.2411 30.8147C43.6573 31.2956 43.4176 31.5033 43.8541 31.9772C44.2948 32.4464 44.3163 32.426 44.77 32.8817C45.2304 33.3287 45.0891 33.4733 45.5661 33.9109C46.0527 34.3386 46.4171 33.9325 46.9037 34.3351C47.3968 34.7312 47.2734 34.8839 47.7844 35.2648C48.2955 35.6445 48.3146 35.6181 48.8387 35.9768C49.3665 36.329 49.3152 36.4068 49.8578 36.7403C50.4077 37.0603 50.3915 37.0878 50.9533 37.3874C51.5222 37.6706 51.5079 37.701 52.0881 37.9608C52.6743 38.2088 52.8072 37.8958 53.3892 38.1076C53.9719 38.3171 53.8496 38.6775 54.4584 38.86C55.0691 39.0344 55.1347 38.7787 55.7399 38.9168C56.3506 39.0391 56.3565 39.0045 56.969 39.0964C57.5855 39.1608 57.5879 39.1385 58.2045 39.1719C58.8235 39.1877 58.8593 38.8864 59.4604 38.8641C60.1634 38.832 60.4944 39.7441 60.5677 40.3795C60.6423 41.0014 60.427 42.0563 59.5313 42.0932C58.7907 42.1183 58.7209 41.9598 57.9899 41.9352C57.2564 41.8942 57.3643 41.6608 56.6469 41.5871C55.9326 41.4812 55.9683 41.2729 55.2724 41.1342C54.5831 40.978 54.4835 41.3601 53.787 41.1623C53.0935 40.9564 53.2175 40.5878 52.5562 40.352C51.8967 40.1109 51.7529 40.4544 51.0934 40.1753C50.4416 39.8833 50.5365 39.6932 49.9067 39.3802C49.286 39.049 49.373 38.8981 48.7725 38.5482C48.1816 38.1866 47.9782 38.4955 47.3927 38.1059C46.8124 37.7109 46.8852 37.6109 46.3252 37.1978C45.7671 36.7824 45.7987 36.7432 45.2584 36.3097C44.7259 35.8686 44.5423 36.0745 44.0175 35.614C43.5035 35.1413 43.8684 34.768 43.3794 34.2924C42.897 33.8091 42.7533 33.9437 42.2828 33.4434C41.8165 32.9408 41.6585 33.0777 41.2047 32.5576C40.7538 32.0363 40.7121 32.0697 40.2768 31.5343C39.8474 30.9937 40.0585 30.8381 39.6483 30.2916C39.2457 29.7387 39.2106 29.7627 38.8218 29.1993C38.4425 28.63 38.2654 28.7406 37.8969 28.1573C37.5385 27.5669 37.7621 27.44 37.4222 26.8461C37.0924 26.2452 37.1217 26.23 36.8092 25.6192C36.5069 25.002 36.5414 24.9862 36.2606 24.3578C35.9886 23.7242 35.9028 23.7575 35.6577 23.1046C35.4239 22.4469 35.13 22.54 34.9242 21.8484C34.7382 21.1457 34.8539 21.1212 34.7161 20.3974C34.6058 19.6538 34.8604 19.6298 34.8276 18.8721C34.8258 18.4854 34.7417 18.2812 34.663 18.0624C34.5909 17.8424 34.5056 17.6142 34.6267 17.1503C34.7543 16.6834 35.0053 16.485 35.2349 16.3253C35.4883 16.1644 35.7078 16.0199 36.0787 15.6653C36.4633 15.3137 36.7311 15.2377 36.9648 15.1593C37.1956 15.0972 37.3745 15.0721 37.7728 14.9562C38.1879 14.879 38.3692 14.6766 38.6131 14.5186C38.7311 14.4344 38.8563 14.3519 39.0197 14.2922C39.1855 14.2442 39.3966 14.2354 39.665 14.2816C40.1903 14.4168 40.4569 14.5285 40.6781 14.6655C40.9113 14.7983 41.142 14.9323 41.5207 15.2523C42.2178 15.9123 42.0747 16.0263 42.535 16.7115C42.7527 17.0608 42.7724 17.2661 42.7944 17.4668C42.8213 17.6681 42.8392 17.8635 42.9698 18.204C43.1123 18.5445 43.1958 18.6995 43.3013 18.8575C43.4051 19.0155 43.5035 19.1752 43.5935 19.5198C43.7748 20.2085 43.7515 20.2114 43.8905 20.8953C44.0199 21.5793 43.9465 21.5881 44.0491 22.2673C44.1266 22.9443 44.3675 22.9214 44.426 23.6025C44.4898 24.2829 44.5673 24.2753 44.6144 24.9557C44.6406 25.6344 44.1403 25.6537 44.1535 26.3213C44.1696 26.9895 44.5083 26.986 44.5106 27.6582C44.5083 28.3293 44.5715 28.3299 44.5595 29.0009C44.5363 29.6709 44.2423 29.6615 44.2089 30.3261C44.1791 30.9914 44.5458 31.0107 44.5041 31.6794C44.4612 32.347 44.5339 32.3523 44.4844 33.0198C44.4224 33.6868 43.9286 33.6429 43.8601 34.3035C43.7915 34.9646 43.9585 34.9822 43.8797 35.6439C43.8034 36.3056 43.8159 36.3074 43.7313 36.9679C43.612 37.6641 43.4981 37.6536 43.3663 38.3504C43.163 39.0414 43.021 39.001 42.7932 39.6727C42.6627 40.0044 42.6579 40.1934 42.6513 40.3859C42.6478 40.579 42.6418 40.775 42.4665 41.0991C42.1289 41.7509 42.1528 41.7638 41.7419 42.3787C41.3448 43.0024 41.2875 42.9626 40.8308 43.543C40.3352 44.0894 40.4056 44.1602 39.8647 44.6763C39.2827 45.1472 39.241 45.0987 38.625 45.5094C38.0167 45.9342 37.9756 45.8681 37.3345 46.2285C36.6834 46.562 36.8229 46.8615 36.1276 47.1599C35.4114 47.3992 35.3243 47.1488 34.6135 47.3243C33.9057 47.5145 33.9606 47.7649 33.2223 47.8953C32.4835 48.0077 32.468 47.8749 31.7327 47.9433C30.9939 47.9462 30.9927 47.9585 30.2568 47.9117C29.5174 47.8749 29.555 47.4992 28.8471 47.4015C28.1393 47.3068 28.0648 47.6648 27.3378 47.5215C26.63 47.3108 26.6449 47.2611 25.955 47.0119C25.2686 46.7498 25.2621 46.7656 24.6001 46.4438C23.9341 46.1354 23.8482 46.2829 23.197 45.9149C22.5697 45.5082 22.6657 45.3725 22.0729 44.936C21.7891 44.6997 21.6543 44.5727 21.5202 44.4469C21.3824 44.324 21.2518 44.1947 20.996 43.9297C20.736 43.6688 20.6418 43.5055 20.5487 43.3446C20.4671 43.1732 20.3877 43.0035 20.1576 42.7245C19.69 42.1739 19.4432 42.3447 19.0132 41.7363C18.622 41.1061 18.8761 40.9681 18.5242 40.3373C18.2428 39.6745 18.1921 39.6926 17.9393 39.0186C17.7276 38.3335 17.6465 38.3534 17.4807 37.6554C17.3328 36.9667 17.2976 36.9346 17.1903 36.2804C17.0764 35.6222 16.8879 35.6515 16.7866 34.9886C16.684 34.3257 16.5272 34.3468 16.433 33.6804C16.3536 33.011 16.82 32.9584 16.7496 32.2943C16.6804 31.6303 16.5594 31.6414 16.5033 30.9738C16.4437 30.3068 16.3793 30.3109 16.331 29.6416C16.2988 28.9699 16.2141 28.9746 16.1926 28.3006C16.1718 27.626 16.26 27.6243 16.2558 26.9491C16.2558 26.2727 16.0811 26.2704 16.096 25.5888C16.1223 24.9048 16.5188 24.9241 16.5647 24.2478C16.616 23.5715 16.1449 23.5299 16.2219 22.8366C16.3065 22.1439 16.3978 22.1544 16.5105 21.4611C16.6512 20.7637 16.5761 20.7502 16.7579 20.0446C16.9649 19.332 17.5093 19.5029 17.7651 18.83C18.0573 18.1583 17.755 18.0168 18.1754 17.3199C18.408 16.9753 18.5851 16.8425 18.7819 16.7226C18.8773 16.6623 18.9685 16.6026 19.0764 16.5219C19.1957 16.4453 19.3293 16.347 19.4962 16.2048C19.8624 15.9433 20.0222 15.7613 20.222 15.6092C20.3192 15.5302 20.4205 15.4506 20.5571 15.3693C20.6978 15.3003 20.8797 15.2382 21.1272 15.1821C21.6185 15.116 21.8773 15.1078 22.1063 15.14C22.3401 15.1669 22.5852 15.1797 23.0098 15.2891C23.4528 15.3798 23.6216 15.4711 23.8345 15.5214C24.0211 15.5618 24.2859 15.6993 24.7158 15.9462C25.1148 16.2686 25.3014 16.4657 25.4189 16.6851C25.4809 16.794 25.5429 16.9016 25.6193 17.0356C25.7063 17.1661 25.7862 17.3223 25.8781 17.5329C26.0897 17.9524 26.2078 18.1338 26.3533 18.3304C26.4237 18.4281 26.4982 18.5305 26.5596 18.6621C26.6097 18.7896 26.6521 18.9482 26.6765 19.1641C26.7374 19.6029 26.6384 19.7901 26.5883 19.9967C26.5322 20.2008 26.463 20.3922 26.4159 20.7684C26.3808 21.1522 26.3378 21.3318 26.2997 21.5132C26.2561 21.6916 26.2364 21.8841 26.1375 22.2334C25.946 22.9384 25.7176 22.8694 25.4809 23.5317C25.2364 24.1887 25.6198 24.3408 25.336 24.999C25.02 25.6362 24.6568 25.4636 24.3199 26.0656C23.9895 26.6741 24.0271 26.6952 23.6645 27.2843C23.3055 27.8735 23.5989 28.0601 23.2107 28.6441C22.804 29.2133 22.6842 29.1273 22.2697 29.6849C21.8273 30.2208 21.838 30.2296 21.3872 30.7579C20.9197 31.2722 20.7867 31.1564 20.3096 31.6537C19.8218 32.1416 19.8242 32.144 19.3191 32.6138C18.8093 33.0795 18.8439 33.1164 18.3131 33.5604C17.783 34.0039 17.8862 34.1244 17.3316 34.5469C16.7776 34.9687 16.8206 35.0237 16.2439 35.4204C15.6679 35.8171 15.7549 35.9411 15.1538 36.3109C14.5528 36.6818 14.3423 36.3425 13.7328 36.6742C13.1228 37.0071 13.217 37.1774 12.5819 37.4798C11.948 37.7812 11.9737 37.8332 11.3207 38.0994C10.6677 38.3633 10.7101 38.4651 10.038 38.6939C9.36418 38.9185 9.33914 38.8419 8.65635 39.0274C7.97237 39.2099 7.9849 39.2544 7.29078 39.4024C6.59786 39.5422 6.66226 40.0337 5.94369 40.1454C5.07903 40.2736 4.59184 39.1953 4.52326 38.5652C4.45647 37.935 4.70096 36.7918 5.40939 36.6882L5.40999 36.6877Z" fill="#9C4242"/>
</g>
<defs>
<clipPath id="clip0_259_7042">
<rect width="65" height="65" fill="white"/>
</clipPath>
</defs>
</svg>
