<svg width="65" height="65" viewBox="0 0 65 65" fill="none" xmlns="http://www.w3.org/2000/svg">
<g clip-path="url(#clip0_259_7043)">
<path d="M58.3851 12.55C42.6212 -6.84291 17.9092 -2.71363 5.12934 17.7443C-6.48192 35.9912 2.6574 55.7446 22.1235 62.0321C29.6906 64.4934 38.4377 66.1497 45.9523 64.0231C65.6901 58.635 70.4936 27.5782 58.4604 12.6463L58.3856 12.5494L58.3851 12.55Z" fill="#8AB835"/>
<path d="M29.4407 10.6258C23.435 7.67251 15.2399 11.8805 15.5351 19.1568C15.6407 27.0648 25.0512 31.4824 31.0215 26.6321C36.4044 22.4999 35.7702 13.5708 29.5429 10.6745L29.4407 10.6258Z" fill="#CEEB99"/>
<path d="M38.0297 52.3872C33.1623 51.1583 28.0198 52.9825 23.0525 52.723C18.8091 52.5099 14.0382 51.6333 11.1672 48.1258C8.11756 44.431 8.21232 38.5914 11.278 34.9606C13.2281 32.5792 16.356 31.7701 19.2875 31.9703C21.4552 32.0742 23.733 33.0389 25.8173 32.6943C31.0404 31.5587 31.4194 26.8441 38.6303 26.8464C45.2726 26.8488 46.9156 33.6577 49.7221 34.613C52.5285 35.5683 57.2709 34.6042 58.6627 40.7262C60.0545 46.8482 54.4616 52.9033 49.291 53.828C45.8954 54.4351 41.4202 53.1258 38.1508 52.413L38.0309 52.3872H38.0297Z" fill="#CEEB99"/>
<path d="M57.8794 36.1995C57.7059 37.1771 57.1829 37.0332 56.9534 37.9679C56.7399 38.9079 56.8233 38.9185 56.5424 39.8515C56.386 40.3135 56.2204 40.5126 56.0748 40.7134C55.9247 40.9136 55.7831 41.1126 55.5685 41.5459C55.1631 42.4231 55.0826 42.3808 54.6094 43.2204C54.0608 44.0166 54.2606 44.1669 53.6217 44.9301C53.3175 45.3218 53.0526 45.4192 52.8351 45.5431C52.6113 45.6641 52.3858 45.7738 52.0033 46.0786C51.6356 46.3997 51.425 46.5301 51.2257 46.6751C51.0259 46.8195 50.8301 46.9716 50.3797 47.1865C49.9429 47.4249 49.6946 47.4836 49.4588 47.5652C49.3401 47.6045 49.2219 47.6439 49.0735 47.6926C48.9199 47.7255 48.7355 47.7648 48.4895 47.8171C48.0031 47.9409 47.7513 48.0008 47.4984 48.1323C47.2404 48.2597 46.9829 48.3343 46.4674 48.3044C45.4409 48.1752 45.4877 47.9222 44.5361 47.6374C43.6061 47.2728 43.7037 47.0473 42.8725 46.5712C42.4581 46.3263 42.256 46.1995 42.0442 46.0827C41.8289 45.9694 41.6274 45.8373 41.2598 45.5255C40.5541 44.8773 40.4542 44.9789 39.8109 44.2596C39.4963 43.8944 39.4244 43.6408 39.3593 43.3889C39.2885 43.1406 39.2308 42.8905 38.9642 42.5059C38.4533 41.7197 38.1222 41.9469 37.6489 41.0838C37.2407 40.2161 37.1197 40.276 36.7469 39.3935C36.4215 38.5011 36.2502 38.5645 35.9728 37.6486C35.6816 36.7367 35.8232 36.6945 35.5954 35.7733C35.3545 34.8532 35.5971 34.8004 35.4042 33.8804C35.2557 32.9509 35.4304 32.9239 35.3117 31.9986C35.2358 31.0692 35.0828 31.0809 35.0457 30.145C34.9994 29.2115 34.7043 29.2191 34.706 28.2744C34.6974 27.3315 34.5433 27.328 34.5724 26.3815C34.6295 25.4368 34.9606 25.4638 35.0394 24.5327C35.1558 23.605 35.177 23.6067 35.3191 22.685C35.4618 21.7632 35.3933 21.7502 35.5714 20.8343C35.7416 19.9155 35.8929 19.9501 36.0921 19.0424C36.3073 18.1376 36.1458 18.1006 36.3827 17.1894C36.6704 16.2418 36.486 16.1772 36.8565 15.2578C37.0609 14.8068 37.267 14.6342 37.4879 14.4757C37.7043 14.3148 37.9109 14.1581 38.1633 13.7459C38.6816 12.931 38.4801 12.7765 39.1383 11.9951C39.4991 11.6222 39.6841 11.4426 39.9045 11.2864C40.0101 11.2054 40.1157 11.1249 40.2476 11.024C40.3846 10.9277 40.5684 10.8279 40.8025 10.6869C41.0291 10.5366 41.2421 10.4744 41.3973 10.391C41.5606 10.3194 41.6822 10.2378 41.8215 10.1938C41.9602 10.148 42.1012 10.1033 42.2811 10.0587C42.3713 10.0364 42.4706 10.0141 42.5842 9.99237C42.699 9.98826 42.8286 9.98709 42.9764 9.99061C43.5776 9.98122 43.8339 10.1591 44.0942 10.2736C44.3705 10.3875 44.5549 10.556 45.0727 10.7856C45.1458 10.8173 45.2149 10.8472 45.2794 10.8754C45.3359 10.9189 45.389 10.9594 45.4392 10.9981C45.542 11.0745 45.6213 11.1267 45.6898 11.1678C45.8337 11.2547 45.9593 11.3152 46.0866 11.3774C46.3184 11.5201 46.5684 11.6745 46.9001 12.1137C47.1947 12.574 47.3072 12.83 47.3631 13.0965C47.4225 13.3619 47.5201 13.612 47.6754 14.097C47.8552 14.5784 47.954 14.808 48.0687 15.0411C48.1886 15.2742 48.2942 15.512 48.3724 16.0087C48.5095 16.9974 48.5488 16.9951 48.5985 17.9744C48.6179 18.9502 48.1949 18.9443 48.1612 19.8849C48.1053 20.8214 48.3125 20.8396 48.2212 21.7749C48.1138 22.7061 47.8449 22.6626 47.7171 23.585C47.5835 24.5074 48.1235 24.6307 47.9511 25.5378C47.7639 26.4479 47.4722 26.3815 47.2695 27.2834C47.0588 28.1846 47.3174 28.2509 47.0868 29.154C46.8465 30.0558 46.3726 29.9172 46.1146 30.8038C45.8474 31.6898 45.8074 31.6769 45.5163 32.5552C45.2154 33.4294 45.5877 33.5727 45.2531 34.4505C44.906 35.3247 44.5504 35.1673 44.1741 36.0169C43.7819 36.8624 43.758 36.8512 43.3247 37.6785C42.8725 38.497 43.0044 38.5803 42.4952 39.3812C42.2314 39.7763 42.1469 40.0088 42.0459 40.2366C41.9443 40.4633 41.8626 40.7057 41.5412 41.0762C41.2318 41.4549 40.9806 41.5565 40.7334 41.6516C40.4896 41.7502 40.2521 41.843 39.8919 42.1595C39.1635 42.7777 39.3073 42.9867 38.4687 43.5245C37.5952 44.0007 37.6392 44.1158 36.6778 44.4516C36.1869 44.5902 35.9357 44.6325 35.6799 44.6366C35.4253 44.643 35.1758 44.6865 34.6763 44.697C34.1785 44.7252 33.9296 44.7387 33.6778 44.7528C33.4255 44.7722 33.1709 44.7898 32.6862 44.7023C32.1964 44.6354 31.9794 44.4499 31.7682 44.2972C31.5547 44.1463 31.3566 43.9725 30.9067 43.8081C30.0264 43.4447 29.8198 43.8698 28.9423 43.356C28.1094 42.776 28.3674 42.4254 27.6578 41.7825C27.3067 41.452 27.1389 41.2805 26.9745 41.105C26.8043 40.9341 26.6365 40.7609 26.3482 40.3764C25.7853 39.6043 25.5444 39.7681 25.0449 38.9303C24.583 38.0789 24.486 38.1288 24.0864 37.2452C23.7176 36.3522 23.7136 36.3539 23.4001 35.4456C23.1073 34.5326 23.1495 34.5197 22.908 33.5979C22.6825 32.6738 22.7077 32.6679 22.529 31.7373C22.3674 30.8038 22.5524 30.7738 22.4336 29.8427C22.3269 28.9097 22.3075 28.9115 22.2361 27.975C22.1819 27.0356 22.4787 27.0233 22.4605 26.0927C22.4576 25.1621 22.1179 25.1562 22.1568 24.2091C22.2133 23.2592 22.1973 23.2691 22.3086 22.3027C22.4616 21.3316 22.4325 21.3257 22.6877 20.3634C22.8293 19.8843 22.8681 19.6301 22.916 19.3724C22.9623 19.1152 23.0142 18.8533 23.2534 18.3807C23.4989 17.9098 23.7535 17.7431 23.991 17.5981C24.2382 17.4636 24.4569 17.3186 24.8302 16.9369C25.2099 16.5629 25.3908 16.3451 25.5895 16.1208C25.7967 15.913 26.012 15.6646 26.6148 15.5014C27.2268 15.3599 27.5665 15.4685 27.8588 15.5865C28.1528 15.7122 28.4319 15.8466 28.9452 16.1067C29.4527 16.3833 29.6736 16.5541 29.918 16.7109C30.1509 16.8812 30.4141 17.0961 30.659 17.5528C31.1499 18.477 31.36 18.3737 31.6957 19.3718C31.8304 19.8726 31.8635 20.1309 31.8721 20.3869C31.8892 20.6429 31.9075 20.8966 31.9594 21.3897C32.0519 22.3749 31.9857 22.3779 31.9977 23.3402C31.9829 24.2943 32.0365 24.2978 31.98 25.2331C31.9149 26.1625 31.7796 26.1496 31.7043 27.0597C31.6323 27.9691 31.5975 27.9404 31.5473 28.8621C31.4742 29.7933 31.6203 29.825 31.5244 30.7386C31.4137 31.6651 31.3029 31.651 31.1471 32.5945C30.9593 33.5445 31.1008 33.5885 30.8028 34.5497C30.458 35.4979 30.1777 35.3764 29.7553 36.2359C29.3065 37.0708 29.6108 37.2622 29.1124 38.0666C28.6055 38.8539 28.2869 38.5815 27.724 39.3912C27.4158 39.7669 27.3535 40.0411 27.2611 40.2942C27.172 40.549 27.0898 40.8302 26.7176 41.1608C26.3562 41.5048 26.1575 41.6528 25.9709 41.8166C25.7853 41.9827 25.5849 42.1289 25.1767 42.4114C24.3335 42.9439 24.1549 42.6069 23.2871 43.0243C22.3874 43.3795 22.5113 43.7811 21.4951 44.0154C20.9836 44.124 20.6953 43.9725 20.4321 43.824C20.1684 43.6889 19.924 43.521 19.4331 43.4817C18.4631 43.3326 18.3763 43.5838 17.4155 43.1535C16.9571 42.8963 16.7607 42.7196 16.6055 42.5429C16.4365 42.3714 16.2755 42.1877 15.8998 41.8912C15.5373 41.5794 15.3381 41.4432 15.1474 41.2929C14.951 41.1496 14.7621 40.9934 14.4401 40.6247C14.1278 40.2437 13.972 40.0534 13.815 39.862C13.6551 39.6724 13.5061 39.4692 13.2629 39.0283C12.8171 38.1235 12.7149 38.1599 12.426 37.1548C12.3055 36.6446 12.2627 36.3809 12.2393 36.1167C12.2079 35.8531 12.1868 35.5871 12.1994 35.0517C12.2376 34.5027 12.2273 34.2438 12.2239 33.9943C12.2205 33.7412 12.2113 33.4858 12.3375 32.9897C12.4711 32.4924 12.6309 32.2657 12.7976 32.0485C12.9706 31.8313 13.1202 31.6211 13.3976 31.1455C13.6962 30.6729 13.8875 30.438 14.1215 30.2272C14.343 30.0223 14.6091 29.7857 15.2496 29.5902C15.5767 29.4962 15.8199 29.5191 16.0197 29.5303C16.2087 29.5561 16.3411 29.6066 16.4804 29.6477C16.7516 29.7487 17.0313 29.8485 17.5491 30.1439C17.7992 30.3129 17.991 30.431 18.1543 30.5402C18.3312 30.6394 18.462 30.7263 18.611 30.8149C18.8936 30.9928 19.1842 31.2283 19.3765 31.8007C19.5552 32.3708 19.5352 32.6486 19.5352 32.9227C19.5215 33.1916 19.5118 33.4629 19.529 33.9584C19.5495 34.4375 19.5381 34.7006 19.5364 34.9589C19.541 35.219 19.5153 35.4703 19.4605 35.9752C19.2841 36.9769 19.2001 36.9587 18.8981 37.9204C18.5493 38.8692 18.5185 38.8592 18.0304 39.747C17.7706 40.185 17.6096 40.384 17.4492 40.583C17.2979 40.7879 17.1175 40.9717 16.7716 41.3492C16.3965 41.7003 16.2606 41.9399 16.0917 42.163C16.01 42.2769 15.929 42.3949 15.8079 42.5188C15.6806 42.6339 15.5151 42.7578 15.2799 42.8946C14.7883 43.1323 14.504 43.1646 14.2203 43.1453C13.9366 43.1329 13.6711 43.1347 13.1647 43.2157C12.1571 43.3414 12.1582 43.6132 11.0719 43.4846C10.8007 43.4482 10.6003 43.3971 10.4336 43.3472C10.2675 43.2985 10.131 43.2721 10.0009 43.2216C9.74283 43.1177 9.47223 43.0355 8.99325 42.7425C8.52284 42.4401 8.30362 42.2646 8.09582 42.0802C7.88231 41.9011 7.67907 41.708 7.33426 41.2758C6.99572 40.8402 6.79934 40.6241 6.58354 40.4075C6.38088 40.1844 6.17193 39.9495 5.96984 39.4146C5.75062 38.767 5.88535 38.265 6.15538 37.9597C6.42255 37.6509 6.79648 37.5264 7.10305 37.4918C7.41019 37.4571 7.82465 37.5141 8.17118 37.645C8.51942 37.7801 8.81685 37.975 8.94473 38.3373C9.19649 38.9338 9.10458 39.0735 9.49221 39.6013C9.70058 39.845 9.75824 39.9847 9.83017 40.1192C9.89468 40.263 9.97632 40.3975 10.2469 40.5777C10.8047 40.8842 10.7367 41.088 11.4127 41.2394C12.1097 41.3263 12.1206 40.9283 12.7691 40.8484C13.0956 40.7985 13.2726 40.8331 13.4673 40.8737C13.6642 40.9259 13.8601 40.9283 14.1889 40.778C14.5046 40.5948 14.6102 40.4192 14.6924 40.2272C14.7855 40.0517 14.8528 39.8614 15.1074 39.626C15.3432 39.3641 15.5082 39.2761 15.6509 39.1539C15.7999 39.0395 15.9586 38.925 16.1522 38.5962C16.5221 37.9333 16.6797 38.0044 16.9571 37.2558C17.2026 36.489 16.8475 36.3956 16.988 35.6429C17.0239 35.2589 17.0896 35.0669 17.1181 34.8796C17.1524 34.6888 17.2049 34.5115 17.1866 34.0829C17.1723 33.6743 17.1592 33.494 17.1478 33.3067C17.1318 33.1271 17.1181 32.9368 17.0256 32.6345C16.9314 32.335 16.8018 32.2669 16.6928 32.2176C16.5758 32.1812 16.4884 32.1554 16.3982 32.1049C16.3075 32.052 16.2686 31.9035 16.1779 31.7508C16.1271 31.6815 16.07 31.6093 15.9878 31.5459C15.9312 31.513 15.8376 31.4543 15.7508 31.4907C15.5682 31.5395 15.5076 31.644 15.4534 31.7544C15.3986 31.8653 15.3506 31.9757 15.1862 32.2276C15.0281 32.5065 15.0013 32.6979 14.9847 32.8846C14.9636 33.0683 14.9533 33.2609 14.85 33.6291C14.7552 34.0072 14.7307 34.2086 14.7095 34.4094C14.6839 34.6125 14.6696 34.8145 14.6467 35.128C14.6376 35.4627 14.5817 35.6376 14.5411 35.8196C14.4903 36.0011 14.4578 36.1931 14.5377 36.553C14.7358 37.2669 14.7809 37.2546 15.1097 37.9315C15.4882 38.595 15.6521 38.4817 16.1162 39.0712C16.3634 39.3571 16.445 39.5438 16.5438 39.7223C16.6351 39.9067 16.7373 40.0893 17.0376 40.3464C17.347 40.5918 17.4955 40.7204 17.6639 40.8408C17.7455 40.9012 17.8272 40.9611 17.9293 41.0363C18.0224 41.0909 18.1337 41.1561 18.2821 41.2435C18.893 41.5307 18.881 41.5588 19.5592 41.6804C19.9103 41.6974 20.0839 41.7009 20.2637 41.651C20.4418 41.6111 20.6142 41.6005 20.9756 41.5189C21.337 41.4667 21.4991 41.3087 21.6538 41.1925C21.8102 41.0786 21.9552 40.9253 22.2995 40.7926C22.9788 40.4756 23.0365 40.5807 23.6993 40.1703C24.3387 39.7241 24.4968 39.9331 25.1048 39.4023C25.4074 39.134 25.4719 38.9132 25.5381 38.7042C25.6112 38.4981 25.6557 38.2856 25.8915 37.9961C26.3151 37.4002 26.7718 37.6374 27.2491 36.9C27.7103 36.1619 27.8063 36.2224 28.2179 35.4703C28.5952 34.7059 28.0169 34.4369 28.2835 33.7189C28.5187 32.9803 28.5478 32.995 28.7088 32.1953C28.8481 31.3739 28.9983 31.3933 29.1044 30.5173C29.2009 29.6242 29.4647 29.6595 29.5406 28.787C29.5868 27.8969 29.4201 27.8458 29.4921 26.9375C29.5674 26.0275 29.5874 26.0292 29.6514 25.1403C29.7056 24.259 29.7718 24.2614 29.7861 23.3989C29.7815 22.5435 29.564 22.5499 29.4938 21.7426C29.4504 21.3422 29.399 21.1502 29.3374 20.9658C29.2866 20.7756 29.2243 20.593 29.1244 20.2319C28.9035 19.5373 29.3551 19.3283 29.0034 18.6461C28.9103 18.4905 28.827 18.3725 28.7448 18.3044C28.6603 18.258 28.5855 18.2327 28.5153 18.2098C28.3549 18.1717 28.207 18.1306 28.0215 18.0249C27.8359 17.9157 27.7377 17.928 27.6435 17.9222C27.5454 17.938 27.4603 17.9251 27.2542 17.9738C27.0475 18.0314 26.9025 18.0155 26.7484 18.0243C26.5925 18.0243 26.4219 18.0543 26.1832 18.2721C25.952 18.5046 25.9183 18.7142 25.8761 18.9179C25.8356 19.1252 25.8201 19.3066 25.6483 19.6225C25.3257 20.2765 25.3994 20.3159 25.1613 21.0422C24.9621 21.7908 24.4877 21.6904 24.3564 22.5194C24.2548 23.3566 24.4169 23.3877 24.3615 24.2467C24.325 25.1157 24.3433 25.1174 24.3455 25.9911C24.3598 26.8653 24.257 26.87 24.3033 27.7484C24.3695 28.6244 24.2057 28.6408 24.3033 29.5191C24.4146 30.3957 24.6647 30.357 24.8108 31.216C24.9695 32.0732 24.9832 32.0708 25.1836 32.9139C25.4 33.7512 25.3691 33.7623 25.6312 34.5808C25.9081 35.3928 26.0005 35.3576 26.3219 36.1373C26.6628 36.9041 26.5731 36.9505 26.9636 37.6902C27.3866 38.4013 27.3376 38.4365 27.816 39.1023C28.0631 39.4276 28.2538 39.5315 28.4519 39.6166C28.6466 39.7064 28.8298 39.7998 29.109 40.0599C29.6668 40.5736 29.4847 40.8149 30.1246 41.2647C30.7897 41.6675 30.9096 41.4244 31.5884 41.7144C32.2866 41.9634 32.2614 42.0685 33.0082 42.2205C33.3867 42.2863 33.5733 42.318 33.7566 42.3274C33.9404 42.3385 34.1288 42.3867 34.4936 42.3544C34.8607 42.3491 35.0479 42.4025 35.2483 42.4648C35.3482 42.4959 35.4504 42.5294 35.5754 42.5435C35.6976 42.5452 35.8426 42.5288 36.0293 42.4777C36.7703 42.2311 36.6133 41.8483 37.2658 41.5113C37.899 41.1032 37.9475 41.1725 38.5481 40.6676C38.8432 40.4051 38.9871 40.2677 39.1224 40.1163C39.2599 39.9689 39.4061 39.8333 39.6641 39.5133C39.9319 39.2056 40.0107 38.9995 40.0952 38.8046C40.1814 38.6114 40.2613 38.4153 40.4891 38.0683C40.9378 37.3691 41.0765 37.456 41.4893 36.7091C41.8889 35.9523 41.9283 35.9735 42.2931 35.1873C42.647 34.3953 42.8194 34.4722 43.1448 33.6537C43.4611 32.83 43.1511 32.7102 43.4366 31.8812C43.7146 31.0486 43.9589 31.1308 44.2158 30.2807C44.4653 29.4281 44.4385 29.4199 44.668 28.5598C44.8906 27.6967 44.8489 27.6855 45.0544 26.8172C45.1854 26.2363 45.3113 25.6539 45.4324 25.0699C45.6031 24.1857 45.4409 24.1598 45.5688 23.3138C45.6887 22.4542 45.5346 22.4155 45.6345 21.5506C45.7218 20.6858 46.1751 20.7269 46.2322 19.852C46.2642 18.9843 46.1511 18.9813 46.1386 18.1312C46.0975 17.2898 46.0272 17.2939 45.9216 16.4866C45.8543 16.0897 45.8063 15.893 45.7332 15.7134C45.6619 15.5337 45.6196 15.3341 45.4849 14.9906C45.3719 14.6301 45.3016 14.4716 45.2446 14.2978C45.1955 14.117 45.1184 13.959 44.93 13.6672C44.7359 13.3807 44.5732 13.3055 44.4465 13.201C44.3757 13.157 44.2946 13.1282 44.2101 13.0742C44.1131 13.0184 44.0394 12.9468 44.0177 12.9451C43.9994 12.9386 43.9829 12.9304 43.9675 12.9222C43.9395 12.9051 43.9132 12.8893 43.8881 12.8746C43.8373 12.8405 43.7945 12.8041 43.7568 12.766C43.6809 12.6844 43.6249 12.6092 43.5661 12.5552C43.5073 12.493 43.4445 12.4284 43.3572 12.3679C43.3138 12.3391 43.2636 12.3051 43.2053 12.2851C43.1483 12.2757 43.0826 12.2699 43.0078 12.2681C42.703 12.2334 42.5734 12.4284 42.4666 12.5493C42.4124 12.6069 42.365 12.6938 42.3022 12.7689C42.2394 12.8505 42.1589 12.8846 42.0367 12.9591C41.9151 13.0366 41.8187 13.0854 41.7353 13.123C41.6514 13.1764 41.5846 13.2192 41.5172 13.2621C41.4487 13.3055 41.3779 13.3443 41.2934 13.4048C41.213 13.4782 41.1182 13.5686 40.9943 13.6931C40.5188 14.242 40.5684 14.2896 40.1511 14.9366C39.9473 15.2695 39.7332 15.3746 39.5191 15.4932C39.2993 15.6053 39.0835 15.7322 38.9106 16.1191C38.588 16.9005 38.8695 17.0209 38.6314 17.79C38.4093 18.6208 38.1718 18.5739 37.9623 19.4323C37.7734 20.3012 38.0034 20.3546 37.8441 21.2218C37.6757 22.0884 37.6483 22.0831 37.5153 22.9562C37.3749 23.8275 37.4531 23.8375 37.3412 24.71C37.2618 25.5848 37.1271 25.5736 37.0672 26.4537C37.0426 27.335 37.3446 27.3468 37.3532 28.2151C37.3532 29.0841 37.1186 29.09 37.1637 29.9636C37.1962 30.8378 37.2202 30.8349 37.2915 31.7044C37.3954 32.5675 37.1756 32.6004 37.3069 33.4682C37.4873 34.326 37.8499 34.2491 38.0634 35.0775C38.2712 35.9083 37.871 36.0263 38.1376 36.8577C38.3893 37.6926 38.4676 37.6621 38.765 38.4764C39.0938 39.2737 39.4335 39.1134 39.776 39.8685C40.154 40.5613 40.0586 40.6523 40.505 41.3451C40.9835 42.0215 40.9829 42.025 41.5081 42.6532C42.047 43.2609 41.918 43.396 42.514 43.9514C42.8234 44.2086 42.9707 44.3495 43.1323 44.464C43.2921 44.5808 43.4428 44.7194 43.7819 44.916C44.1125 45.1333 44.2969 45.1926 44.4704 45.2801C44.6428 45.3717 44.8267 45.4222 45.18 45.5654C45.9039 45.7891 45.9336 45.6547 46.6564 45.7509C47.0206 45.7639 47.2107 45.785 47.378 45.7433C47.4636 45.7316 47.5492 45.7198 47.656 45.7052C47.7633 45.6987 47.8912 45.6846 48.0607 45.6376C48.2309 45.6001 48.3576 45.5654 48.4609 45.5325C48.5625 45.4873 48.6402 45.4357 48.7178 45.391C48.8714 45.2924 49.0301 45.2325 49.3435 45.054C49.6649 44.9043 49.867 44.8902 50.0771 44.8685C50.2861 44.8479 50.5178 44.8456 50.817 44.5796C50.9694 44.4528 51.0773 44.3501 51.1624 44.2596C51.24 44.1587 51.2954 44.07 51.3508 43.9831C51.4541 43.7999 51.5854 43.6578 51.8326 43.3384C52.3498 42.7237 52.3013 42.682 52.7648 42.0156C53.1662 41.2958 53.1234 41.2747 53.4676 40.5226C53.652 40.1532 53.7485 39.9671 53.8484 39.7822C53.946 39.5961 54.0596 39.4158 54.1961 39.016C54.4387 38.2028 54.4552 38.2098 54.6419 37.3773C54.8503 36.5477 54.3719 36.4062 54.522 35.5883C54.6356 34.6143 55.7774 34.2679 56.398 34.3072C57.0088 34.3436 58.0353 35.0141 57.8823 36.1954L57.8794 36.1995Z" fill="#394F10"/>
</g>
<defs>
<clipPath id="clip0_259_7043">
<rect width="65" height="65" fill="white"/>
</clipPath>
</defs>
</svg>
