<svg width="65" height="65" viewBox="0 0 65 65" fill="none" xmlns="http://www.w3.org/2000/svg">
<g clip-path="url(#clip0_259_7052)">
<path d="M61.0808 16.6064C47.3762 -11.7497 1.60344 -2.24684 0.150035 33.3755C-2.13388 59.3231 22.0863 70.6304 43.5969 62.2999C59.7022 56.0626 71.46 38.0821 61.0808 16.6064Z" fill="#80673B"/>
<path d="M31.6083 56.4066C18.4875 56.4066 13.6602 43.6152 13.169 26.9231C12.6779 10.2311 20.4631 26.6971 29.0104 14.8738C29.8403 13.7089 30.5811 11.3044 31.4881 10.2414C35.0822 5.9801 37.3041 13.1682 38.884 16.0472C43.7664 24.9438 52.4817 13.1492 51.8162 22.9678C51.1508 32.7865 48.114 56.4066 31.6083 56.4066Z" fill="#DECAA4"/>
<path d="M51.7799 50.2708C50.9563 50.6268 50.7706 50.0292 49.9412 50.3122C49.1049 50.59 49.1469 50.6889 48.2727 50.8828C47.8361 50.9812 47.6049 50.9633 47.3766 50.9449C47.1442 50.9121 46.913 50.8701 46.4736 50.9271C46.033 50.9812 45.8122 50.999 45.5907 51.0047C45.367 50.9967 45.1444 50.9886 44.7004 51.0001C43.8141 51.0352 43.8055 51.209 42.9014 51.1514C42.4487 51.1284 42.2376 50.9938 42.0288 50.8799C41.8201 50.7631 41.6159 50.6475 41.1793 50.5699C40.7486 50.4629 40.5335 50.41 40.3178 50.3565C40.1038 50.2989 39.8784 50.2725 39.466 50.1051C38.6332 49.7939 38.6383 49.7812 37.8435 49.3929C37.4403 49.2094 37.2097 49.1749 36.9698 49.1468C36.7329 49.1151 36.4809 49.0938 36.1008 48.854C35.3548 48.3524 35.4854 48.1648 34.7906 47.627C34.101 47.0805 34.2574 46.8941 33.615 46.3189C32.9829 45.7443 32.9018 45.7903 32.31 45.2208C32.027 44.9412 31.8527 44.8342 31.679 44.729C31.5076 44.6214 31.3368 44.515 31.0257 44.2642C30.4022 43.7672 30.6392 43.4508 29.9708 42.9768C29.2933 42.5155 29.0828 42.8399 28.3984 42.4246C27.7042 42.0231 27.6426 42.1318 26.9369 41.7734C26.2237 41.4329 26.1668 41.5594 25.4501 41.2695C24.7306 41.0147 24.7732 40.868 24.0416 40.6805C23.677 40.5948 23.5067 40.5137 23.3324 40.4429C23.1565 40.3589 22.9793 40.2922 22.6198 40.279C21.8727 40.2916 21.8474 40.1093 21.0899 40.2238C20.7161 40.2968 20.5349 40.3653 20.3675 40.4521C20.1956 40.5309 20.0305 40.6161 19.6952 40.7535C19.3679 40.9054 19.2512 41.0584 19.15 41.2109C19.0936 41.2822 19.0533 41.3639 18.9895 41.445C18.9216 41.5232 18.844 41.6106 18.7376 41.7153C18.5213 41.9236 18.4782 42.0691 18.4448 42.2037C18.4212 42.2693 18.412 42.3372 18.3954 42.4148C18.3689 42.4896 18.3465 42.5776 18.3114 42.6904C18.2418 42.9153 18.1549 43.0251 18.0681 43.158C18.014 43.2322 17.9922 43.2731 17.968 43.3404C17.9571 43.3737 17.9444 43.4111 17.9398 43.456C17.949 43.5026 17.9628 43.5544 17.9807 43.6125C18.0008 43.7309 18.0796 43.8195 18.1066 43.8978C18.1348 43.9777 18.1803 44.0375 18.2228 44.0991C18.266 44.1601 18.301 44.2256 18.3603 44.3004C18.4299 44.3695 18.5127 44.4529 18.6237 44.5633C18.8865 44.7526 19.0234 44.8388 19.1833 44.8929C19.2587 44.9257 19.3334 44.9585 19.4278 44.9993C19.5278 45.0292 19.6457 45.0684 19.7999 45.1282C20.4406 45.2973 20.4262 45.44 21.1325 45.4601C21.3096 45.4532 21.4425 45.4428 21.5506 45.4193C21.6593 45.3842 21.7445 45.3479 21.8279 45.3123C21.9958 45.2427 22.1591 45.1828 22.4968 45.0707C22.8401 44.9855 22.9845 44.8475 23.1277 44.7324C23.2703 44.6128 23.4135 44.5161 23.7207 44.3246C24.3441 43.9852 24.588 44.3223 25.2258 43.8719C25.8545 43.3484 25.6969 43.1649 26.3014 42.6254C26.8978 42.0737 26.9197 42.0979 27.5006 41.5238C28.078 40.9428 27.9808 40.8519 28.545 40.2531C29.1081 39.6503 29.2864 39.8153 29.8489 39.1975C30.4137 38.5786 30.19 38.3778 30.764 37.7537C31.3431 37.1307 31.4898 37.2694 32.0851 36.6556C32.6855 36.0453 32.5325 35.8905 33.1606 35.2923C33.7904 34.6975 33.7697 34.671 34.4254 34.0987C35.0954 33.5338 35.3531 33.8698 36.0139 33.3382C36.6782 32.8108 36.5488 32.6439 37.239 32.1256C37.9395 31.6143 38.0965 31.8363 38.8184 31.36C39.5568 30.905 39.2612 30.3994 40.0739 29.9731C40.9016 29.5693 41.0218 29.8403 41.8741 29.5239C42.3061 29.372 42.5108 29.2518 42.7202 29.127C42.9267 28.9958 43.1469 28.8877 43.6134 28.7933C44.0879 28.7289 44.3375 28.8106 44.5831 28.9256C44.8281 29.0361 45.0628 29.1321 45.5131 29.1465C46.4161 29.1805 46.4115 29.2242 47.2955 29.3525C48.1674 29.5216 48.2635 29.1327 49.1555 29.3991C50.0355 29.7172 49.8911 30.0675 50.7004 30.4736C51.1024 30.6945 51.2968 30.8164 51.4809 30.9614C51.6672 31.1012 51.8622 31.2231 52.2102 31.5452C52.5731 31.8432 52.7358 32.0284 52.9331 32.178C53.1333 32.3247 53.2891 32.5277 53.5646 32.9459C53.9937 33.8508 54.2376 33.7921 54.4187 34.8379C54.4423 35.1002 54.4297 35.2998 54.4003 35.462C54.3641 35.6231 54.2916 35.745 54.2318 35.8664C54.1007 36.108 54.0035 36.3329 53.8798 36.8029C53.7912 37.2786 53.7113 37.5133 53.6871 37.7738C53.6613 38.035 53.5641 38.2766 53.3024 38.7138C52.9889 39.109 52.8578 39.3333 52.6887 39.5179C52.5271 39.7106 52.37 39.9218 51.9634 40.2071C51.1444 40.7593 51.0857 40.654 50.2242 41.0383C49.7836 41.1976 49.5731 41.3104 49.3545 41.3932C49.1371 41.4818 48.9191 41.5859 48.4584 41.6659C47.533 41.82 47.4922 41.4174 46.6007 41.4605C46.1515 41.4496 45.9226 41.5721 45.6816 41.6595C45.4424 41.7533 45.1835 41.8586 44.7367 41.7677C44.2846 41.6843 44.0781 41.5422 43.8837 41.3886C43.6916 41.2235 43.5064 41.0596 43.0814 40.9399C42.6517 40.8301 42.4533 40.7363 42.2405 40.6765C42.0334 40.604 41.8149 40.5522 41.414 40.3739C40.6255 40.0011 40.48 40.287 39.7081 39.8568C38.9299 39.4397 38.892 39.5116 38.1403 39.0549C37.415 38.5711 37.4081 38.578 36.7024 38.0747C36.0087 37.5604 36.0249 37.5346 35.3531 37.0042C34.6761 36.4773 34.6986 36.4554 34.0371 35.9199C33.3849 35.3797 33.508 35.2319 32.8633 34.6912C32.4323 34.3361 32.0013 33.981 31.5703 33.6259C30.9319 33.0874 31.1211 32.8637 30.4781 32.3333C29.8299 31.8156 29.6223 32.0745 28.9729 31.578C28.3201 31.0897 28.3173 31.0989 27.6374 30.6145C26.9599 30.1307 26.9455 30.1549 26.2657 29.6803C25.5801 29.2225 25.4755 29.3732 24.7864 28.9343C24.1008 28.489 24.3338 28.118 23.6298 27.6889C22.9166 27.2851 22.763 27.556 22.0504 27.1844C21.3355 26.8168 21.4845 26.5085 20.742 26.1778C19.9971 25.8591 19.9161 26.0639 19.1707 25.7929C18.4143 25.5542 18.3493 25.7751 17.5999 25.6031C17.2261 25.5036 17.0426 25.4558 16.8586 25.3931C16.6739 25.3385 16.4887 25.2562 16.1068 25.2223C15.3442 25.1717 15.3453 25.0894 14.5804 25.117C14.1968 25.1147 14.0093 25.1636 13.8223 25.201C13.636 25.2436 13.4468 25.2649 13.0735 25.331C12.3385 25.5116 12.2878 25.3419 11.5689 25.587C10.8563 25.8545 10.839 25.8274 10.1621 26.176C9.50814 26.5574 9.58579 26.688 9.02041 27.1298C8.75297 27.3627 8.60285 27.4605 8.46769 27.5715C8.32218 27.6757 8.1899 27.7919 7.98629 28.0668C7.79937 28.3493 7.76026 28.5143 7.72748 28.6743C7.70332 28.7519 7.69469 28.833 7.67916 28.9297C7.66594 29.0269 7.6182 29.1339 7.59979 29.2852C7.52502 29.5791 7.46981 29.7287 7.37318 29.888C7.30359 30.0531 7.21444 30.2579 7.26448 30.6099C7.28116 30.79 7.33235 30.9142 7.39101 31.0109C7.44738 31.1081 7.50547 31.1811 7.57851 31.2427C7.71252 31.3727 7.84308 31.4848 7.98112 31.7448C8.12491 32.0014 8.13871 32.1768 8.16402 32.3707C8.1922 32.5605 8.23361 32.7659 8.51313 32.9977C8.79496 33.2284 9.02444 33.2324 9.2361 33.2347C9.45235 33.2358 9.66113 33.2289 9.99414 33.3998C10.6751 33.7225 10.7177 33.7265 11.4286 33.9854C12.132 34.2155 12.0123 34.6107 12.7865 34.7654C13.5514 34.946 13.6205 34.5244 14.3797 34.6193C15.1394 34.7084 15.1199 35.2929 15.9308 35.3331C16.743 35.3182 16.7326 35.0519 17.5321 35.0156C18.3304 34.9126 18.3568 35.1261 19.1626 35.0024C19.9621 34.8407 19.9437 34.7504 20.731 34.5572C21.5144 34.3426 21.5052 34.3092 22.273 34.0515C23.0414 33.7961 23.0173 33.7248 23.7638 33.4222C24.2642 33.227 24.7565 33.0144 25.2408 32.7843C25.9735 32.4495 25.8746 32.2585 26.5677 31.8772C27.267 31.5044 27.4022 31.7299 28.0843 31.3042C28.7423 30.8515 28.7084 30.8095 29.3433 30.3327C29.6309 30.0657 29.8081 29.9697 29.9875 29.8713C30.1629 29.7701 30.3625 29.6844 30.6133 29.3806C31.1407 28.7876 30.7363 28.4603 31.1533 27.8643C31.5381 27.2322 31.717 27.3317 32.0442 26.6408C32.2214 26.3032 32.2599 26.1116 32.3272 25.9344C32.3819 25.7521 32.4699 25.5807 32.5607 25.2114C32.7764 24.4831 32.8506 24.4998 32.9881 23.7457C33.0473 23.3683 33.0462 23.1762 33.0761 22.9869C33.0956 22.7971 33.1376 22.6061 33.1123 22.2242C33.1048 21.8417 33.1014 21.6501 33.0973 21.4591C33.0726 21.2693 33.0479 21.0789 32.999 20.6993C32.9593 20.3161 32.7937 20.1551 32.6706 19.9923C32.536 19.8312 32.4164 19.6736 32.3088 19.3187C32.1685 18.973 32.1875 18.7665 32.203 18.5531C32.2168 18.3414 32.2478 18.1153 32.0488 17.7771C31.6658 17.0949 31.4967 17.1995 31.0418 16.5777C30.8203 16.2619 30.7053 16.1072 30.5897 15.9536C30.4683 15.8035 30.3245 15.6677 30.0709 15.3726C29.8144 15.0792 29.6815 14.9366 29.5487 14.7945C29.4032 14.6616 29.2576 14.5293 28.9672 14.2641C28.3857 13.7292 28.1798 13.9069 27.5512 13.4375C26.823 12.8738 27.1261 11.9321 27.4793 11.4248C27.8313 10.9169 28.7164 10.3554 29.5734 11.0198C30.2923 11.5605 30.2365 11.7671 30.9037 12.3745C31.5697 12.9888 31.3195 13.0855 31.9171 13.7631C32.2128 14.1059 32.3266 14.3044 32.4233 14.5155C32.5124 14.7341 32.5998 14.9498 32.8581 15.3197C33.3826 16.0491 33.6685 15.8828 34.1234 16.7037C34.3563 17.1098 34.3454 17.3756 34.3454 17.6281C34.3448 17.8812 34.3408 18.128 34.5088 18.5536C34.6485 18.9897 34.7831 19.1904 34.9378 19.3923C35.077 19.5971 35.2662 19.7979 35.322 20.2724C35.4618 21.2158 35.2789 21.2331 35.2979 22.1661C35.3232 22.6343 35.2501 22.865 35.1909 23.0934C35.1247 23.3212 35.0839 23.5489 35.0206 24.0034C34.8561 24.9025 35.2277 24.9847 34.9614 25.893C34.8429 26.3498 34.7106 26.5528 34.6031 26.7622C34.4817 26.9664 34.4001 27.185 34.1867 27.6003C33.7852 28.443 33.7312 28.4148 33.2457 29.2127C32.9714 29.5952 32.8903 29.8299 32.7994 30.0606C32.6982 30.2792 32.5941 30.5018 32.2789 30.8573C31.9695 31.2225 31.7003 31.2778 31.4461 31.3428C31.1901 31.4066 30.94 31.4647 30.6092 31.7684C29.907 32.312 30.0283 32.4771 29.2956 32.9931C28.9223 33.2364 28.763 33.3998 28.6014 33.5643C28.4421 33.7323 28.2776 33.8962 27.8836 34.1062C27.1003 34.5341 27.1348 34.6049 26.3249 34.9765C25.5186 35.3596 25.4197 35.1289 24.6006 35.4459C23.7845 35.7738 23.7914 35.7939 22.9551 36.0683C22.1212 36.3461 22.1632 36.5032 21.3056 36.7338C20.444 36.9507 20.3848 36.6723 19.5238 36.8466C18.6536 36.9875 18.6438 36.9311 17.769 37.0439C16.8839 37.0974 16.8821 37.0634 15.9958 37.0911C15.1038 37.0519 15.1021 37.1842 14.2019 37.0939C13.3041 36.9772 13.2604 37.3165 12.3419 37.1043C11.4245 36.9133 11.4585 36.7747 10.5647 36.4704C10.1063 36.3202 9.94756 36.1667 9.76523 36.024C9.58521 35.8721 9.40979 35.7318 8.99971 35.5281C8.58963 35.3211 8.33886 35.2854 8.08004 35.2377C7.82353 35.1916 7.55378 35.1404 7.1345 34.8091C6.71694 34.4714 6.60996 34.1683 6.52771 33.883C6.48343 33.7426 6.44719 33.5988 6.3891 33.4337C6.32526 33.2738 6.23956 33.0955 6.11131 32.8648C5.85536 32.4041 5.79785 32.1423 5.74609 31.8915C5.68972 31.6402 5.65291 31.3882 5.58044 30.9044C5.5074 30.4201 5.36994 30.1969 5.19394 29.9461C5.1186 29.8138 5.049 29.6694 5.00184 29.4888C4.94835 29.307 4.93455 29.0861 4.99954 28.802C5.04958 28.5149 5.11975 28.3107 5.18301 28.1427C5.24743 27.9759 5.28884 27.835 5.35671 27.7119C5.48669 27.4617 5.60287 27.1999 5.90655 26.7449C6.21656 26.3003 6.41959 26.1191 6.62549 25.9597C6.82794 25.7912 7.03442 25.6411 7.40942 25.3109C7.79477 25.0008 8.03058 24.9082 8.26582 24.8311C8.49875 24.746 8.73226 24.6787 9.13659 24.448C9.95791 24.0189 9.88659 23.8619 10.7648 23.5231C11.6592 23.2153 11.6713 23.2711 12.5754 23.0577C13.0298 22.9616 13.2679 22.9754 13.4985 22.9542C13.7309 22.9484 13.961 22.9093 14.4228 22.9099C15.3448 22.8805 15.3505 22.67 16.2834 22.7396C16.7493 22.7701 16.9742 22.8138 17.2088 22.8201C17.4389 22.842 17.681 22.8339 18.1262 22.9507C19.0286 23.1607 18.8929 23.6375 19.7343 23.9073C20.566 24.1978 20.6839 23.897 21.5081 24.2387C22.3167 24.6016 22.3484 24.5389 23.1317 24.9422C23.9168 25.3442 23.7638 25.6135 24.5207 26.0351C25.254 26.4838 25.4513 26.1709 26.176 26.6414C26.9047 27.1068 26.9381 27.051 27.6524 27.5296C28.3558 28.0168 28.082 28.4097 28.7716 28.8992C29.4584 29.3881 29.551 29.2587 30.2463 29.7799C30.9359 30.3016 30.9377 30.2935 31.61 30.8256C32.2645 31.3669 32.2047 31.4457 32.8483 31.9887C33.4948 32.5318 33.3872 32.656 34.0268 33.1967C34.6663 33.7351 34.8268 33.5419 35.4647 34.0728C36.1054 34.5905 36.1088 34.5951 36.7547 35.0967C37.3983 35.6047 37.3845 35.6208 38.0385 36.104C38.6953 36.5808 38.7585 36.4848 39.4205 36.9369C40.0992 37.3436 40.0336 37.4667 40.7302 37.8365C41.4198 38.222 41.4014 38.253 42.1105 38.5855C42.4642 38.7552 42.6839 38.7201 42.8898 38.7167C43.0998 38.6965 43.2994 38.7126 43.6582 38.807C44.3726 39.0048 44.299 39.3172 45.0478 39.442C45.4228 39.5191 45.6126 39.4708 45.7926 39.4161C45.9738 39.373 46.1538 39.3086 46.5075 39.3149C47.2173 39.2896 47.2317 39.4018 47.9448 39.2896C48.3009 39.2286 48.4734 39.1872 48.6465 39.1446C48.8237 39.1113 48.9933 39.0618 49.3223 38.9398C49.9538 38.6724 50.1287 39.0002 50.7268 38.6097C50.866 38.5038 50.9592 38.4089 51.0196 38.3151C51.0708 38.2133 51.0978 38.1196 51.1225 38.0287C51.1829 37.8521 51.2025 37.6686 51.3854 37.4373C51.6942 36.9444 51.7725 36.9818 51.9444 36.4036C51.9738 36.2547 52.01 36.1471 52.0221 36.0505C52.0278 35.9521 52.0324 35.8733 52.037 35.7939C52.0434 35.7151 52.0497 35.6363 52.0577 35.5379C52.056 35.4419 52.037 35.3314 52.0278 35.1807C51.941 34.5865 51.7356 34.6515 51.5194 34.151C51.2105 33.6776 51.3417 33.5701 50.8798 33.1185C50.6417 32.8965 50.5083 32.79 50.3691 32.6877C50.2385 32.5778 50.1022 32.4714 49.7865 32.304C49.1538 31.9795 49.2211 31.8093 48.5154 31.5521C47.7907 31.3284 47.7061 31.6563 46.9895 31.5084C46.266 31.4032 46.289 31.1432 45.543 31.1104C45.1709 31.0983 44.9914 31.1196 44.8126 31.1397C44.6331 31.1506 44.4537 31.184 44.0919 31.234C43.3718 31.3767 43.381 31.4118 42.6759 31.6384C41.9748 31.8921 41.9748 31.8961 41.2881 32.2257C40.6059 32.5789 40.6991 32.7457 40.04 33.1473C39.3855 33.5793 39.4763 33.7075 38.8345 34.174C38.1949 34.6509 37.9165 34.2937 37.2706 34.8045C36.6299 35.3199 36.6863 35.4177 36.0755 35.9331C35.4658 36.4594 35.5124 36.5106 34.924 37.0606C34.3368 37.6139 34.3943 37.6732 33.8232 38.249C33.2567 38.8328 33.198 38.7794 32.6361 39.3828C32.0747 39.9925 32.2018 40.1093 31.637 40.73C31.0694 41.3529 30.7852 41.0964 30.2066 41.7182C29.6229 42.3383 29.9467 42.6524 29.3353 43.2708C28.7158 43.884 28.6549 43.8218 28.0147 44.4166C27.3608 45.0005 27.4028 45.0494 26.7253 45.6114C26.3658 45.8961 26.065 45.9289 25.8021 45.9531C25.667 45.9651 25.5341 45.9767 25.3875 46.0169C25.2322 46.0474 25.0625 46.1055 24.86 46.2211C24.462 46.4616 24.2786 46.6232 24.0853 46.786C23.8903 46.943 23.7103 47.1449 23.2226 47.2732C22.9828 47.3434 22.7987 47.3808 22.644 47.4003C22.4835 47.405 22.3535 47.3963 22.2253 47.3865C21.9682 47.3664 21.7226 47.3612 21.2234 47.3624C20.7282 47.3929 20.4711 47.3877 20.2077 47.4372C19.9442 47.4843 19.6728 47.4694 19.1597 47.3417C18.6565 47.1599 18.4109 47.0564 18.1791 46.912C18.0623 46.8441 17.9456 46.7768 17.7995 46.6922C17.6609 46.591 17.4952 46.4696 17.2738 46.3074C16.854 45.941 16.6492 45.7448 16.4652 45.5124C16.2759 45.2939 16.085 45.0557 15.84 44.4695C15.6111 43.8707 15.6484 43.4635 15.6674 43.1586C15.7157 42.8675 15.7531 42.5799 15.909 42.0156C16.085 41.4599 16.1649 41.1729 16.2449 40.8738C16.334 40.5821 16.4398 40.2698 16.8557 39.855C17.2767 39.4501 17.5487 39.3529 17.8024 39.243C18.0629 39.1492 18.3143 39.056 18.779 38.8409C19.2472 38.6413 19.4853 38.5636 19.724 38.4969C19.9621 38.4216 20.2013 38.3658 20.6787 38.2691C21.1572 38.1851 21.4034 38.2208 21.6438 38.2588C21.8865 38.2893 22.1172 38.3428 22.5871 38.3353C23.0748 38.3554 23.3284 38.2685 23.5792 38.2081C23.834 38.1385 24.0997 38.0707 24.5661 38.1811C25.4956 38.4141 25.3668 38.8133 26.2151 39.109C27.0445 39.4414 27.0634 39.3983 27.8664 39.7791C28.6532 40.1789 28.8228 39.866 29.5993 40.3135C30.3631 40.7771 30.2895 40.891 31.0228 41.3886C31.5055 41.7307 31.9798 42.0862 32.4457 42.4551C32.7925 42.7358 32.9311 42.9181 33.0657 43.1039C33.202 43.2874 33.3389 43.4658 33.6587 43.781C33.9911 44.1014 34.1039 44.2233 34.2522 44.3746C34.3914 44.5219 34.5341 44.664 34.8291 44.9326C35.4215 45.4687 35.4394 45.4469 36.0559 45.9404C36.6794 46.4236 36.7633 46.304 37.4058 46.7354C37.7308 46.9459 37.9108 47.0172 38.0816 47.1064C38.2553 47.1892 38.4215 47.287 38.7695 47.4429C39.1146 47.6057 39.2986 47.6627 39.4844 47.7098C39.6742 47.7455 39.8623 47.7806 40.2137 47.914C40.9159 48.1689 40.8159 48.5163 41.563 48.7332C42.3302 48.8494 42.3492 48.7314 43.1113 48.7959C43.8768 48.8407 43.8745 48.8511 44.6435 48.816C45.0277 48.8056 45.2192 48.7809 45.409 48.7562C45.5994 48.7205 45.7886 48.6682 46.1705 48.6216C46.553 48.5727 46.7491 48.579 46.9458 48.5796C47.1414 48.5635 47.3375 48.5468 47.72 48.4605C48.1019 48.3713 48.2928 48.327 48.4838 48.2827C48.6718 48.2212 48.8599 48.1591 49.2355 48.0354C49.9895 47.7817 49.8825 47.3819 50.5992 47.0661C51.4452 46.7106 52.2832 47.5626 52.5506 48.12C52.8192 48.6768 52.7744 49.8537 51.7788 50.2708L51.7799 50.2708Z" fill="#453517"/>
</g>
<defs>
<clipPath id="clip0_259_7052">
<rect width="65" height="65" fill="white"/>
</clipPath>
</defs>
</svg>
