<svg width="65" height="65" viewBox="0 0 65 65" fill="none" xmlns="http://www.w3.org/2000/svg">
<g clip-path="url(#clip0_259_7057)">
<path d="M58.3851 12.55C42.6212 -6.84291 17.9092 -2.71363 5.12934 17.7443C-6.48192 35.9912 2.6574 55.7446 22.1235 62.0321C29.6906 64.4934 38.4377 66.1497 45.9523 64.0231C65.6901 58.635 70.4936 27.5782 58.4604 12.6463L58.3856 12.5494L58.3851 12.55Z" fill="#FFCB4B"/>
<path d="M12.3923 38.5938C8.41089 33.8286 12.68 23.8257 16.8098 18.211C26.4201 4.98527 45.9621 6.95568 53.0628 20.7315C55.384 25.2043 56.9968 32.2886 54.3713 36.7772C52.7534 39.6348 48.2097 40.297 46.8864 43.0853C45.2188 46.0392 46.9172 48.7541 46.2487 52.7647C45.5802 56.7754 30.5727 55.573 26.0387 55.499C22.0728 55.4344 20.2185 54.3946 20.8294 51.1589C21.0064 49.7669 21.0583 47.7389 19.8115 45.3552C18.5647 42.9714 14.7272 41.3885 12.3923 38.5938Z" fill="#FDEB9D"/>
<path d="M50.642 47.7684C50.3303 48.0032 50.0837 47.9433 49.8656 47.911C49.6435 47.8746 49.4306 47.8271 49.1075 47.9662C48.7878 48.1183 48.6325 48.194 48.4778 48.2786C48.3225 48.359 48.1678 48.4582 47.8241 48.5352C47.4822 48.6226 47.2972 48.5903 47.1156 48.5434C46.9341 48.4952 46.7588 48.4741 46.4226 48.4935C45.7489 48.5434 45.7478 48.4706 45.081 48.4512C44.4188 48.3948 44.3908 48.6085 43.7172 48.4876C43.0521 48.322 43.1337 48.0202 42.5126 47.8024C41.8995 47.5523 41.8783 47.5993 41.2892 47.281C40.9906 47.1296 40.8604 47.0168 40.7206 46.9241C40.5813 46.8272 40.4403 46.7297 40.1965 46.5501C39.6958 46.1866 39.4766 46.5037 38.968 46.1109C38.461 45.7064 38.6106 45.5173 38.1219 45.0775C37.6384 44.6143 37.8033 44.4434 37.3712 43.9338C37.1577 43.672 37.0395 43.5487 36.9213 43.4212C36.798 43.298 36.6855 43.1635 36.5126 42.8605C36.2009 42.2423 36.0713 42.2963 35.8355 41.6387C35.7236 41.3082 35.7738 41.1144 35.8275 40.9271C35.8783 40.7386 35.9297 40.5572 35.8692 40.2384C35.7499 39.6072 35.3679 39.6566 35.2863 39.0184C35.2087 38.3825 35.0876 38.3954 35.0283 37.7537C34.9872 37.1114 34.8393 37.1208 34.817 36.472C34.7919 35.8238 34.9466 35.8208 34.9403 35.1762C34.9558 34.5297 35.1516 34.5362 35.1864 33.8956C35.2246 33.2539 35.3993 33.2686 35.461 32.6339C35.5289 31.9992 35.4188 31.9834 35.5107 31.3463C35.6191 30.7122 35.3331 30.6553 35.4696 30.0118C35.622 29.373 35.4427 29.3243 35.6277 28.6808C35.8292 28.0384 36.1312 28.1471 36.363 27.5282C36.6165 26.9117 36.6547 26.9299 36.9533 26.3287C37.2781 25.7363 37.2199 25.6999 37.6121 25.1263C38.0323 24.5638 38.1345 24.6519 38.6317 24.1522C38.8915 23.908 39.0131 23.7659 39.1375 23.6191C39.2574 23.4706 39.4001 23.3291 39.7415 23.1465C40.0892 22.9709 40.2656 22.8693 40.4443 22.7543C40.6247 22.6533 40.8193 22.5359 41.2378 22.4989C41.6591 22.4525 41.8635 22.6163 42.0479 22.7367C42.1381 22.8106 42.2249 22.8846 42.3328 22.948C42.4384 23.0044 42.5725 23.0678 42.7655 23.1377C43.1526 23.2498 43.3421 23.3244 43.5579 23.3772C43.78 23.4248 43.9683 23.5287 44.2823 23.8246C44.7973 24.4722 44.7653 24.4992 45.0861 25.1914C45.3488 25.8907 45.4561 25.8549 45.6102 26.5677C45.721 27.2763 45.4681 27.2987 45.5097 27.9733C45.5052 28.6385 45.8249 28.6532 45.7718 29.3278C45.7278 30.0047 45.5029 29.9736 45.4224 30.6283C45.3094 31.2723 45.5246 31.3176 45.3841 31.9628C45.2289 32.6016 45.2814 32.6175 45.0947 33.2457C44.9149 33.8786 44.509 33.7401 44.3035 34.3454C44.0985 34.9513 44.2715 35.0229 44.0408 35.6294C43.7714 36.2271 43.5459 36.115 43.2525 36.6916C42.9613 37.2664 43.4477 37.557 43.0972 38.1482C42.709 38.7213 42.4858 38.5516 42.0639 39.0788C41.8589 39.3477 41.783 39.5098 41.7179 39.6865C41.6505 39.8609 41.5826 40.04 41.328 40.2766C41.0785 40.5208 40.8656 40.5349 40.6583 40.5443C40.45 40.5531 40.2542 40.569 39.9898 40.7574C39.4652 41.1461 39.4372 41.0997 38.8977 41.4414C38.3543 41.7673 38.5415 42.1184 37.9815 42.4225C37.4226 42.712 37.2564 42.3591 36.7067 42.6304C36.4321 42.7648 36.2934 42.8247 36.1541 42.8864C36.0245 42.9486 35.864 43.0079 35.5352 43.1306C34.8907 43.3872 34.9181 43.4976 34.2245 43.6367C33.8785 43.6948 33.7095 43.7283 33.5343 43.8041C33.3624 43.8575 33.1735 43.9614 32.8264 43.9127C32.1242 43.8299 32.1847 43.4165 31.555 43.2539C30.9162 43.1083 30.8579 43.3097 30.2271 43.0913C29.6163 42.8406 29.5786 42.9298 28.9792 42.6427C28.4145 42.3033 28.4499 42.2347 27.9105 41.8706C27.3807 41.4943 27.2945 41.6152 26.7892 41.1972C26.276 40.7862 26.5323 40.4762 26.0688 40.0394C25.5995 39.6096 25.2924 39.9243 24.8351 39.4446C24.3932 38.9497 24.7358 38.6496 24.3276 38.1547C23.9628 37.6181 23.9085 37.6586 23.5666 37.0996C23.24 36.5313 22.9683 36.6916 22.6806 36.0651C22.3866 35.4439 22.3038 35.4944 22.0697 34.8838C21.8493 34.2755 21.8448 34.2779 21.6444 33.6684C21.452 33.0578 21.488 33.0461 21.3104 32.4331C21.1403 31.819 21.1557 31.8143 20.9999 31.1966C20.8452 30.5784 21.0307 30.532 20.8914 29.9137C20.7561 29.2937 20.7413 29.2972 20.6191 28.6731C20.51 28.0449 20.7949 27.9944 20.7013 27.3697C20.6088 26.745 20.28 26.7902 20.2041 26.1526C20.1367 25.5138 20.1276 25.5144 20.0802 24.8709C20.0505 24.2233 20.0174 24.2262 20.0134 23.5727C20.0134 22.9192 19.8193 22.9134 19.8552 22.2441C19.9021 21.5706 20.3542 21.6182 20.4421 20.9688C20.5551 20.3177 20.244 20.2455 20.4227 19.5667C20.6391 18.8886 20.9559 19.0119 21.2448 18.3872C21.4058 18.0766 21.4446 17.8946 21.5091 17.7155C21.5702 17.5364 21.6153 17.3415 21.871 17.0603C22.1085 16.7696 22.2267 16.6129 22.33 16.432C22.4317 16.2489 22.5635 16.0874 22.8986 15.8678C23.5963 15.4868 23.6511 15.6171 24.3664 15.3946C24.8225 15.296 25.0589 15.3235 25.2821 15.3441C25.5025 15.3805 25.7234 15.4157 26.119 15.542C26.8669 15.8385 26.8874 15.8056 27.4988 16.2295C28.0634 16.6869 27.9738 16.7878 28.4448 17.2805C28.8907 17.7883 28.8678 17.8077 29.2623 18.3379C29.6414 18.8745 29.7715 18.7841 30.1186 19.3448C30.4498 19.912 30.3493 19.9701 30.6484 20.5455C30.9373 21.1244 31.0635 21.0622 31.3295 21.6569C31.5835 22.2581 31.3055 22.3756 31.5316 22.975C31.7468 23.578 32.0836 23.4582 32.2789 24.0841C32.4644 24.7135 32.0688 24.8274 32.2218 25.4498C32.3651 26.0757 32.8029 25.9805 32.9223 26.6364C33.0233 27.2887 33.0519 27.3075 33.1198 27.948C33.1797 28.5804 32.8138 28.6144 32.8612 29.2432C32.908 29.872 33.2939 29.848 33.3293 30.4856C33.3556 31.125 32.7287 31.1473 32.7407 31.7755C32.7527 32.4043 32.9948 32.4037 32.9948 33.039C32.9771 33.6749 32.795 33.669 32.7618 34.3008C32.7339 34.9325 32.852 34.9407 32.8035 35.5754C32.7516 36.2095 32.8172 36.2177 32.7516 36.8542C32.6562 37.4883 32.7716 37.5053 32.6591 38.1412C32.5392 38.7765 32.5575 38.7788 32.4079 39.4111C32.2663 40.0435 32.4456 40.0946 32.268 40.7298C32.0813 41.3645 31.7702 41.2577 31.5653 41.8736C31.3084 42.4766 31.354 42.4948 31.0692 43.0889C30.774 43.6802 30.617 43.5903 30.2791 44.1475C29.9548 44.7082 30.3636 45.0024 29.9685 45.5678C29.5409 46.1074 29.3982 45.9817 28.9432 46.482C28.6971 46.7168 28.5784 46.8383 28.4591 46.9605C28.3432 47.0867 28.2193 47.2035 27.9447 47.4067C27.6735 47.6139 27.5245 47.6985 27.375 47.7778C27.2174 47.8453 27.061 47.9122 26.7727 48.086C26.4867 48.2657 26.3342 48.3355 26.1767 48.3931C26.0214 48.4565 25.8672 48.5193 25.5635 48.6584C24.9481 48.9097 24.9316 48.8569 24.3076 49.073C23.6739 49.2215 23.7436 49.5609 23.0842 49.6977C22.4231 49.7752 22.382 49.4006 21.7437 49.4669C21.1061 49.4822 21.1118 49.7352 20.461 49.7487C19.8181 49.7182 19.8176 49.7405 19.1747 49.7012C18.5342 49.6495 18.5371 49.6525 17.9028 49.5708C17.2703 49.4863 17.1858 49.7752 16.5584 49.6413C15.8077 49.481 15.7957 48.5087 15.9418 47.8964C16.0891 47.284 16.5704 46.3598 17.22 46.4984C17.7715 46.6205 17.7995 46.7767 18.355 46.8495C18.9081 46.92 18.8185 47.166 19.378 47.2106C19.9346 47.2435 19.9243 47.4648 20.4895 47.4948C21.0512 47.4813 21.0427 47.0984 21.5845 47.0879C22.1148 47.0327 22.1548 47.412 22.7068 47.3515C23.2452 47.2405 23.167 46.8654 23.6773 46.7538C24.1632 46.58 24.2374 46.7978 24.7283 46.6006C24.9664 46.489 25.1028 46.4743 25.2421 46.4585C25.3837 46.4467 25.5241 46.4279 25.7496 46.2823C26.2126 46.0064 26.0248 45.7122 26.4244 45.3958C26.8389 45.0957 26.8908 45.1521 27.2813 44.8022C27.6393 44.4141 27.6701 44.4411 28.0081 44.0254C28.3158 43.5751 28.1211 43.4424 28.3854 42.9774C28.6617 42.5253 29.0956 42.7684 29.3491 42.2564C29.6008 41.7456 29.4085 41.654 29.6322 41.1367C29.8161 40.593 29.6408 40.5326 29.8047 39.9889C29.9565 39.437 29.9165 39.4288 30.041 38.8669C30.1734 38.3091 30.4075 38.3578 30.5148 37.7807C30.6199 37.2035 30.5628 37.1918 30.6518 36.6111C30.7146 36.0222 30.5245 36.0017 30.5748 35.4157C30.6187 34.828 30.8705 34.8462 30.8968 34.2491C30.9282 33.6532 30.9504 33.6532 30.9664 33.0543C30.9687 32.4542 31.0092 32.4542 31.0001 31.853C30.9881 31.2512 30.9002 31.2541 30.8745 30.6529C30.8431 30.0511 30.5537 30.0693 30.5103 29.4728C30.4663 28.8751 30.5811 28.8651 30.5257 28.2651C30.4635 27.6709 30.7204 27.6674 30.6319 27.089C30.5314 26.5195 30.1626 26.5976 30.0381 26.0463C29.9034 25.4967 30.3915 25.3564 30.2265 24.791C30.053 24.2303 30.1603 24.1921 29.9616 23.6355C29.7538 23.0795 29.1698 23.325 28.9512 22.8006C28.7194 22.281 28.7525 22.264 28.5002 21.7556C28.2416 21.2541 28.3757 21.1755 28.0909 20.6876C27.7991 20.2102 28.0132 20.0623 27.6901 19.6002C27.3595 19.1493 27.2202 19.2655 26.876 18.8645C26.5209 18.4911 26.5289 18.4753 26.1607 18.1694C25.7959 17.9052 25.8164 17.85 25.4711 17.7014C25.1417 17.5993 25.1314 17.8547 24.9647 17.8646C24.8037 17.9128 24.6895 17.9768 24.6073 18.0202C24.5291 18.0854 24.4509 18.1429 24.2842 18.2281C23.9879 18.4301 23.6768 18.0326 23.3514 18.3731C23.1926 18.5428 23.1926 18.6984 23.1966 18.8422C23.1949 18.9808 23.2046 19.1182 23.1013 19.3278C22.8992 19.757 22.954 19.781 22.8022 20.2584C22.6703 20.751 22.3837 20.684 22.2889 21.2324C22.2107 21.7896 22.551 21.8272 22.5133 22.3803C22.4785 22.938 22.5572 22.9427 22.5527 23.5087C22.5555 24.0759 22.0874 24.0953 22.1125 24.6865C22.1576 25.2783 22.3089 25.2637 22.3717 25.8526C22.4385 26.4414 22.4568 26.4391 22.5413 27.028C22.6286 27.6169 22.531 27.6345 22.6326 28.2251C22.7485 28.8134 22.5841 28.8481 22.7131 29.4376C22.8438 30.027 23.0865 29.9672 23.2298 30.5484C23.3759 31.1297 23.3913 31.1256 23.55 31.7027C23.7161 32.2775 23.6922 32.2851 23.8703 32.8547C24.0558 33.4201 24.1512 33.3866 24.3493 33.9379C24.4503 34.2121 24.4789 34.3565 24.5097 34.4992C24.5377 34.6472 24.5702 34.7863 24.6878 35.0259C24.911 35.5161 24.8745 35.5396 25.1536 36.0175C25.4357 36.4972 25.7394 36.287 26.0374 36.7368C26.3799 37.1607 26.1453 37.3638 26.5146 37.7889C26.9074 38.1934 27.069 38.029 27.4766 38.3983C27.8791 38.7741 27.802 38.8675 28.2359 39.2115C28.6617 39.5656 28.6537 39.575 29.1036 39.8914C29.5517 40.2061 29.3816 40.495 29.8635 40.7903C30.3624 41.0387 30.5263 40.6805 31.0064 40.8895C31.4968 41.0492 31.4688 41.1772 31.9677 41.2835C32.4644 41.4144 32.4644 41.3974 32.9548 41.4532C33.2026 41.496 33.319 41.4121 33.4355 41.3645C33.5497 41.3041 33.6661 41.2688 33.8871 41.2424C34.3089 41.1391 34.3672 41.3575 34.7816 41.1761C35.1847 41.0393 35.2658 41.0199 35.791 40.7704C36.3219 40.5073 36.4052 40.677 36.9253 40.4075C37.4357 40.1316 37.2878 39.8356 37.7611 39.5509C38.2269 39.2614 38.3674 39.4857 38.8104 39.1628C39.033 39.0043 39.1289 38.9097 39.2271 38.8176C39.3248 38.7248 39.4292 38.6397 39.6182 38.4512C39.814 38.2698 39.8991 38.1664 39.9784 38.0578C40.0561 37.9474 40.1514 37.8564 40.313 37.6415C40.6486 37.2258 40.6372 37.2135 40.9461 36.7679C41.2247 36.2888 41.0802 36.2084 41.3286 35.7134C41.5866 35.2243 41.4233 35.1345 41.6585 34.6319C41.8595 34.1006 42.2968 34.2796 42.4886 33.7236C42.6747 33.1676 42.5805 33.1341 42.7375 32.5752C42.9036 32.018 42.826 31.9975 42.9607 31.4379C43.0898 30.8772 43.0013 30.8614 43.1075 30.3036C43.172 29.747 43.2816 29.754 43.3147 29.1974C43.3621 28.6373 43.1691 28.6379 43.18 28.1007C43.1423 27.5852 43.5402 27.5411 43.4563 27.0151C43.4237 26.7485 43.261 26.6657 43.132 26.5747C43.0013 26.4808 42.8545 26.4185 42.7832 26.2271C42.6308 25.8731 42.693 25.8314 42.5109 25.5766C42.3122 25.4022 42.2934 25.4551 42.1021 25.3823C42.029 25.3382 41.9309 25.195 41.8589 25.0347C41.7819 24.8908 41.6791 24.727 41.4684 24.7476C41.0443 24.8016 41.1288 25.1098 40.7857 25.2595C40.4426 25.4498 40.301 25.2472 39.9385 25.5637C39.5851 25.9095 39.7775 26.0886 39.4795 26.4825C39.1906 26.9 39.1655 26.8877 38.9092 27.355C38.666 27.8376 38.7139 27.8623 38.501 28.369C38.3063 28.8892 38.1801 28.8434 38.0077 29.3877C37.849 29.9402 38.1716 30.03 38.0385 30.5778C37.9221 31.1338 37.6949 31.0874 37.5973 31.6604C37.5133 32.2364 37.4985 32.2341 37.4368 32.8159C37.3775 33.3972 37.1531 33.3784 37.1149 33.9714C37.0823 34.5656 37.4928 34.5802 37.4797 35.1633C37.4848 35.7475 37.0692 35.7533 37.092 36.3504C37.1103 36.9464 37.1685 36.9434 37.2045 37.5382C37.2604 38.133 37.6058 38.096 37.6777 38.679C37.7491 39.2638 37.6189 39.2673 37.7189 39.8186C37.7702 40.0899 37.8033 40.2196 37.8399 40.3464C37.8736 40.4756 37.905 40.6065 37.9883 40.8484C38.1567 41.3275 37.9889 41.3998 38.2138 41.8583C38.4696 42.2922 38.4479 42.3045 38.7624 42.7096C39.0964 43.1071 39.1181 43.0866 39.5063 43.4623C39.9162 43.8317 40.003 43.7236 40.446 44.0777C40.8998 44.4299 40.9329 44.3865 41.4096 44.7335C41.6568 44.9155 41.7824 44.9554 41.9017 44.9906C42.0279 45.0253 42.1358 45.0817 42.3602 45.1909C42.7923 45.4269 42.6376 45.7915 43.1297 45.9952C43.6315 46.1719 43.6806 45.9952 44.1807 46.1226C44.6911 46.2119 44.6951 46.1825 45.2072 46.226C45.7198 46.2395 45.721 46.1696 46.2216 46.1309C46.474 46.1209 46.5967 46.108 46.7269 46.1238C46.857 46.1379 46.9861 46.1397 47.2304 46.0762C47.4787 46.024 47.5912 45.9676 47.7094 45.9259C47.8264 45.8825 47.9469 45.8455 48.1689 45.7363C48.399 45.64 48.4601 45.4703 48.5098 45.3053C48.5606 45.1398 48.6131 44.9948 48.7861 44.8574C49.0036 44.7141 49.3067 44.8034 49.6475 44.9783C49.9855 45.1562 50.3423 45.4198 50.5564 45.6465C50.7705 45.8725 50.9931 46.2436 51.0582 46.6516C51.1295 47.0615 51.0291 47.5088 50.6449 47.7707L50.642 47.7684Z" fill="#756623"/>
</g>
<defs>
<clipPath id="clip0_259_7057">
<rect width="65" height="65" fill="white"/>
</clipPath>
</defs>
</svg>
