<svg xmlns="http://www.w3.org/2000/svg" width="13" height="12" fill="none" viewBox="0 0 13 12"><path fill="#f2f1ed" d="M7 4q.5.1.8.6l.2.2.2.3-.1-.2.3.5q.3.2.4.8l-.1.6V7v-.2q0 .3-.2.4l.1-.1-.3.4v.1l-.4.4q-.4.4-.8.6.2-.1-.1 0l-.3.3h-.4V9q.1 0 0 0l-.5.2h-1L4.6 9l-.9-.5q.2 0 0 0L3 8l-.3-.4-.3-.5-.1-.3-.1-.2v-.2q-.2 0-.3-.6v-.5.3V5q0-.5.3-.7l.2-.4-.1.2.4-.4c-.3.3 0 0 0 0l.2-.2.2-.1.1-.1c.5-.3 0 0 0 0s.2 0-.2.2h.2l.2-.2.3-.2q.2 0-.2.2l.2-.1c.3-.1.1-.1.2-.2Q4 3 4 3h.1q.2 0 0 0l.1-.1h.4c.4-.2.2 0 .4 0h.2l.4.1.3.2-.4-.2q-.2 0 0 0l.1.2h.2l.1.2h.2q.8.3 1 .5M4 8.7l-.2-.1zm.4.2c.2 0-.3-.2-.1-.1zM7 8.7h-.1M8 8l-.2.2zm.3-.3-.2.2zM5.6 3.1h-.2L5.1 3z"/><path fill="#003932" d="M10.6 7v-.1h.4v-.1.1h-.1l-.1-.1v-.1h-.1V7v-.1h-.1v-.1.1h-.1l-.1-.1v-.1h-.1v.2-.2h-.1.1v-.1H10v.1h-.3.1v-.2h.1v.1h.1v-.1h-.1v-.2h.3v.1h.1l.1.1q0-.1 0 0v-.1h.1v.1l.1-.1h.3-.3v-.1h.1-.1V6h-.1l-.1.1.1-.1h-.2V6H10v-.1h-.9v-.1H9L9 5.6h-.5.1-.1l-.1-.1H8h.1-1 .2-.1.4l.1.1h.5v.1h.3-.1V6h.4V6H9l.2.1H9V6h.1v.1h.6v.1h.1v.1h-.2.1v.2h-.2v-.1h-.3v-.2h-.1v.1H9v-.1H9v.1h-.2.1v-.1h-.1V6H9h-.3.1v.1h-.1V6h-.2V6h-.5v-.1h-.1v-.1h-.9l.1-.1H5.8v-.1H6h-.1.1-.3.1-.9l-.1-.1h-.3.1q0 0 0-.1h-.3.1v.1h-.5v-.1q.1 0 0 0h-.3v-.1q0 0 .1 0v.1H2.4l-.2-.1h-.5v-.1H2h-.2v.1h-.5v-.1H1v.1H.1V5H0v-.3h1v.1H2V5h1.4l.1.1H4h-.3v-.1h-.4v-.1H3V5L3 4.7q-.1 0 0 0h-.7v-.1h-.5v-.2h.7v.1h.2l.2.1h.4v.1h.8V5h.7V5h.4q0 .1 0 .1h.4v.1h1.2l.3.1h.5v.1h1.6v.1h.8v.1h.3q0 0 .1 0v.1h.4l.2.1.1.1h.1V6h.2v.1h.1l.2.1.2.1v.1h.1v.1l-.1.3V7l-.1.1h-.3V7v.1l.1.1v.1l.1-.2v.3h-.2v-.2H11V7h-.2l-.1.1zM.1 5q0-.1 0 0m.1.3zm.2-.2-.1.1zM.6 5H.4v.3V5m0 .3zq.1 0 .1 0M.7 5v.2zm.6 0h-.1v.1zm.3.1h-.1v.1zm0-.1h.1m.3-.4q0 0 0-.1m.1-.1zm.5.6zm.3-.5zm.2.6zm.2 0v.1zm.1 0zv.1zm0-.2v.1m.4.3h-.2zm.2-.5zm0 .6H4M4 5H4m.3-.1H4m-.2.3h.1m.3-.2L4.1 5m-.2.2h.1m.1.2zm0-.4zm0-.2h.1m.7.2h-.6.6m-.5.3h.1m.2 0v-.1h-.1m0-.2h-.1m0 0zm.2-.1h-.1m0 .4h-.1m0-.3v.1m0 0zm0 0H5m.2 0v.1m.3.2h-.1v.1h-.1.1m.1 0h-.1v-.1H5h.1H5v.1h.3m.1.1q0 .1 0 0m.1-.1zm.1-.1h-.1zm0 0h-.1m.2.1h-.1zm.1 0v-.1m0 .1q.2 0 0 0zm.3 0H6v.1zm.2 0h-.3v-.1H6v.1h.4m-.4.1h.1m.3-.3h.1m.2 0v.1m.1.2h-.1zm.1 0h-.1zm.4.2h.1m0 0zm.1-.1v.1m.1 0v-.1m0 .2h.1m0-.3h.1m.4-.1h-.1M8 6h-.1v-.1zm0-.1h-.1zM8 5.5H8m.3.5v-.2H8V6zm0-.4q.2 0 0 0m0 .3h.1m0 0h.1m.5-.3h-.1m-.1.3zM9 6h.1m.1 0V6m.2-.1h-.1zm-.1.6v-.1m.4 0v-.2h-.2v.1h.2m-.2-.6V6m.2.7h-.1zm0-.4h-.1m-.1-.3V6m0 0h.1m.1-.1v.1m0 0zm.3.2h-.1m0-.1zm.2.7v-.1h.1m0-.4zm.1.1h.1m.2.5h.1m.2-.3v.2zm.2.5h-.2l.1.1zm.4-.5H11v.1l-.1-.1h-.2v.2h.3zm-.4.1v.1m0 0zm.2.2zm0-.4zm.2.4H11zm0 .2H11m-.1-.5v.1m0 .4V7zm.1.4.1-.1h-.1zm0-.4V7m.2 0V7zm0 .4v-.1zm.6-.1h-.1m0-.2"/><path fill="#003932" d="M8.4.7V.5h-.1zV1L8 1H8v.1l.1.1v.2-.1H8v.2-.2h-.1L8 1h-.2.1v.2h-.1l-.2.1h.1v.1h.1v-.2H8v.1h-.1v.1h-.1.2v.1h-.1l-.1.2h.1l-.2.1V2v-.2h-.1v.5h.1v.1-.1l-.1.1q0 0-.1 0v-.2h.1V2h-.1v.2h-.1v-.1h-.1v-.4h.2v-.1q-.1 0 0 0v-.1h.1-.1l-.1-.1v-.1h.1v-.2.1h-.1v.2-.1h-.1v.2H7v.2H7V2h.1-.2v.6l-.1.1V3h-.2v.2l-.1.1v.2h-.1v.2l.1-.2v.2h-.1V4h-.1v.4h-.1v.4H6V5v-.1h.1V5v-.3q0 0 0-.1h.1v-.3h.1v-.3h.1v-.3h.1v-.2h.1v-.1h.1V3H7V3h-.1v-.1H7v-.5h.1v-.2h.1v.2h.3-.1v.2h-.1V3v-.1H7V3h.2l-.1.1H7q0 0 0 .1h.1v.2-.1H7v.1-.1h-.1v.3-.1H7l-.1.1h-.1V4h-.1v.1l-.1.1h-.1v.3h-.1v.3h-.1V5q0 .1 0 0v.2V5v.2V5q-.1 0-.1 0v.3-.2h.1v.3H6v.1h.1v.2q0 0 0 .1V6l-.1.1v.1H6V6v.4h-.1v.7h-.2v.4-.1.1h-.1v.5q0-.1-.1 0v.3h-.1.1V9l-.1.2v.1h-.1v.5h-.1v.4H5v.1H5v.1l.1.1v.3l-.1.1v1h-.2v.1h-.5v-.5h.1V11h.1v-.3q0 0 0-.1v-.2l.2-.2v-.5h.1v-.4L5 9v-.2l.1-.2v-.3l.1-.1V8v.2H5v.4l-.1.1V9h-.1v.4l-.1.1v.1h-.1v.4l-.1.1h-.2v-.2l.1-.2v-.1l.1-.1v-.2h.1v-.1l.1-.2v-.3h.1v-.3l.1-.1V8l.1-.1v-.1l.1-.3.1-.2V7l.1-.2q.1 0 .1 0v-.4q0-.1 0 0h.1V6l.1-.1v-.3l.1-.1v-.3h.1v-.3H6v-.3l.1-.1V4l.1-.1v-.6h.1V3l.1-.1v-.2l.1-.3v-.1l.1-.1V2h.1v-.3h.1v-.2l.1-.1V1L7 1V.9H7V.6l.1-.1V.4h.1V.2l.2-.2h.1V0h.1l.3.2H8v.1h.1v.3H8h.3L8.2.3l.1.1zm-4 9.5h-.1m0-.1.1-.1M4.9 9v-.1m.1 2.6-.1-.1h-.1zm0 .1h-.1zm0-2.5zm0 2.3h-.1m.1-1.2h-.1m-.1.8v.2zm.1-.3h-.1m0 .5h-.1v.1zm.2-3.6v.1M5 11.5h-.1zm.2-3.7V8m-.1 2.8v-.2H5zm0-.8v-.1M5.4 7l-.1.2v.1l-.1.1v.2-.1h.1V7m-.2 2.8H5m.1-2.7v.1m-.1 2.3v.1m0 .1v.1m0-1.6zm.2-.3v-.1M5.2 7q.1 0 0-.2zm0-.2q.1 0 0 0m0 2v-.1zh.1m.1-.2zv.1h.1M5.3 8h.1m.1-1.2v.1m.1.4v.1m0-1zm.2.7v-.2zq0 0-.1 0zV7zV7h.1zm-.1.2v.1m-.1 1.5v-.1zm.2-2.2v.1zm0 .7zv.1m-.1-.5h.1m.1-.2v.1m0-.1V6zm0 1.9h-.1m0-2.8h.1m0 2v-.1m0-1.3v.1m.1-.4zm0 1.5h-.1m0-1.9v.1m.3.4H6v-.1.2h-.1v.1l-.1.1H6v-.2l.1-.1M5.8 7v-.2zm0 0zm0-1.5q.2 0 0-.1zM6 6q0-.1 0 0M6 6v.1m-.1.6zm0-1.7H6M6 6v-.1zm0-.6zm0-.1V5m.1.1v.1M6 5v.1m0-.9v.2zm.1 1.5H6zm-.1 0v.1m.2-1.1v-.1m.1-.3v.1m0-1.3V3M6.6 4v.1l-.1.1zm0 .7h-.1v-.1m0 .1-.1.1m0-.8v.2zm.2-.2zh-.2V4h.2v-.1m0-.4zm0-.7v-.1h.1m0-.5h.1m.2.1v-.1l-.1.1m-.2 1.5v-.1m.1-.3v-.1m.1.4zm0-.9v.1m.1-.5v.1h.1m.3 0h-.1l-.1.1v.1h.1v-.2zm-.1-.6H7m-.1.8zm0-.9h.1m.2 1h-.1m0-.8v.1m.4-.8-.1-.1V1h-.1v.2h-.1v.1h.2v-.1m-.3 1.2v.1m0 .3v-.1m.2-1.2zh-.1zm-.2.4V2m.2-.8zm0-.3h.1m.1 0V1q.1 0 0-.1h.1m0 .4V1m0 .5v-.1m0-.5h.1m0-.1h.1M8 .9h-.1V1m-.1.7zm0-1v.1H8M8 .4h.1m.3.6h-.1L8.1.8V1zm0-.2H8zM8 1q0 0 0 .2zm.3-.1"/><path fill="#003932" d="M8.4 11.6h-.2l.1.2h-.2.1q0 0-.1 0v.1h-.2v-.2h-.1v-.2l-.1-.1V11l-.1-.2v-.2l-.1-.2v-.2h-.1V10l-.1-.1v-.1h-.1v-.4L7 9V9h-.1v-.5h-.1v-.2h-.1V8v.4l.1.1V9H7v.5h.2v.5l.1.1v.2H7v.1H7v-.5l-.1-.2v-.3q-.1 0 0-.2h-.1V9l-.1-.1v-.2l-.1-.2v-.3L6.4 8v-.2q-.2-.1-.1-.3l-.1-.2v-.2h-.1V7L6 7v-.1h.1H6L6 6.7v-.2l-.1-.1v-.2h-.1V6l-.1-.2v-.1h-.1v-.2h-.1v-.2h-.1v-.1L5.3 5l-.1-.1v-.1L5 4.6v-.1H5v-.2h-.1l-.1-.2h-.1L4.6 4h-.1v-.2h-.1v-.1l-.1-.1-.1-.1v-.1H4v-.1L4 3.1V3l-.3-.2v-.2l-.2-.1v-.2h-.1v-.1h-.1v-.1L3.1 2 3 2 3 1.9l-.1-.1v-.1l-.2-.1v-.2h-.1v-.1h-.1V1h-.1L2.2.9V.7l.3-.3.1-.1q.3 0 .1 0h.1l.1.2V.1h-.1L3 0H3v.2h.1v.1h.2q0 .1 0 .2v.1h.2v.1h.2V1 .8h-.1V1h.1V1h.1-.3V.7h-.2.1V1l.1.1v.2h.1V1v.3h.1V1h.1v.3H4q.1 0 0 0 0 0 0 .2H4h-.1v-.1.1l.1.1v.1h.3l.1.1h-.1V2h-.1v-.1H4h.1V2H4v.1h-.1L3.7 2v-.3h-.2v-.3.2h-.2v-.1h-.2.1l.1.1q-.1 0 0 0v.1h.2v.1h-.1V2h.1v.3V2h.2l-.1.1v.1h.1l.2.2h.1v.2h.1v.1h.1v.3h.1v.2h.1v.3h.1v-.2.1h.1v.3L5 4H5v.2h.1v.2h.1v.2h.1v.1l.1.2v-.2.1-.2l-.1-.1v-.1h-.1v-.2L5 4H5v-.2l-.1-.2h-.1v-.1H5h-.1l-.1-.1v-.1l-.1-.1h.1V3h-.1V3h-.1v-.2.1l-.1-.1v-.1l-.1-.1-.1-.1v-.1L4 2.1V2v.1h.1v.1h.1V2q0 0 .1 0V2h.1v.4h.2-.1v.2h.2-.1q0 .1 0 0v.2h.2V3h-.1.1V3h-.1v.1q0 0 0 .1h.1V3l.1.1V3v.3-.1H5v.2h.1v.1q.1 0 0 0l.1.1v.5h.1l.1.1v.2l.1.1v-.1.2h.1q0 .1 0 0v.1h.1V5h-.1q0 .1 0 .1h.1l.1.1v-.2.2l.1.1v.1H6v.2h.1q0 .1 0 0v.2l.1.1V6v-.1H6v.1h.1v.2V6v.1h.1v.2h.1v.1h.1v.2h.1v.1l.1.2V7h.1v.3-.1.3-.1.1H7v.2H7V8q0-.1 0 0h.1v.3V8v.1h.1v.1l.1.1v.1l.1.3V9l.1.1v.1l.1.1v.3l.1.1v.2h.1v.1h-.1v.1q.2 0 0 0l.1.1H8V10v.1l.1.1v.5h.2l.1.3v.2l.1.2zM3 1V.9m.4.2h-.1q0-.2-.1 0V1H3v.1h.1v.1h.1v.1h.1zM3.1 1V.8zm0-.7v.2zm0 .9v.1m.2-.7H3zm-.2.2q0 0 .1 0m.1 0v.1m.2 0zh.1m.2.7h-.1zm0 .5h.1m.3-.7h-.1m-.1.1q0 .1 0 0m0 1.1zm0-1H4m.1 1zv.1zm0-.7zM4 2H4m0-.3zm.1-.1zm.1.1v-.1m0 .1h.1v-.1zm.2.1v-.1m-.1.7v-.1zh.1m.2 0v-.1l-.1-.1v-.1.3zm.1-.3V2zm.1.3v.1m.1.2zm.1.5v.1m0-.1v.1m0 .2v.1m0-.2zm.2.1zm0 1zm.2-.5L5 3.5zH5V4v-.1h.1zm-.2.5zm0 .1v.1m.1-.2v-.2zm.1-.1v-.1H5zm0-.4zm0 .7zm0 0zm0 .1v-.1m0-.1v-.1m0-.2V4h.1m0 .6zm.1-.5h.1m.2.3zh-.1m0 .2v-.1zm0-.2v-.1m0 .9zm0-.5V5m0 .3zm0 .2v.1m.1-.7v-.1m0 .2v-.1m0 .4v-.1m.1-.1v.1m.3.6q0-.1 0-.1-.1 0-.1 0l-.1-.2v-.1h-.1v.1h.1V6v-.1zm-.3-.3v.1m.1 0H6m0-.1H6m.2.1zh-.1m.1.3v-.1H6v-.1.1M6 6V6zm0 .4zm0-.3v.2zm.1-.2zm0 .3v-.1zm.1.2v-.1zm.2.2v-.1h-.1v.2zM6.2 6h.1m.1.3zm.2 1.4v-.3l-.1-.2V7h-.1v.2h.1v.2zm-.1-.5v.1m.2-.5-.1-.1h-.1zm-.2.3v-.1m.1.1h-.1m0 0v.1m0-.1v.1m0-.3v.1m0 1v.1zm.1-1v.1m0 1.1V8zm0-.7zm.1.7h.1m.1-.2zm0 1v-.1m0 0zm0-1.2H7m0 .4zm.3 1.4V9zm0-.8v-.1m0-.3v.1m.2.4h-.1v.1zM7 9v.1m.2-.4zl.1.1m-.1 1.6V10m0-1.2v.1m0-.1q.1 0 0 0m0 .3v.1m.1-.4zm.3.5h-.1m0-.2L7.4 9m0 .4h-.1m0-.4q-.1 0 0 0m0 .5q-.1 0 0 0m0 .4zm0-.1v.1m.3.7v.1m.4.8H8h.3M8 11zh.1zm0-.1zm.2.3v.1m0-.1v.1zm0 .8zm.1-.4h-.1zm0 .2H8zm0-.4zm.1.3"/><path fill="#003932" d="m11.2 2.4-.2.1-.2.1-.1.1h-.2v.1h-.1l-.2.2H10l-.2.2h-.3v.1l-.1.1h-.1v.1h-.2v.1H9v.1H9l-.4.2-.1.1v.1h-.2l-.1.1H8v.1q0 0-.1 0v.1h-.1v.1h-.1.1l.2-.1.1-.1h.1v-.1h.3V4h.1V4h.2l.1-.1v-.1h.2v-.1h.3v-.1h.2q0 0 .1 0h.1v.1h-.2l-.2.2H9V4h-.2l-.2.1v.1l-.2.1h-.2v.1H8v.1h-.2v.1h-.1l-.1.1h-.1v.1l-.3.1L7 5l-.1.1h-.1l-.1.1-.1.1h-.2v.1h-.1v.1h-.2v.1H6l-.1.1h-.1l-.2.1-.1.2h-.2l-.1.1-.1.1H5l-.2.1-.1.1h-.1v.1h-.1v.1h-.2v.1h-.1v.1h-.1L4 7V7l-.2.1v.1h-.1v.1h-.2v.1l-.2.2h-.1l-.1.1H3v.1l-.3.2-.1.1h-.1v.1h-.2l-.1.2-.1.1H2v.1h-.2v.1l-.2.2-.2.1-.2.2h-.1l-.1.1-.2.2H.8v.1H.5l-.2-.3H.2v-.1H.1V9l.1-.1h.1q0 0 0-.1H0l.1.2H0L0 8.8v-.1h.2v-.1h.1v-.2h.1l.1-.1v.1h.1v-.2h.1V8L1 8l-.1.1v.1L1 8q0-.2.1-.1l-.1.2v.1H.7v.1l.1.1v-.1H1v-.2q0 0 0 .1H1v-.1h.2H1l.1-.1h.1H1V8h.3v-.1h-.1v-.1h.2v-.1.2h.1v-.3.1h.1v-.1h.1v-.2.1H2v.1h-.1v.1H2V8h-.1l-.1.1h-.2v.2V8h-.1l-.1.1h.1q0 0 0 .1l-.1.1v.2-.1l.2-.2v.1h-.1q0 0 .1 0h.1v-.1h.1v-.1h.3V8v.1h.1V8h.1l.1-.3h.2v-.1h.1v-.1h.4v-.1l.1-.1h.1l.1-.2v.1h.1V7h-.1.1V7h.2l.2-.2v-.1h.2v-.1h.1v-.1h.3v-.1h-.1.2v-.1h.1q0-.1 0 0h-.2q0-.1 0 0l.1-.1h-.1l-.1.2h-.2v.1H4v.1h-.1v.1h-.1l-.1.1h-.2V7h-.1v-.1.2h-.1v.1H3v.1h-.3.1v.1l-.1.1h-.1v.1h-.2v.1h-.1l-.1.1v.1H2v-.1h.1v-.1q-.1 0-.1-.1l-.1-.1h.4v-.2.1h.2V7v.1h.1V7h.1V7l.1-.1V7H3v-.1.1h.2H3v-.1h.1H3l.1-.1h.2-.1.2v-.2h.2v-.1h.5v-.2h.1l.1-.1h.1V6h.2l.1-.1h-.1.1v-.1h.1-.1V6h.1l.1-.1h-.1l.1-.1h-.1.1l.1-.1h.1v-.1h.1l.1-.1h.1l.1-.1.1-.1h.1-.1v.1h.1v-.1h.1v-.1h.3V5h.1v-.1h.1v-.1h.1l.2-.1h.1v-.1h.1l.1-.2v.2H7v-.1h.1H7h.1l.1-.1v-.1h.1l.1-.1h.1V4h.2q.2 0 0 0V4h.1v-.1l.1-.1h.2l.2-.2h.2v-.1h.1v-.1l.1-.1H9v-.1h.2V3h.4v-.3h.2v-.1h.2l.1-.1v-.1h.1l.2-.2h.1V2h.1l.1-.1h.2v.1h.1v.1h.1V2l.1.1v.1M.3 8.7h.1m.2-.1v-.1H.3zm.1.2H.5m0-.2zm0-.4h.1m.3.5zv.1zm0 .2H.7m0-.4q.2 0 0 0m.2-.4H1M1 8V8m.2.6v-.1h-.1v.1H1v.2l.1-.1zm-.1-.7q0 .1 0 0m-.1.8v-.1m0-.3zm.1-.4h.1m0 .1h.1m.2.3V8l-.1.1zm0-.3h-.1m0-.3h.1m.1 0h.1m.2.3h-.1m0-.1zm0 .2h.1m.5-.8H2v-.1zm.3.1h-.2v.1h-.1.2zm-.1.4V8m.2-.1v.1m.3-.5h-.1m-.1.2v.1m0 .2.1-.1zm0-.5zm.3-.4h.1m.2.3h-.1m0 .3v.1m0-.7h.1m.5 0h-.3.1v.1h.1m-.3.7v-.1m.1-.8zm0 .3zm.2.1V7m.2-.4h-.2v.1H4m-.3.6v.1m.3-.5h-.2zm-.2-.1v-.1m.2.3v-.1m0-.5h.1m0 .5h.1m.3-.6h.1m0 .3h.1m.2-.5h-.1zm0 .1zh.1m.4-.3zm.2.1H5V6zm.1.1v.1m.4-.4h-.1v.1h-.2v.1l-.1.1h.1v-.1h.1v-.1zm-.4.3V6m.3-.4-.1.1zm-.1.5v.1m0-.2zm0 .2h.1m.1-.5zm0-.1h.1m.1 0h.1m0 .1h.1m.2.2zm0-.2H6zH6m0 .1H6m0 .1H6m.3-.4H6v.1zm-.1 0zm0-.1V5m0 .2h.1m.2-.2v.1m0 .2zm.1-.2zm0 .1v.1m.1-.4h-.1V5zm0 .2V5zh-.1zv.1q0 0 .1 0V5m0-.2h-.1m0 .4zm.2-.5-.2.1h.1m0 0h-.1m-.2.4zm.2 0h-.1m.1-.3zm0 .3zm.7-.5h-.1v.1H7V5h-.2V5h.2v-.1h.1zm-.5.1H7m.1 0q.1 0 0-.1m.1-.4v-.1m0 0h.1m.1 0zm0-.1zm.1-.1h.1m0 .1q.1 0 0 0m.2.4h-.1zm.1-.1h-.1zm0 0h-.1m0 0h-.1m0-.6h.1m.5-.1v-.1H8V4zm0 .1H8v.1m0-.2zh.1zm0 .5v.1m.1-.1h.1m.2-.5v.1m.1-.2v.1h.1m0 .3h.1m0 .1q.2 0 0 0m.2 0zm.1-.6zm.2-.1h.1m.3-.1zm.1.2h.1m.2.2zm.4-.8h-.1m0-.2v.1m.4-.2h-.1zm-.2.2zm.1 0v.1m.2-.4h-.1v.1zm0 .1h.1V2zv.2-.1m.3 0-.1-.2zm0-.1V2m0 0v.1m.4.2"/></svg>