<svg xmlns="http://www.w3.org/2000/svg" width="13" height="12" fill="none" viewBox="0 0 13 12"><path fill="#f2f1ed" d="M5.5 3.8q.4 0 .8 0h.3q-.2 0 0 0h.2-.1.4l.6.3.4.4v.1-.1l.1.3V5l.1.1v.4l-.1.9c0-.3 0 0 0 0l-.1.3-.1.3v.1-.1l-.2.4s-.3.4-.5.4l-.1.2H7q-.4.2-.7.3 0 0-.1 0H5.1l-.5-.1h-.2v-.1h-.2s.2 0-.2-.2l-.4-.2-.3-.2.2.2-.4-.4-.2-.6v-.3.1-.9c.1-.5 0 0 0 0s.1-.2 0 .2l.1-.2v-.2l.1-.3v.3-.2q.2-.2 0-.2l.1-.1v-.1l.3-.3c.1-.3.1-.1.2-.2l.1-.1.3-.2h.3H4q0 .1.1 0 .2 0 .1.1l.2-.1h.2q.6-.4 1-.3m1 4.5h-.1zm.4-.1h-.2zM8 6.6v.1m.2-1v.1zm0-.4v.3zm-4.1-1H4l-.2.2z"/><path fill="#003932" d="M7 2.1zV2h-.1v-.1H7v-.1q-.1 0 0 0h-.2.1V2h-.1V2h-.1.3-.1v.1h-.2.2v.1h-.2v.1H7h-.1l-.2.1h.1-.1v-.1h-.2.2v.2h-.1.1v.1h.1v.2-.1h-.2v-.1h-.1v.1l-.1-.1H6v-.3h.2-.1v-.1h.1V2H6h.1V2L6 1.8v.3V2H6v.2h-.1.1v.1h-.1v.1H6v.1h-.2v.1l.1.2v.4h-.2v.5h-.1v.1h.1v-.1.1l-.1.1V4l.1.1v.1V4 5v-.1.1q0 0 0-.1h.1V4H6v-.2H6h-.1v-.2H6v-.1h.1-.2.2H6v-.1h.1v-.2h.1v.1H6v-.1h.1v-.4h.1v-.1H6l.1-.1h.1q0 .1 0 0v.2h.3-.1V3h-.1V3h.2v.1h-.4l.1.1h.2v.1h-.2.1v.2l-.1-.1v.1h-.1v.1h.1v.1H6h.1v.1H6V4q0 0 0 .1h.1v.2H6v.1H6l-.1.1v.3H6v.1h-.1V5H6v.1L5.8 5q0 .1 0 .1v.1-.1H6v.3h-.1.1V6h-.1v-.1.9l-.1.1H6v.3V7h-.1v.5l.1.1h-.1v.1h-.1.1v.1H6v.5l-.1.2v.1H6v.2h-.1V9H6l-.1.1v.1h-.1q0 0 0 .1H6v.4h-.1v.1H6v.1l.1.2v.4h-.5v.1h.1-.4v-.8q0-.1 0-.1V9h.1V7.5v.2h-.1v.1h.1V8h-.1v.2H5v.1h.1H5v.1h.1H5v.2h.1v.1H5v.1H5V9h.1v.2l-.1.1h-.2v-.5H5v-.2l.1-.2V8l.1-.1V6.8l.1-.1v-.3q.1 0 .1 0v-.3q0-.2 0 0V4.8h.1v-.7L5.2 4V2.4l.1-.1v-.6l.1-.1v-.1l.1-.1v-.2h.1v-.1h.1V.8h.7V1H7v.2h-.1.1v.1h-.2l.2.1v-.1h.2l-.2-.1h.3v.2H7v.2h.1v.1h-.3v.1H7v.3m-.9 8.4zm-.4-.1zh.1zm-.2-.2h.3v.1h.1-.4m.2 0h.1m.1-.1h.1zm-.2-.4h.1m.2-.2h.1v-.1zm-.2-.1zm.2-.5h-.1m-.1 0zm.1-.3v.1m-.5-.2h.1m.3 0q-.1 0 0 0m.3-.1h-.1m-.6 0h.1m.5 0v-.1m-.1-.1zV8zm-.5 0V8m.5-.2zm.1 0zm-.6 0v-.1m.7-.3v.1m-.6-.4zm0-.1zh-.1zm.1.1zm-.1-.6v.5-.4m.4.3zm-.1 0h.1m-.2-.1q.1 0 0 0m.1-.1zm0 0v-.1m.3 0v-.1m.1-.1h-.1m-.6 0v-.1m.4-.3h.1v.2-.2m-.1-.1v.1h-.1v.1h.2zm.2 0h-.1zm-.5-.1zm0 0h.1m.3-.1V6m0-.2zV6zm.3 0zm-.6 0h.1m.3 0h-.1v-.1m-.2 0v-.1m.4-.1q0-.1 0 0m-.1-.2zv-.1m0-.2v.2h-.1v.1h.1v-.3m-.2.3v-.1m0-.1zm.2-.3q-.1 0 0 0m0-.2v.1m.1-.3zm.2 0zm-.3-.1h-.1m.3 0v-.1m0-.5q0 0 0 .1zm-.2 0v.1H6v-.1m.2.1zM6 4v.1h.2V4v.1V4zm0 0zm-.6-.1h.1m.3-.3v.1m.7 0v.1m-.3 0zm-.2-.4V3m.5 0V3m-.6 0V3m.5-.4V3h.1zh.1zm.4.2h-.1v-.1h.1m-.9-.1zm0-.1q-.1 0 0 0m.1-.1h-.1zm1 0zm-.1-.1h.1m-.5 0h.2zm.2-.1v-.1m-.3-.1v-.1m.7-.1H7m-.1 0zM6.2 2h.2v.1V2zm.6 0H7v.1L7 2h-.1M7 2h-.1M7 2zm-1-.4h.2q0 .2-.1 0V2h.2v-.2h-.2zm.3.3h-.1v-.1m.6-.1h.1m-.7 0h.1zm.4-.2zm.1 0zm.1 0h.2q0 0-.2 0m-.4 0h.1m.2 0h.1zm.4-.1H7zm-.4 0h.1zm.1-.6V1zm-.3 0"/><path fill="#003932" d="M2 3.8V4Q2 4 2 4v.2l.2-.1.1-.1h.1v.1h-.1v.1h.1V4h.1v.1h-.2v.1L2.2 4v.1H2v.2-.1h.2v.2-.1h.1v-.2.3h.1v-.2h.1v.2h.1v-.2l.1.2v-.1.1h-.1v.2-.1H3v-.1.1l.1-.1h.1q0-.1.1 0v.2H3v-.1H3v.1h.1v.1H3V5h-.3v-.2h-.1q0 .1 0 0V5v-.2h-.1v.2h-.3V5h.2-.1v.1h.2v.1h.1V5v.2h.1v-.1h.1V5v.2h.7v.2h.3v.1h.3v-.1.1l.1.1H5l.1.1h.1v-.1H5h.1H5v-.1h-.5v-.1h-.2v-.1h-.1v-.1.1H4v-.1h-.1V5v.2l-.1-.1h-.1V5h-.1v.2V5h-.4V5H3v-.1h.2v-.4.1h.1v.2h.1l.1-.2V5h.1v-.2h.1V5v-.1l.1-.1H4V5h-.1V5H4v-.1.2H4v-.2l.1.1v.2V5h.1l.1.1h.1q0-.1 0 0h.1V5v.1h.1v.1h.1v.1H5v.1h.1v-.1h.1v.1h.2v.1h.2q0 0-.1 0v-.1h.2v.1h.6v.1h-.1.3l.1.1h.1v-.1h.4V6v-.1h.3V6h-.1V6h.2v-.1h.3V6H8q0 0 .1 0v.1V6h.6v.1h.5v.1h.4v.1h.1v-.1h.4v.1h.1v-.1h.5q0 0 .1 0h.1v.4h.1V7h-.6v-.1H10q0 0-.1 0h-.2l-.1-.1h-.3v-.1h-.8v-.1h-.4v-.1h-.4.2v.2h.1v-.2.1h.3v.1h.1v.1h.6V7h.3l.1.2v.2h-.2L9 7.1 9 7h-.1L8.7 7h-.2v-.1h-.3v-.1h-.4v-.1h-.3l-.2-.1H7v-.1h-.3v-.2l-.1.1h-.3v-.1H6v-.1h-.6L5.2 6H5V6H3.7v-.1h-.3.1H3v-.1h-.3l-.1-.1h-.2v-.1q0 0-.1 0H2v-.1h-.2v-.1h-.2v-.1h-.2L1.2 5H1v-.2l.2-.4.1-.1v-.1h.2v-.1h.1v.1V4h.1v-.1.1H2zm7.3 3.4zm.1-.1V7M9.2 7h.1m.2 0q0-.1 0 0m-.5 0v-.1m2-.1v-.1m-1.5-.1v-.1m-.8 0zm-.5-.1zm.7-.1h-.1m1.9-.3v.1l-.1.2v-.2h.1zm-2.2.3zm-.9-.2zm0 .1h.1m3.2-.2v.2zM7 6.3v.1h.3v.1h.2v-.1H7m2.7.1zm.3 0h.1v-.1m-2.6 0h-.1m-.7 0h.1m.3-.1h-.1m3.5-.1v.1zm-.6 0h-.1v.1zm.6 0 .1.1zm-3.7.1v-.1m1.8 0zm-.9 0v-.1m.2-.1zm.5 0h-.1m0-.2v.2zm.1.1v.1zm-1.7-.2V6h-.1v.1h.1zm.1.3H7m1.4 0zm-2-.1V6h-.1zm.1 0V6m-.6-.4v.1h-.1.1V6H6V6v-.1h-.2zm-.1.3zm2.5 0H8M6.9 6H7v-.1M6 6h.1M8 5.8h-.1m-1-.1h-.1V6zm1.2 0V6m-3.4 0h-.1m.8 0h.1m.5 0h.1m-.7-.1zm-.8 0h.1m.7 0H5m0-.1H5m-.3 0h-.1m-.2 0v-.1m-.2-.2v.1h.1m.8.1zm-.9-.3v.2h.1zm.1.2h.1m.6 0zM4 5.2v.2zm1 .1h-.1m-.4 0h.1m0 0zm-2.2 0v-.1m1.3-.1h.1zm-1-.2v.1m1.6 0v.1M4 5v.1m-.3 0v.1m-1 0v.1m.5-.3V5h.2V5v-.1h-.1zm1 .3h.1m-.1-.1zm-1.9-.3H2l-.1.1V5v-.1h.1V5h.1v-.2zv.1zm1.4.1V5v-.1m-1.1-.1v.1h-.1v.1zm-.3.1zm.5 0zm.7-.2v.1zm-.4.2h-.1m-1.1 0v-.1m0-.1H2v-.1h-.1m.3-.1H2m-1 0h.1m1 0v-.1m.7-.1.1-.1zm-1 0 .1-.2zm0 0H2v-.1m-.4 0v-.1m1.4 0v-.1m-1.1 0v-.2zm.9 0zm-.8 0v-.1m.6-.2v.1zM1.6 4l-.1.2zm.3-.1V4l-.1.2V4zm-.2.1V4zm.3 0h.1M2 3.7"/><path fill="#003932" d="M10.5 3.4v.2h.1v.1l.1.1v-.1q0 0 0 .2h.1l.1.1v.1h-.2v.1h-.2v.1h-.3q-.1 0-.2 0v.1h-.1l-.2.1h-.2l-.1.1H9v.1H9l-.1.1-.3.1h-.1V5h-.3v.1H8v.1h-.2v.1-.1h.4V5h.4V5q0 .1.1 0H9v-.1h.3l.1-.1h.3V5h.1V5h-.2l-.2.1h-.4q-.1.1-.2 0v.1h-.2l-.1.1H8l-.1.1h-.3v.1q-.2 0-.2 0v.1h-.2l-.1.1H7l-.2.1q-.2 0 0 0h-.1v-.1.2h-.2q-.2 0 0 0h-.1V6h-.1l-.1.1H6v.1H6l-.1.1h-.1l-.1.1h-.1l-.2.1v.1h-.2v.1H5l-.1.1h-.1V7h-.1v.1l-.1.1-.2.1v.1h-.1v.1h-.1l-.1.1H4v.1H4l-.2.2V8h-.2v.1l-.2.1v.1h-.1v.1l-.1.1v.1l-.2.1-.1.1h-.1V9h-.1V9h-.1l-.1.1-.2.1H2L1.8 9h-.2v-.2h-.1q0-.2 0 0v-.1h.1v-.1h.1v-.1h-.3l.1.2h-.1v-.2h-.1v-.1h.2l-.1-.1h.1V8h.3v-.3l.1-.1v.2-.1H2v-.1.3h-.2.1V8l.1.2v-.3h.3-.1v-.1H2h.3L2 7.6v-.1h.3v-.1h-.1.2v-.1.2h.1v-.3.1h.1V7v.1H3v.1h-.2v.2-.1H3v.1H3v.2h-.1v.1h-.2v.1l-.2-.1V8h.1q.1.1 0 .2v.2-.1l.1-.1v.1h.1V8l.2.1V8h.1v-.2l.1.1h.1v-.3h.1v-.1h.1v-.1H4v-.1H4l.1-.1V7h.2-.1V7h.2l.1-.2h.1v-.1h.2v-.1H5q0 0 .1 0v-.1h.1v-.2H5v.1h-.2v.1h-.1v.1h-.1v.1h-.4v.1H4v-.1.2H4V7h-.2v-.1.2h-.3.2v.1h-.2v.1h-.1l-.1.1h-.1v.1H3v.1H3v-.2h.1H3l-.2-.2V7H3v-.2.1h.3l-.2-.2h.1V7h.1v-.1h.1q0 0 0-.1v-.1.2h.1v-.2l.1.1q0 0 0 .1 0 0 .2 0v-.1h-.1v-.1h-.1.3-.1v-.1h.2v-.1h.1v-.1h.5v-.1H5v-.1h.2V6h.1v.1h.1v-.2h.1v-.1h.1v-.1h.2l.1-.2H6h-.1v.1H6l.1-.1h.1v-.1h.2v-.1h.1v-.1h.1l.2-.1H7V5H7v-.1h.1V5H7h.1v.1V5h.2v-.1h.1v-.1h.2v-.1h.2v.1-.2H8v-.1h.2l.2-.1h.2l.1-.1v-.1H9V4h.2V4v.2h.1V4h.1V4q-.2 0 0 0h-.1v-.1h.3v-.1h.3l-.1-.1h.1l.2-.2h.2q0-.1 0 0zM1.6 8.7h.1m.7-.1v-.1m0-.6v.1q0 0 0 .1v.2h.1v-.1h.1v-.1h-.1V8m.1.4zm-.2 0H2m-.3 0h-.2zm.2-.1H2q0 0 .1 0m-.6 0h.1zm.1-.3v.2zm.8-.2zV8h.2-.1zM3 8h-.2zm-.1 0v-.1H3m.5 0zm0-.2v.1zm-.7 0h.1m-.6-.2v.1m.8.1v-.1m-.3 0h.1m1.1 0v-.1m0-.1v-.1m.3 0zm-.4 0v-.1m0-.1h.1m-1.1-.1h-.1m.8-.1H3l.1.1zm-.7.1-.1-.1m.3 0H3m1.4 0v-.1m.2 0v-.1m-2-.2v.1m.7 0h.1M3 7h-.1zm.7 0h-.1m.7 0h.1m-1.2-.1h.1m1.4 0zM4 7H4v-.1m1-.1h-.1m-.7-.3h.1v.1h-.1l.1.1h.1v-.1q0 0-.2 0zm.4.1zm-.1-.1h-.1zm.5 0h.1m-.4 0h.1m.3 0h-.2zm0-.3zm.9 0zm-.3 0q0-.1 0 0V6m-.6 0H5m.4 0H5zM5 6H5m0 0h-.2zm.8-.3q0 0 0 .1h-.2V6H6v-.1m.4.3zM6.1 6q.1 0 0 0v-.1m-.5 0q0 0-.1 0m-.2-.1h.1m1.1 0 .1-.1M6 5.6zv.1zm.4.1h.1m.5 0zm-.1 0zm-.3-.1h-.1zm.1-.1zm.2-.2h-.1v.2h.1v-.2m.8 0h-.3v.1H7v.1q0 0 .1 0v-.1h.3zm-1.3.2h.1m.8 0v-.1m0 0h-.1m-.5-.2zm-.4 0v.1m.2.1v-.1m1.2-.1zm-.9-.2zv.1zm1 .2zv-.1zm-.4-.1H7M7 5.2h.1m-.2 0zm.1 0V5m-.3 0h.1V5m1.4-.3h.1m.6-.1q0 0 0 .1zm.8 0V5m-1.9 0h-.1m0 0h.1m.3 0zm.1-.2h.1v.1-.2m.1-.1v.1h.1zm.3.1v-.1m.2-.1h-.1m.3-.2v.1m0 0zm0 0H9m.6-.4V4zm.2.1h.1v-.1h-.1m1 0zm-.4-.5V4v-.2h.1zm-.3.3h.1m.2-.1h.1m.2-.2v.2h.1v-.2m-.3.1v.1h.1zm.1-.1v.1zm.2-.1"/><path fill="#003932" d="m3 1.7.2.1V2l.1.1v.2h.1v.1q.2 0 .1.1v.1h.1l.1.2v.1l.1.1.1.1v.1H4v.1h.1v.1h.1v.1l.2.3.1.1V4h.2v.2h.1v.1H5v.1V4h-.1V4h-.2v-.3h-.1v-.2h-.2v-.2h-.1v-.1l.1-.1h-.1L4 3v-.2l.1-.1v-.1h.1v.2l.1.2.1.2v.2h.1v.2h.1l.1.1v.1L5 4V4l.1.2q.1 0 .1 0v.2h.1v.1l.1.2.1.2h.1V5l.2.2q0 .2-.1.1h.1l.1.1v.2H6v.1H6v.1l.1.1V6h.1v.1l.1.1v.1h.1v.1l.2.2v.1h.1v.1h.1V7H7v.1H7v.1h.3v.1l.1.1v.1h.1v.1h.2v.2H8q0 0-.1 0V8H8l.2.2v.1h.1v.1l.1.1v.1h.2v.2l.2.1.2.1v.2l.2.1v.1l.1.1.2.2v.2l-.3.4-.1.1-.2.1h-.1l-.1-.1v.3l.1-.1-.1.1v.1h-.2l.1-.1v-.1h-.3q-.1-.1 0-.2v-.1h-.4V10H8h-.2V10H8v.1h.2l.1-.1h-.1q-.1 0 0 0H8v-.1H8v-.1h.1v-.1H8v.2l-.1-.1v-.1.2h-.1v-.3h-.1q0 .2-.1.1v-.2h.1v-.1h-.2q0 0 0-.1h-.2v-.1l.1-.1h.1v.1h.1V9h-.1.1l.1-.1v-.1h.1V9H8v.3h.2H8v.1h.1l.1-.1v.1h.2v-.1h-.1q0 0 0-.1V9h-.1V9H8l.1-.1H8v-.1H8V9v-.1h.1v-.1h-.4v-.1l-.1-.1v-.1h-.1V8h-.1v-.2h-.1v-.2h-.1v.1H7v-.2l-.2-.1v-.1h-.1v-.1h-.1V7h-.1V7h-.1v-.1h-.1V7v-.1.2h.1v.1l.1.1.1.1h.1v.2l.1.2V8H7l.1.1v.2q.1 0 0 0h.1v.2h.1v.1h.2v.2h.1V9h.1V9h-.1v-.1h-.1V9q0 .1-.2.1v.1-.4L7 9l.1-.1v-.1H7l.1-.1v-.1h-.2.1v-.1h-.1v-.1H7V8v.1h-.1l-.1.1V8v.1-.2h-.2v-.1h-.1v-.4l-.1-.1-.1-.1V7h-.1V7L6 6.8V7v-.2H6l-.1-.1v-.1h-.1l-.1-.1v-.1h-.1v-.1h-.1V6v.1h.1V6h-.2V6h.1-.1v-.2h-.2v-.1H5v-.1L5 5.4v-.1h-.1v-.1l-.2-.1H5V5h-.1V5v.1V5h-.2v-.2h-.1.1v-.1h-.2v-.2H4v-.2L4 4v-.2h-.2l-.1-.1v-.2h-.1v-.1h-.1v-.2h-.1.1v-.1q0 0-.1 0h-.2V3H3v-.2h-.3l-.1-.2v-.1h-.1q0 0 0-.1v-.1h-.1v-.1h.1V2h.1l.1-.2h-.1.1v-.1H3zm5 9h.1m.4-.2v-.2zm0-.2h-.1l-.1.1zm-.4-.1h.1zm.5-.1v.1m-.5 0v.1m.3 0v.1m.1 0h-.1zm.1-.3zv.1h.1m-.2-.3v.1h-.1.1v.1h.2v-.1h.1-.1l-.1-.1m.1.2v-.1m.1 0h.1m-.3-.3-.2.1v.1zm.1.1h.1m.2 0h.1m-1.2 0h.2zv-.1m.6-.1zm-.2-.2v.1m-.4 0zM8 9H8M7 9h.1v.2H7zm.2.2h.1V9m.7-.2V9m-.7-.2v.1h.1V9zm.6.2v-.1m-.5-.2h.1m.4-.1H8h-.1v-.1m-.8 0-.1-.1m.1-.3v.1m.6.1zm-1 0zm.4 0v-.1m-.2 0v-.1m.7-.1v-.1M6.7 8h-.1m.7 0h-.1m-.6-.4h-.1q0 .2 0 .2h-.1V8v-.1h.2zm.5.3h.1m-.5 0v-.1m.5 0v-.1m-.8-.5zv.2-.1m.1 0zh.1zm.5.2v-.1m.1 0v-.1m-.3-.2H7m0 0q0 0-.1 0m-.4-.1h.1m.3-.1H7M6.2 7v.1m.1-.2h.1m.1-.1h-.1M6 6.5h.1m-.1 0q0-.1 0 0h.1M6 6h-.1v.1H6v.2H6v-.2zm-.2.1zh.1zm.5.1zM6 6.1h.1m-.4 0V6m.3-.3zm-.2 0zm-.1-.2v.1zm.3.1zm-.2 0v-.1m-.3 0zm0-.2h.1v.1-.1m0 .1h-.1zM5 5.5v.1h.2zm.3-.1v.1zh.1v.1zh.1q0 0 0-.1zm.2.1v.1m.1 0h.1m-.4 0h-.1m-.3 0h.1m.1 0zv-.1m.5 0h.1zm-.6 0v-.1m.3-.3V5M5 4.7v.1h.1V5l.1.1.1.1q0-.1 0-.2h-.1v-.1zm.1.4V5M4.7 5h-.1M4.4 5v-.1m.3-.1v-.1m.3-.3v.1zm-.1.1zm-.6 0-.1-.1m.5 0zm.1-.2h.1m-.7-.2h-.1v.1zm.1 0zm-.3 0h.2zm0-.2q.1 0 0 0m.3-.1v-.1m-.1-.2zm-.2 0v-.1M4 3.4h-.1m-.4-.1zm.9 0v-.1M3.3 3h-.1zm1 0h-.1m0 0zm-1 0V3m.9 0V3m.1-.5h-.1m-1.5-.2v.2l.1-.1m-.2.1h.1v-.1m.5 0zm-.3-.2v.1zm.2 0h-.4v.1h.1v-.1H3m-.2-.1h-.2zM2.7 2zm0-.2q.1 0 0 0m.3-.2"/></svg>