<svg xmlns="http://www.w3.org/2000/svg" width="11" height="12" fill="none" viewBox="0 0 11 12"><path fill="#f2f1ed" d="M6.6 0a4 4 0 0 1 1.8.7q-.1 0-.1 0l.3.2q.7.6.8 1v.3A2 2 0 0 0 8.8 1q-.2-.3 0 0 .3 0 .5.5.4.9.3 1.3v1.4-.1.4l-.1-.2-.1.6V5l-.2.6-.4 1.6c.1-.5 0 0 0 .1l-.2.6-.2.6c.2-.4 0 0 0 .3V9l-.4.8-.2.4-.2.2q-.6 1-1.6 1.4c.3-.3-.3.1-.3.1l.2-.1-.5.2H4.1q.3 0-.4 0l-.6-.4s-.5-.4-.7-.8l-.5-.9s0 .3-.2-.4l-.2-.2v-.3.1l-.1-1V6.6l.3-.8v-.5.2l.1-.6v-.1H2v-.2q0-.3.2-.4V4c.2-.6 0 0 0 0q.1 0 0 .5v-.2l.2-.4q0-.2 0 0 .2-.3 0-.6.2-.2 0 .4l.2-.3V3q0-.2 0 0c.1-.5 0-.2 0-.2l.1-.2q0-.2 0 0v-.2l.3-.3c0-.4.2-.2.3-.3l.1-.3q0-.2.7-.6l.6-.2.4-.3Q5.6 0 6.6 0m0 11.3-.5.3zm.7-.7-.2.1q-.2.3 0 .2zM4.9 8.4v.1m3.7-.9v.2zm.5-2v.3zm.2-.5v.4zM4.1 1l-.3.2q-.5.3-.5.4l.4-.3zm.5-.3-.3.1-.6.3q-.2.2.2 0 .4-.4.3-.1l.2-.1z"/><path fill="#003932" d="M5.1 6H5zm.2 0h-.1m-.5-.2zm.4-.2H5zh.1zM5 5.5l-.1.1m.1 0v.1m-.6-.1v-.1m.1 0zm0-.3zv.1zm.4.2H5M4.8 5v.1H5m-.5 0h-.1m.1-.1v-.1m-.1-.3zv.1h.1m-.2-.2H4m0 0h.1m-.2 0v-.1m0-.5h-.1V4H4zm-.2.1zm-.2-.1v-.1m.2-.1H4m-.3-.1v-.2h-.1v-.1h-.1v-.1h-.1v-.1H3V3h-.1v-.1h-.1v-.2h-.1v-.1h-.1.1v-.1h-.2v-.1h-.2v-.1l-.1-.1V2l.1-.1v-.1h.2l.1.1V2h.1v.1l.1.1v.1H3v.1H3v.1h.1v.2h.1v.1h.1V3h.1V3v-.2h-.1v-.2h-.1v-.1H3V2l.1.1v.2h.1v.2h.1v.2h.1v.3l.1.1.1.1.1.1q0 .1 0 0v.1H4v.1H4v.1h.1v.1h.1V4h.1v.2h.2v.2h.1l.1.1v.1h.1v.1H5v.1H5l.1.1V5h.1V5h.1v.1h.1v.1l.1.1.1.1v.1l.1.1v.1l-.2.2V6h-.1q-.1 0 0 0h-.2v.2H5V6H5V6h-.1v-.1h-.1.1-.1v-.1H5V6h.2H5v-.2l-.1.1v-.2h-.1v.1-.2h-.1v-.1h.1v-.1H5v.2h.2v-.1H5v-.2h-.2V5L4.7 5v-.2h-.1v-.1h-.1v-.1h-.1v-.1h-.1v-.2h-.2v.1h.1v.1h.1v.2h.1v.1h.1V5h.1v.1h.1v.2l-.1.1h-.1v-.2h-.1V5h-.1.1v-.2h-.1v-.1h-.1v-.1h-.1v-.3H4v-.2h-.1q0-.1 0 0V4h-.1v-.2h-.1v-.1zm.2-.1zm0 0h-.1m-.1-.1h.1m-.1-.3v.1h.1v.1-.2m-.4.1zm.5-.2zM3 3H3zm.3.2V3M3 3zm-.1-.3zm0 0v.1m-.2-.2h-.1zm-.1-.1zm-.1 0v-.1m-.1-.2h.1m0 0q.2 0 0 0m.1-.1zh-.1zM2.3 2h-.1v.1zm.9.2H3V2m-.8-.5"/><path fill="#003932" d="M0 4.7h.3l.2.1h.3V5h.5l.2.1h.3v.1h.5l.3.2h.7v.1h.2-.2v-.1h-.4v-.1h-.2q-.1 0 0 0h-.2V5H2V5h-.3l-.1-.1v-.1H2l.1.1h.3V5h.2l.1.1H3l.1.1h.5v.1h.2l.3.1h.3v.1h.4v.1H5q.2 0 0 0v.1h.7l.1.1h.3l.2.1h.3V6h1v.1h.6v.1H9l.1.1h.6l.1.1h.2l.2.1h.3l.2.1h.1v.6h-.3.1v.1h.1v.1h-.1v-.1h-.2v.1h-.1l-.1-.1v-.1H10v.1h-.3.2v-.1h-.3.5V7h-.3.1-.2.1-.4V7v.1h-.2V7h.1-.5.1v-.1H9h-.1v-.2h.4v.1h.5v-.1h-.4v-.1H9v-.1h-.8v-.1h-.4v-.1h-.7v-.1h-.5L6.4 6h-.1.1-.1.1l.1.1h.6v.1h.2v.1H8v.2-.1h.2v.1h.7v.1H9q0 .1 0 0h-.1V7v-.1h-.2v-.1h-.1V7h-.1v-.2h-.1v.1h-.1v-.1H8v.1h-.2l.1-.1h-.1.1l-.1-.1h-.6v-.1H7v-.1H7v-.1h-.8v-.1h-.5.1-.2q0 0-.1 0 0 0-.1 0L5.3 6h-.1.2-.1V6H5h.1-.7l-.2-.1H4v-.1h.1-.3.1-.3l-.1-.1q.1 0 0 0h-.2v-.1h-.7l-.2-.1H2v-.1h-.4v-.1h-.1v.1h-.3v-.1H.2l-.1-.1V5H.1v-.3m10.4 2.6h.1m-.1-.1v.1m-.3 0v.1m.2-.1h.1m.1-.1h.1m-.2 0h.1m.2 0zm-.8.2h.1m.3-.4V7h.2v-.1zm-.2 0V7zM9 7H9m.2-.1h.1m0 0h.1v-.1m.1-.3zm-.7.3h.1zm-.1-.2h.2v.1h.1l-.2-.1m.1 0h.1m-.1 0v.1m-.1 0v.1m.1-.3zh.1m0 0h-.1m-.6.2H8m-.1 0h.1m-.3-.1v.1m-.1-.1zh.1zh.1v-.1zm.5-.1zm-.6.1v.1m.4-.1h-.1m-.6 0 .2.1zm0 .1h.1m0-.2v.1h.2zm-.1.1zm0-.1v.1H7m.2 0h.1m-.5.1h.1zm0 0zM7 6h-.1m-.6.2h.1zm.1-.1q-.1 0 0 0h-.1m0-.1h.1m-.2.1h-.1M6.1 6h.1m-.2.1h.1m0 0h.1zM6 6V6M6 6H6m-.4-.2q.1.1.1 0l.2.1H6h-.3zm.4 0H6m-.1 0H6m-.4.1h.2-.1m.4-.1zm0 0q0-.1.1 0m-.4.1q.2 0 0 0m.2-.1h.1m-.1 0h.1m0 0h.1m-.1.1h-.1m-.1-.2h.1m0 0h-.1zh-.1M5 6h-.1m0 0zm0-.2h.1zm0 0h.1m0 0h-.1m-.2 0zm-.3.1h.2zm.3-.2zm-.2 0q0 0 0 .1h.2-.1zm.3.1q0-.1 0 0zm-.5 0V6m0 0h.1m-.1.1h.1m.2-.1zm-.3-.1v.1m.4-.1h-.2zm-.3.1h.1m.1-.1h-.1m-.6-.1h.6-.5m.4.2zm0 0v-.1m-.3 0v.1m-.2 0h.1m.2 0zm.3-.2zm-.4 0H4m-.1-.1zm-.1.1h.1zm-.4.1zM3 5.6zm-.1 0v.1zm.2 0v-.1m.2-.3zm-.1.1h.1m-.7.2h.1m.2-.2zm-.2 0zm.1-.1zm-.2 0v.1m-.4.1H2m-.2 0zm-.4 0h.1zM1 5.2h.1m.7-.4h-.1m-.8.4zm-.4 0h.1m-.1 0h.1m0-.1h.1M.6 5v.1H.3v.1V5zM.2 5zh.1m0 0v.1M0 4.8"/><path fill="#003932" d="M7 .1v.2h.2H7h.2-.1v.2h.1l-.1.1H7h.1V1 .7H7V1 .6H7v.1l-.1.1h.2-.2.2V1H7v.1h.1H7v.1h-.1v.2H7v.1h-.2v-.1H7h-.2V1h.1V1h-.1V.8h-.1V1h-.1v.3h-.1v.1l.1.1v.3h-.1V2h-.1v.7h-.1V3v-.2l.1-.1v-.3h.1v-.1h.1-.1V2h.2-.1v-.2h.1v-.5h.1v.1H7v.1h-.1v.1h-.1v.1h.1V2h-.1.1V2h-.2v.1h.1v.1h-.1v.3h-.1v.1h-.1V3q0 .1 0 0v.2h-.1v.1-.1.6h-.1v-.1.6l-.1.1v.2H6V5h-.1v.8h-.1v.4h-.1v.9h-.3v.1h-.2v-.5h.1v-.3l.1-.2v-.4h.1v-.5h.1v-.4.4h-.1v.1q0 .1 0 0l-.1.1v.3h-.1v.3H5v-.3h.1v-.1l.1-.1v-.3h.1V5l.1-.1v-.2l.1-.2v-.2h.1v-.2h.1v-.6H6v-.4L6 3V2h.1v-.7h.1V.6h.1V.2l.1-.1H7M5.4 7h.1m0-.1V7h.2-.1zm.1 0zm.1-.5v-.1M5.2 6h.1m.5-.1zm0-.1h.1m-.2-.2zm0-.1h.1m.2 0h.1m.1-.1H6m0-.1H6m-.3-.1V5m.4 0zM5.6 5v-.1m.3-.2H6m-.1-.1zm.1-.4v.2h-.1v.2-.3m-.1.2zm.1-.2H6m.1 0H6m.1 0h.1m-.2 0H6m.3-.2zm-.1 0zv.1H6zm0 0v.1m-.1 0V4m.1-.4zm-.2.1zm.3-.4v.2zm0 .1v.1h.1M6 3.4v.1m0 0zm-.1 0zm.3-.2H6M6 3.1V3m.3-.1h-.1M6 3v-.1m.2 0q-.2 0 0 0m.2-.2h-.1m-.4 0v-.1m.3-.2zm-.3 0v-.1m0-.1zm.4 0v-.1zv.1zv-.1m-.3 0v-.1m.1 0v-.1m-.1-.2h.1m.5-.1h-.1m-.2-.3zm.2 0zm.1-.3h-.1v.1zm.1 0zm.1-.1v.1m-.3-.1zm.1-.1zm.3-.2zm-.6 0zm.4-.1h-.1m.3 0zM6.6.6zv.1h.1V.6m.1.2zM7 .6V.4m.2-.1H7zm-.3 0H7m.3-.1h-.1zM6.8.2V0m0 .6z"/><path fill="#003932" d="M5.8 5.4v.3-.3m0 .3H6v-.1m.1-.2v.1m-.3 0zm.6-.1H6m.6-.2h-.1m.1-.1v.1zm-.3-.2zm-.5 0q0-.1 0 0m.5 0v-.1m.7-.1V5m.2 0V5m-.4-.1v.1m0 0v.1m.1 0q0 .1 0 0m.2 0v.1m.2 0v.1m-.2 0h-.2.2m-.4.1v-.1m.6-.1zm.4-.1h-.1zh.1m.1 0zm.3-.1v.1m0 0zm.3 0zm0-.1v.2h.1zm.1.2v-.1m.8 0-.1-.1v-.3h.2V4h-.1v.1V4v.1L9.4 4v.1V4h-.1v.1h-.1v.1h-.5v.1h-.1v.1h-.3v.1h-.1.5v-.1.1-.1h.4v-.1h.2v.1l.1.1h-.1v.1-.1h-.1v.1-.1q-.2 0 0 0h-.1v.1H9v-.1H9v.1h-.6v.1H8v.1h-.3V5h-.2V5h-.4v.1H7v.1h-.3v.1h-.2v.1h-.2v.1H6v.1H6q0 0-.1 0v.1h-.1v-.1h-.1v-.1h-.1v-.2h.1v-.1H6V5h.4V5h.3v-.1H7q.1 0 0-.1H7h-.4V5H6v-.1h.6l.1-.1h.4l.1-.1h.3v-.1H8l.1-.1h.3v-.1h.2v-.1l.1-.1h.2V4H9l.1-.1h.1v-.1h.3v-.1h.3v-.1h.3l.1.3V4l.1.1h-.1v.1l.1.1v-.1.2-.1l-.1.1H10v.1H10v-.1.1h-.1v-.1h.1v-.2.1h-.1v.1h-.1v.1h-.1v-.1.1h-.1m.1-.1v.1m-.3-.1zm.2.2q0-.1 0 0m-1-.3zm1 .2v-.1m-.9-.2zm1.1 0v.1m.3-.1v.2h.1zm-1 0zm.6 0h.1m.4.1h.1m0-.1zm0 0q0 .1 0 0m-.7-.1h.1M10 4V4h-.1v.2q.2 0 0-.1h.1zm-.4.3zm.6-.1v.1M9.8 4v.1m.1.1zm.1-.4"/><path fill="#003932" d="M5.7 5.4h-.1v.1h.1v.1H6v.1h-.1.1-.3.1v.1h.1V6v-.1.1-.1H6V6H6h-.1V6h.2v.1H6v.1h-.2V6h-.3.1v.1h.1-.1.1v.1h.1-.1v.1H6v.1H6v.2h.1v.1h.1l.1.1V7h.1v.1h.2V7h-.1v-.1h-.1v-.1h-.1v-.1h-.1v-.2H6v-.1H6v-.1h-.1v-.1H6q0 0 .1 0V6v.1h.1v.1h.1-.1v.1h.1v.2h.2v.2l.1.1V7h.2v.1H7v.2H7v.1h.1v.1h.1v.2h.1v.1h.1V8h.1V8h.1v.1h.1l.1.1v.1H8v.2H8v.1h.1H8q0 .1.1 0h.1v.2h.3v.3h-.1v.2h-.1q0 0-.1 0H8V9H8V9h-.1v-.1h-.1v-.2h-.2v-.2h-.1v-.1h-.1v-.1h-.1v-.1.2h.1v.1q0 .2 0 0v.1h.1v.1h.1V9h-.1v-.2h-.1v-.2h-.1v-.2l-.1-.1V8L7 8H7v-.2h-.1v-.1q-.1 0 0 0h-.1l-.1-.1h-.1v-.1h-.1v-.1l-.1-.1h-.1v-.1h-.1V7H6V7H6l-.1-.1v-.1h-.1l-.1-.1-.1-.1h-.1v-.1h-.1v-.1h-.1v-.1h-.1v-.1H5v-.3l.1-.2h.1l.1-.1h.1v-.1zM8.5 9h-.1l-.1.1zm0 .1h-.1zm-.7-.4v.1m.6.3q.1 0 0 0m-.2-.2h.1m-.1-.1h.1m-.5-.3q0 .1 0 0m.3.1zm-.1-.2v.1m-.1 0v-.1m0-.2v.1M7.1 8zh.1zM7 8zm.3-.3V8m-.5 0q0-.1 0 0m.2 0zm.2-.1v.1m-.5 0v-.1m0-.4zv.1zm-.1.2v-.1m-.2-.3h.1m-.2-.1V7m.4-.1v.1m.1-.1V7m-.3-.1V7m0-.1h-.1v.1zm0 0zm-.2 0v.1m0-.1v.1m-.4 0v-.1m0 0H6m.6 0v.1m-.3 0v-.1m-.1-.4v.1zm-.4-.3h-.1l-.1.1h.2zm.1.1h-.1zm.4.1zM6 6v.1m-.2 0v-.1m-.2-.2zm.1 0v-.1m0 0v-.1m.2-.3zv.1zm-.2 0v.1zm-.1.1q0-.1 0 0m.3-.2"/><path fill="#003932" d="M5.9 5.5q.1 0 0 0v.1H6v.1h.1L6 5.5h.2l-.1.1v.1h.1V6H6V6h.1v.2V6H6v.1V6h-.1v.1l-.1.1H6h-.2.2v.1h-.1v.2-.1h-.1v.2q0 .1 0 .1h-.1.1-.1v-.1h-.1v-.3h.1-.1V6h-.1v.2h-.1V7h-.1l-.1.1v.5H5V8L5 8h.1v.1-.2l.1-.1v-.3q.2 0 0 0v-.1h.1v-.1h.1V7h.1-.1V7h.1v-.3h.3v.1h-.1V7q0 0-.1 0V7h.1v.1h-.1v.1h-.1v.2h-.1v.4h-.1V8h-.1.1v.1h-.1v.1H5v.1h.1v.2H5v.3H5v.4h-.1v.3h-.1v.4h-.1v.5h-.1v.5h-.1v.1h-.1.1v.3h-.1v.5h-.5v-.3H4v-.2q0 0 0-.1V11l.1-.1v-.2h.1v-.3l.1-.2V10q.1 0 .1 0v-.3.1h-.1v.2h-.1v.4H4v.3h-.2q-.2 0 0 0v-.3H4v-.1l.1-.1V10h.1v-.2h.1v-.2h.1v-.2l.1-.1V9h.1v-.2h.1v-.6l.1-.2v-.4l.1-.1V7H5v-.4h.1V6h.1v-.3h.1v-.2H6m-1.7 6.3h.1m0-.2zh.2-.1zm.1.1zm0-.2v.1h.1m.1-.3zm0 0h.1V11zm0-.1V11m-.4-.3q-.2 0 0 0m.5-.1zm.1-.4h.1zm0-.1h.1m.1-.5h-.1m-.1-.4v.3-.3m0 .3zm.1-.1zm-.1-.2v-.1m.1 0v-.1m0 0zM5 9v.1m-.1 0zm0 0v.1m-.2 0h.1m.1-.1zm0 0zm.2-.3h-.1zm0 0h-.1m.1-.1v.1zm0-.2v.1h-.1v.1zm-.2 0h-.1m.2-.2zm.1 0H5M5 8q-.1 0 0 0m-.1 0Q5 8 5 8m.2 0zM5 8h.1m.3-.3v.1m0 0h-.1m-.4 0zm.4-.1h-.1zm.2-.4v.1M5.3 7zm.4-.2h-.1V7zm.1 0zm-.5-.2v.1m.2-.1v-.1m.1-.2h.2-.1v-.1m.5 0zm-.5-.4v.2h.1V6zm0 .2q.1 0 0 0m.2-.1q-.2 0 0 0m-.2 0zm.3-.1H6m.2 0zm-.4.1"/><path fill="#003932" d="M5.4 5.4v.1h.2v.1h.1v.2h-.1V6h-.2l-.1.1H5v.1h-.2l-.1.1h-.2v.1h-.2v.1h-.1.3v-.1H5v-.1h.1v.1h.1v.1h-.8v.1H4l-.1.1h-.1q-.1 0 0 0h-.2v.1h-.3v.1H3V7h-.2V7h-.1v.1h-.2v.1h-.1l-.1.1h-.2v.1H2l-.1.1h-.1l-.1.1h-.3v.1h-.1l-.2-.3H1v-.1q0-.1 0 0v-.1h.1V7H1V7h.1v-.1h.2v-.1h.1V7h-.1v.2V7h.2v-.1h-.1.1v-.1h.1l.1.1v-.2h.1V7H2V7h-.2q0 .1 0 0v.1V7v.3-.1H2V7v.1H2V7h.2V7h.3v-.1h.2v-.1H3v-.1h-.3v.1h-.4V7h-.1v-.1.1H2V7h-.1v-.3h.2v-.1h.1v.1h.2q0 0 .1 0v-.1H3v-.1h.2v-.1h.3v-.1h.2v-.1h.4V6h.2V6h.3v-.1h.2v-.1H5v-.1h.2v-.2zM1.5 7.1v.2h.1zm-.1.2q0-.1 0 0m.1-.2zm.1-.1v.1zm-.4-.1V7zM2 7v.1m-.3.1V7M1.3 7V7m.1 0V7m.6.1V7m.1-.1zM1.9 7zm.4-.2zM2 6.8v.1m.2 0v.1m-.4-.1zm.9.2h-.1m-.1-.2zh.1m-.2 0v.1m-.2.1zm.6-.1v.1m-.4.1v-.1m.5 0zm.3-.1zm.2-.1zm.3.1zm.1-.1v.1m-.3 0zm.4 0v.1m.4 0H4zm-.5-.2v.1h.1m0 0zm.6.1v.1m-.4-.1zm0 .1H4m-.2-.1h.1m.5 0zm-.5-.1zm.2.1zm.6 0v.1m-.8 0zm.1 0H4m1-.1q0 .1 0 0M4.3 6h.1m.6-.1zm.2-.1v-.1m0 0v-.1zm.2-.3zv.1zm0 .1v-.1m0-.1v-.1"/></svg>