<svg xmlns="http://www.w3.org/2000/svg" width="14" height="12" fill="none" viewBox="0 0 14 12"><path fill="#f2f1ed" d="M6.4.6a7 7 0 0 1 2.5 0h-.1l.7.1h-.4 1.1q.7.2 1.4.6.7.7.7.9l.2.3-.1-.3.3.8-.1-.3.2.9v1.2q0 1-.2 2c0-.6 0 0-.1.2l-.1.8c-.2.3-.2 0-.3.5l-.1.3.1-.3-.4 1-1 1q-.2 0-.5.3l-.3.1-1.8.6c.3-.2-.3 0-.3 0-.1 0 .5-.1.2 0l-1.2.1c.4 0-.5.2-.6.1l-1-.1-1-.4s.2.2-.5-.1h-.1l-.4-.2s.4 0-.4-.2c.2.2-.7-.2-1-.5L1 9.5l.3.3Q.7 9.2.7 9 .2 8.2.2 7.7L0 6.9v.3-1.5l.2-.5v-.3c.3-.9 0 0 0 0 0 .1.3-.2 0 .6l.2-.3.1-.5q0-.2 0 0L.7 4q.2-.2-.1.5l.2-.4c.2-.5 0-.2 0-.4q0-.1 0 0l.1-.3.1-.2s.1-.3 0 0V3l.5-.5c.3-.6.4-.2.5-.4.5-.2.3-.3.3-.3l.7-.3.6-.2-.8.3q-.3 0 .1 0h.3l.4-.2c.2 0 0 .1.4 0h-.2l.4-.1H4h.4c.9-.7 1.5-.6 2-.7m2.3 10.6h-.4zm.8-.4c.3-.1-.6.2-.3.2zm3-3.5-.1.2zm-9-.4zv.1h.1zm.1.1zm9.2-2.3V5zm.1-1v.7zM3 1.7h-.3l-.5.4zm1-.2q-.5.1-.3.2z"/><path fill="#003932" d="M9.4 1.8h-.1v-.3h.1v-.1h-.2.1q0 .2 0 0h-.1v.2-.1H9v.1h-.2.2v.1h.2H9h.2V2h-.3.1V2h.1H9v.1V2h-.1v.4q0 0 0 .1v-.1h-.2v-.1h.1v-.1h-.1v.1h-.1v-.1h-.2V2q0 0 0-.1h.1v-.2h.2q0 0 0-.1 0 0 .1 0l-.1-.1v-.3h-.1v.2-.1h-.1v.1h-.1v.1h-.1v.1h.1-.1v.1H8V2h.1V2L8 1.8v.5l-.1.1v.2h-.2v.1h-.1V3h-.1v.2h-.1v.1h.2-.2l-.1.1V4h-.1v.3H7v.2H7v.1h.1v-.1.1l.1-.1V4h.1V4l.1-.1v-.2h.1v-.1h.1v-.2h.2v.1l-.1-.1v-.2h.1V3H8h-.2.1v-.2H8h-.2v-.1l.1-.1h.1v-.3h.1v-.2q0 0 .1 0h.1v.2h.3v.1h.1-.2v.1h-.1l.1.2h-.2v-.1.1h-.2.1V3h.2-.1V3l-.1-.1H8q.2 0 .1.1l.1.1v.1h-.1V3v.1h-.1V3H8v.2h.2l-.2.1h-.1.1v.1h-.1v.3h-.1V4h-.1l-.1.1h-.1v.3h-.1v.1h-.1.1v.1h-.1v.3H7V5h.1V5v-.2.3H7v.3q0 0 0 .1 0 0 0 .1l-.1.1-.1.1v-.2.3h-.1v-.1.2h-.1v.7h-.2V7v-.1h-.1V7l-.1.1h.1l-.1.1v.3q0-.1-.1 0v.1h-.1V8h.1v.2H6v.3H6l-.1.1v.3l-.1.1V9h-.1v.3h-.1v.1-.1h-.1v.2q.1 0 .1 0v.4h-.2v.2h.1v.5l-.1.1v.2h-.2l-.1-.1v.1h-.6v-.4l.1-.1v-.2h.1V10h.1v-.2H5v-.3l.1-.1v-.2l.1-.1V9h.1v-.5l.2-.3v-.1l.1-.2v-.1h.1v-.2q0 0 0-.1v-.1h.1v-.1.1h-.1v.1h-.1v.1h.1v.1h-.1v.1l-.1.1V8h-.1.1v.1h-.2v.1h.1q-.2 0 0 0h-.1v.2-.1.3H5v.1H5V9h-.1l-.1.1h-.2q-.1 0 0 0v-.2l.1-.2.2-.2v-.1H5v-.1l.1-.1v-.3h.2v-.3l.1-.2h.1V7h.1v-.3h.1v-.2h.1v-.2H6v-.2h.2v-.4q.1 0 0 0h.1v-.4h.1v-.1h.1V5l.1-.1v-.1l.1-.1.1-.2v-.1h.1V4H7v-.3l.1-.2V3h.1v-.3h.1v-.2h.1v-.4l.2-.2v-.2h.1v-.2l.1-.1h.1v-.3L8 1 8 .9h.1V.6h.1l.1-.1h.1V.4h.1V.2l.2-.1H9l.3.3h.2v.1h.1V1h-.2l.1.1h.3L9.7.7l.1.1h.2v.2h-.2l-.1.1v.2h.1-.4l.1.1v.3m-4.2 9v.1m-.1-.2q0 0 0 .1l.2.1H5zm-.1-.2v.1h.2v.1l.1.1-.1-.1h-.1zm.4.1h-.1v.1zm-.1-.1h.1zm0 0zm0-.2q0 0 0 .1m0-.4v.1h.1zm.2-.2v.1h.1zm0 0h-.1m-.2-.1zm.1-.3v.1M4.8 9H5m.9.1h-.1m-.1 0v-.1m.1-.2V9zm0 0h.1m0-.1h.1m.1-.3v.2zm.1.1v.1m-.4 0v-.1m-.1-.2v.1zm.3.1zm0-.1zM6 8v.1H6zM6 8l.1.1h.1V8zM5.8 8q.1 0 0 0m-.5-.1h.1m.7-.3v-.1m.1-.2v.1m-.3-.2-.1.1zm0-.1h-.1v.1zm.3.3zM6 6.4v.2h-.1v.1h-.1V7H6v-.2l.1-.2zm.1.6V7m.2-.2h-.1M6 6.7v.1m.1.1h.1m-.1 0zm0-.2h.1m0 0v-.1m.5-.1v.1m-.1-.1v.1m0-.2v.1h.1v.1-.1m-.5 0v.1m.5 0q0 0-.1 0h-.1v.1zm0 .1v.1m-.5 0zm0 0zm.6-.2v.1M6.4 6v.1m.1 0h-.1zm-.3-.1V6zm.5.1zM6.2 6zm.3-.1h-.1m0 0zm.1-.2h-.1v.1zm-.3 0h.1m.3 0q0-.1-.1 0v-.1m.3-.3-.1.1v.2l.1-.1zm0-.2h-.1v.1l-.1.1v.1h-.1.1q.1 0 0-.1zm-.2 0h-.1v.1m0 .2zM7 5v.1m.1 0v.1m-.2-.2zm.2.1zm-.2-.1zm.1 0zm-.3-.1zm.7-.2v.1m0 0v.1h-.1M7 4.3H7v.1m.3.1v.1zm-.2 0h.1m.3-.1v.1m0-.2v.1m-.2 0h.1m.3-.1zm-.1-.1zm.2-.2h-.1zh-.1.1v.1h.2v-.1h-.1zm.3 0v.1m-.4 0v-.1m.5 0zm-.2-.2h-.1M7.3 3zm.7.1v.1M8 3h.1m-.3-.4zm.6-.1v.1h-.1.2zh.1zm-.5-.1v.1m.9.2v.1h-.1zm-.5-.2v.2zm-.3 0zm.3-.2v.1m-.3 0V2m1 .1zm.1 0H9zM8.4 2h.1m.4-.1zM8 2zm.4 0v-.1m.7 0H9m.2 0zM9 2v-.1m-.4-.4h.2v.2H9l-.1-.1zm.8.1v.2zM8.7 1zv.1h.1l-.1.1v.2H9q0 .2 0 0v.1-.1q0 0 0-.2zm.8.7h-.1m-.8-.3v-.1m.8 0v.2zm-.5 0q0-.2 0 0m-.2-.2v.1h-.1m-.3-.1zm.5 0v.1h.1zm.4 0zl.2.2v-.1zm.5.3v.1m-.7-.3v.2h.1zM9.2 1v.1m.6.1h-.2zm-.5 0h.2V1zm.4-.6q0 .2 0 0M9.4.4"/><path fill="#003932" d="M3 2v.2h.2q0 0 0 .2v.1h.1v-.1h.1v.1l.1-.1h.1v.1h-.1l-.1.1h.3-.2v.1h-.1v-.2h-.1v.1l-.2.1h.3V3 3h.1v-.3.4h.1v-.2h.1V3h.1v-.1H4V3H4h-.2v.2-.1h.3q-.2 0 0 0v.1-.1h.3-.1v.2h-.1v-.1H4v.2h.1H4v.2h-.2v-.1h-.2l.1-.1v-.2l-.2.1h.1-.1l.1-.1h-.1q0 .2-.2.1v-.1l-.2.1h.2v.1h-.1v.1h.3-.1v.2h.1v-.1.1h.1V4l.1-.1h.1l-.1.2h.4v.1h.2v.1h.1v.1h.1v.2h.2v.1h.1l.1.1v.1H5v-.1.2h.4V5h.2v.1V5v.1h.2v.1H6v.1h.2H6v-.1h.1H6V5h-.2V5h-.1l-.1-.1h-.1v-.1h-.1v-.1h-.2v-.2H5v-.1h-.2.1v-.2l-.1.1h-.1V4v.2h-.1L4.4 4V4h-.2l-.1-.1v-.1H4v-.1H4v-.1h.1v.1h.1v-.1l.1-.2v-.1h.1v.4h.1l.2-.2v.1h-.1V4l.1-.1.1-.1V4h-.1.1V4v-.1H5v-.1l.2.1h-.2V4H5V4h-.1v.1h.2V4l.1.2v.1h.1v.1h.2v.1h.1v-.1.2h.1v.2l.1.1h.3V5h.2-.1v.1h.3-.1.1v.1h-.1q0 0 0 .1h.2v-.1h.2v.2h.3q0 0 .1 0l.1.1.1.1h-.1v.1h.2v.1H8V6h.2V6h.2v.2h.3v.1h-.1.1v.1h.1v-.1.1H9l.2.1q-.3 0-.1.1h.2v.1h.5l.2.2h.1v.2V7h.4v.2h.2v.1h.2v.1h.1v.1h-.1.2v-.1h.3v.1h.1v.2h.2v-.1h.4v.2h.3v.9H12v-.1h-.2v-.1h-.2v-.1h-.1v-.1h-.2v-.1h-.4V8h-.3v-.1h-.1v-.1h-.3l-.1-.1H10l-.3-.2h-.1v-.1h-.1l-.1-.1h-.1v-.1H9V7h-.3.2v.2h.1v-.1h.1v.1h.1v.1h.1v.1h.2v.2-.1h.1q0 .1 0 0v.1h.3V8h.2V8h.2v.1l.1.1v.2q0 .2 0 0h-.2l-.2-.2-.2-.1V8h-.1v-.1h-.1l-.1-.1h-.1l-.2-.1v-.2H9v-.1h-.1v-.1h-.2v-.1h-.1V7L8.2 7 8 6.9v-.2h-.3q-.2 0-.1-.2h-.3v-.1q-.1 0 0 0v-.1H7L6.8 6h-.2V6h-.1l-.1-.1h-.1v-.1h-.1L6 5.7 6 5.5h-.1v-.1h-.2v-.1h-.1l-.1-.1H5l-.1-.1V5h-.3L4.5 5v-.1h-.3l.1-.1h-.1q-.3 0-.3-.2h-.2v-.1h-.1v-.1l-.2-.1h-.1l-.1-.1L3 4h-.3v-.2h-.1v-.1h-.2v-.2h-.1v-.1H2L2 3.1V3h-.1V3l.4-.3.1-.2h.3v.1H3l-.1-.1v-.1l.1-.1zm7.4 6.4zm0-.2h-.1m-.1 0q0 0-.1 0M9 7.4h.1m.3-.1v.1m-.3-.1.1.1m.2 0v.1m-.1.1q0-.1 0 0m.7.1h-.1m2.3.4H12V8H12l-.1.2.1-.1V8h.1zm-.2.2q0 .1 0 0m.3.1h-.1M8.6 6.9V7zm3 1q0 .1 0 0m.6 0v.2H12h.1zM8.6 7V7h.1m-.3-.1h-.1M8 6.6l.2.1v.1h.1l.2.1v-.1h-.3v-.1zm4 1.3V8zm-.6-.1v-.1m.3 0V8m-1-.2zm1.7.5h-.1m-.6-.4V8h.1v-.2m-1.4-.4v.1m1.3.6v-.1m-.5-.3H11zv-.1m-2-.6zm2.7.8zm-1.4-.5v.1m-.7-.1zm-2.2-.7zm-.1-.2h-.1m2.8 1v-.1M10 7H10M8 6.5zm.5 0-.1.1m1.1.3V7zm.2.1zV7zm-3.2-1V6m.4.3zm1.1.2q.2 0 0 0m-1-.2h.1V6m0 0V6m.8-.1h-.2v.1h.1-.1v.1H8V6m.1.2zm1.4.6v-.1m-.5-.3h-.1M7 5.9V6m.2.1zM10 7q0-.1 0 0M7.4 6v.1h.1zm-1-.2h.1m.4 0L7 6m2.6.9zM7 5.5h-.1v.1h-.1.1v.1H7V6v-.1h.1H7v-.1h-.2zm1.1.6v.1h.1zm-1.3-.4h-.1m.2 0v.1m1.2.4H8M8 6h-.1zq0 0 .1 0m.1.1h.1m-2.9-.9zm.9.3h.1m1.1.2q-.1 0 0 0m-.7-.2h.1m.6 0v.1H7v.1h.2zm0 .2h.1m-.5-.2h.1m-.3-.2.1.1M5.2 5zm2.4.8h-.1m-.9-.3zM5 4.8zm-.5-.1h.1m.8.1H5m0 0h.1m.3-.1v.1h.1m.7.4V5m.3.1V5m-1.1-.8h.1v.2q-.1 0-.1 0v.1h.1v-.3m-1.3 0v-.1m.3.1v-.2zm1.7.4zm-.6-.3v.1h.1v.1zm.8.3V5M6 5h-.1M3.9 4zm1.2.2H5v.1zm.2.1v.1m.1 0h-.1m-.4 0v-.1m-1.3-.8v.2zm.6.3v-.1m.1-.3-.1.1v.1h.1V4h.1v-.2h-.2zm.9.5h-.1m0-.1zM5 4zM3.3 3l-.1.1h-.2v.2V3q0 0 0 .1h.2v.1h.1V3h.1-.2zm1.5.8zm-1-.2zM3.6 3zh-.2v.1h.1zm-.3 0zH3m.6.2zv.1-.1m.5.2zm.3-.1v.1h-.1zm-.8 0q0-.2 0 0m-1-.6H3V3H3v-.1zm.4.1q-.1 0 0 0m.9.1v.1m0 0zv.1zm.2.1h-.1M4 3h.1m-1-.3.1-.2zm0 0h.1v-.1M3 2.5v-.1m-.3-.2zm1.2.4h-.1v-.1m-.6-.6-.2.2h.1zm-.4-.1zl-.1.1zm.2.1v.2zm.3.2q0 0 .1 0zm0-.4"/><path fill="#003932" d="M13 4.6zh-.1V5h.1V5l.1-.1v.4h-.3q0 0-.1 0h-.1v.1h-.3v-.1q0 0-.1 0 0 0-.1 0h-.2l-.2.1h-1.6v.1h-.7v.1h-.2.5l.1-.1v.1h.4q.2 0 0 0h.4v-.1.1h.8V6h-.8v-.1H7.8l.1-.1q0 0 0 .2h-.4v-.1h-.1V6H7v.1h-.5l-.2.1H6l-.1.1h-.3l-.1.1-.2.1-.1.1-.1.1h-.3v.1h-.1V7h-.2l-.2.1H4l-.3.2h-.1v.1h-.1l-.1.1h-.2l-.1.1H3q0 0-.1 0l-.1.1v.1h-.2l-.2.1h-.1l-.1.1h-.1V8H2l-.3.1h-.2l-.3-.5v-.1H1v-.2h.1v-.1h.1q0 0 0-.2v.1H1V7H.8 1v.2V7H.9v-.2L1 7h.1v-.1h.2-.1l.1-.1v-.1h.2v.2q0 0 .1 0v-.2h.1v-.2H2h-.1v.2-.1l.1-.1q0 0 .1 0l-.1.1v.1h-.2V7v-.2h.5-.1v-.1h-.2.4-.1L2 6.5v-.1h.3v.1-.2h-.1.3l-.1.1v.1h.1v-.1h.1v-.2.1h.1v-.1H3V6H3h-.1v.1H3v.2h-.1v.1H3v.2h.1v.1H3l-.2.1h-.2.1-.1V7v-.2h-.1l-.1.1h.1V7q0 0 0 .1h-.1v.2V7h.2-.1q0 .1 0 0h.2V7v.1H3v-.2.2H3V7h.1v-.2.2h.3v-.3h.2v-.1h.8l.2-.1h.1-.1v-.1H5l.2-.1v-.1.1l.1-.1h.3V6H6V6H6h-.2v-.1H6h-.3l-.1.1h-.3v.1h-.5v.1h-.1V6v.1h-.2v.1h-.1v-.1h-.1V6q0 0 0 .1v.1h-.4v-.1H4v.2h-.1v-.1.1h-.2v.1h-.4v.1H3v-.1l.1-.1H3V6h.3V6h.1v.2h.2v-.2.2l.1-.1.1.1v-.2H4V6l.1-.1V6h.2V6h-.1.1-.1v-.1h.1l.2.1q0 0 0-.1h.3v-.1h.5V6h.1v-.1h.3v-.1h.4H6v-.1h.1v.1h.1v-.1h.1H6h.2l.1-.1h.2q.1 0 0 0h.2v-.1h.4H7h.1v.1h.1l.1-.1h.1v-.1.1h.2v-.1H8v-.1h.5l.2-.1h-.1v.1h.3-.1.2V5h.2v.1V5h.4v.1V5h-.1.1V5h.6q0 0 .1 0h.2-.1.2v-.1h.8V5q0 0 .1 0v-.2h.7v-.1h.1l.2-.1h.5M2 6.9zQ2 7 2 7H2v.3h.2v-.1h.1V7zm0 .3v.2h.1zm-.6 0L1.4 7zm.3-.1h-.1q0 0 .1 0m-.6-.3q0 .2.1.1zm.2-.2V7v-.2M2 7v.1m-.5 0v-.2zm.6 0v.1M1.6 7h.1m.4 0h-.1m.3 0zm.1-.2h-.1V7h.1zm-.8-.1zv-.1m1.3.4zm0-.1h-.1m-1.3-.5v.1m1.4.4q0 .1 0 0M2 6.5H2m1.4.3-.1.2zh.1m-.9-.2zm.7.2h-.1m.4 0V7m-1.1-.2q0-.1 0 0m.1-.2v.1h.1m1.1.4H4m-1.7-.5zm1.7.4H4zm-1.2-.5h-.1V6zm1 .2h-.2zm-.1-.1v-.1zh-.2v.1zv-.1m-.8-.1V6h-.1zm1.3.4v-.1M3 6.1h.1M2.8 6v.1zm.3.1V6m.5 0v.1M3.3 6h-.1zm1 .2q0 .1 0 0m.5.1v.1m-.4-.2v.1zm.7.3h.1m-.2 0q0-.1 0 0m.2 0v-.1M4.4 6h.1m.4-.2zH5zV6H5v.1H5V6zm-.2 0V6m.6.1zm-.1-.2L5 6h.2m.6.3h.1M5.5 6zm0-.1h-.1v-.1m.2-.1h-.1m.5.1H6m.5.2h.1M6 6h.1m0 0h.1m.6.1h.1m-.9-.3h.1m.6.1h.1M6 5.6h-.1m0 .1zm.5.1zm.3 0V6m.3-.2v.1h-.4v.1h.5H7v-.1m.4.3h-.1M7 6zm-.4-.4q-.1 0 0 0 0 0 0 .1m.3 0h-.1v.1h-.1.1m.3.2h-.1l.1.1zm.4.2zm0 0h.1m-.3-.1h.2zm0-.2v.1m.1 0v.1m.2 0h-.1zm.2.1H8m0-.3v.2h-.2.3-.1zm1 .2-.1.1h-.5v.1H9zm-.7.1H8m.2.1h.1m0 0zm-.2-.1h.1m-.5-.3zm-.1 0h-.1m.3-.2v.1h-.1v.1H8zH8m1 .4v.1l.1.1zM8 5.5h-.1m.3 0v.1m.7.2v.1h.1zm-1-.3v.1h.1zm.7.2zm.1.1v-.1M8 5.1v.1h.1m1.1.3zm-.5-.2v.1m-.4 0zm2 .4v.1m-1.3-.4h-.1m-.5-.2h-.1m1.7.4H10m.3 0h-.1zM9.7 5h.1zV5m-.2 0h.1m1 .3zm0-.1h-.1M9.8 5v.2zm.1.1V5m.3 0h.1m.5-.1v.2zm.4 0v.1m0 0q0 .1 0 0m-.3 0h.1m.2 0h.1m.5 0zm0-.1v-.1m.3 0zm.8-.2V5h-.1v-.1h.1zm-.1.1v.1zm-.1 0q0 .1 0 0m-.1-.1v.1h.1zm.5.2V5m0-.2V5h-.2.1zm-.6 0v.1m.6-.1"/><path fill="#003932" d="M5.2 0v.3l.1.1v.3l.1.1v.3h.1v.1l.1.2v.3l.1.1v.3h.1v.2l.1.2v.3L6 3h.1v.5h.1v.2h.1v.1-.3h-.1v-.5H6v-.1h.1H6v-.3h-.2v-.1H6v-.1l-.1-.1L6 2V2h-.1v-.4h.2v-.1h.1v.9l.1.1V3h.1v.6h.1V4q.2.1.1.3l.1.2v.2l.1.1V5q0 .2 0 0h-.1V5H7v.3q0 .2 0 0v.1H7v.3l.1.1V6l.1.1v.4h.1v.3l.1.1V7l.1.1v.3h.1v.2h.2l.1.2V8H8v.1l.1.2h.1v.3h.1v.1l.2.3v.2l.1.1v.1l.1.2.1.1v.1l.1.2.2.2v.3l.1.1v.2l.1.1.1.3v.2l-.5.2-.1.2h-.2q-.2 0 0 0v-.1h-.1l-.1-.1v-.1.1q0 0 0 .1v.1h-.2v.1h.1q0 0 .2 0h-.2v.1H8l.1-.1v-.1H8v-.2h-.2v-.2H8v-.1h-.2v-.1h-.1l-.1-.1V11l.1.1h.1l-.1-.1h-.1v-.2.1h.1v.1H8v.2h.2l.1-.1H8v-.2h-.1l.1-.1v-.1.1l-.1-.1v.2h-.1v-.3.2h-.1v-.3h-.1q0 0-.1 0l.1-.2h.1v.1l.1-.1h-.1v-.1h-.1V10h-.2V10h-.1v-.1.1h.1v-.1h.2v.1h.1v-.1h.1v-.2H8v.2l.1.2H8v.2h.1v-.1.1H8v.1h.2q0-.2.1 0v.1h.2-.1v-.2.1q.2 0 0-.1v-.1h-.2.2V10h-.2.1v-.2H8l.2-.1h-.1v-.1L8 9.3h-.1V9h-.1v-.2H8v-.2h-.1v-.2l-.1-.2h.1l-.1-.1v.1h-.1V8l-.1-.2h-.1.1-.2v-.2h.1v-.1h-.1v-.3h-.1V7H7v.1V7v.5h.1v.2h.1v.5h.1v.1h-.1.1l.1.1v.3h-.1.1v.1h.1V9h-.1v.2V9h.1v.1l.1.2.1.2v.2H8v.1h-.2v-.1q-.1.1-.3.1h-.1.1v-.3h-.2v-.1h.2v-.2h-.2.2-.1V9q0 0-.2 0v-.1h.2-.1v-.1h.1v-.2.1h-.1v-.1.1H7v-.1l.1-.1v-.2H7v-.1H7v-.5h.1v-.2H7v-.3h-.1V7l-.1-.1V7v-.2.1-.2.1-.1h-.1v.1-.2h-.1v-.2l-.1-.1v-.1L6.4 6v-.2.1h.1v-.1l-.1-.1v-.1h-.1v-.2h-.1V5v.1H6v-.3H6v-.1h.1H6v-.2l-.1-.1H6v.1-.1h.1H6v-.2l-.1-.1-.1-.1V4H6h-.1v-.1h-.1v-.1h.1v-.2.1h-.1v-.1h-.1l-.1-.2V3l-.1-.2v-.2h-.1v-.3h-.1v-.2H5v-.3h.1q0 0 0-.1h-.3v-.3h-.1l.1-.1v-.2h-.2q0-.1-.2-.3V.7q0 0 0-.1V.5h-.1l.1-.1h.2L4.6.3h.2V.1L5 0l.2.1zM8 11.6v.1q.1 0 .1-.2zm0-.2-.1.1h-.1.3zm.5.3h.1m-.2-.3zm-.1-.1q0 0-.1 0m-.2-.1zm.3-.2zv.2h.1zm.1 0v.1m-.2-.1H8zm0 0v.1m.1-.3h-.1v.1H8h.2v.2h.3v-.1h-.1zm0 .2h-.1zm-.7-.2h.1m.5-.1H8v.1zm.1.2h.1m-.8-.4h-.1m1 .4h.1m-1.2-.6zq-.2 0 0 0m.5 0v.1zm.2 0v.1m-.7-.6v.2h-.1v-.1zm.9.4zm-.7-.6v.2h.1l-.1.1h.2-.1v-.3m-.1 0v.1m.2 0v.2h.1zm.3-.1zV9m.3-.1v.1M7 8.7zM8 9v-.1m-.6-.4v.1m0-.1zm.1 0zm-.2 0v-.1m.8.1H8M7.2 8zH7v.2V8h.2V8m-.2.3h.1m.2-.2h-.1M7 7.8V8zm.1 0V8zm.4.2V8m0 0h-.1m-.2-.2zm-.5-.1zm.6.1zm0 0v-.1m-.6-.4v.1zm.6.1v.2zm-.7-.3zM7 7zm.3 0v.1zm-.3 0zm0-.2h-.1m-.1 0H7m0-.1H7m.2 0q0-.1-.1 0m-.2-.3v.1H7zm-.2-.1v.1m.2 0v.1m-.1.1zm0-.5h-.1zl.1.2.1.1v-.3h-.1zm.2.3v.1m.1 0h.1M6.6 6v.1h.1l.1.1V6zm.5.1v.1zm.3 0zM7 6v.1M7 6V6m-.4 0v-.1m.2-.1zm.1-.1v.1m-.1 0h-.1zv-.1m-.4-.1-.1-.1m0 0h.1m.5 0v.1m-.3-.2v.1m.1.1zm-.2-.1zv-.1m-.1 0v-.1M6.2 5v.1h.1zm0 0zm.3 0h-.1l.1.2zV5h-.1m.1.1v.1zm.1 0 .1.1zm-.4 0V5m-.2-.3V5h.1zm.1 0V5h.1m-.1 0zm.6.1h-.1m-.2-.2V5m.1 0q0 .1 0 0M6 4.6v.1m.6.3v-.2zm-.3-.2h.1m-.2-.2zm.2-.4v.2l.1.1v.3h.1v-.4zm-.1.5zm-.4-.2zm.7 0v.1m-.3 0h.1M6 4.2zm.8.1h-.1m-.4-.2v.1m-.5 0zM6 4h.1zm.1-.3V4m.2.1zM6 3.7v.1m-.2 0zm.7 0h.1m-.6-.2zm.3 0zm-.4-.2h-.1zm.1.1H6m-.2-.2h-.1zm.2 0v.1m.5.2v-.1M5.5 3v-.1m.4 0H6m.3 0v.1m-.3 0v-.1m-.2-.5v.1m-.2-.2h-.1m.6.2q.1 0 0 0m-.7-.3h-.1m0 0zm-.2.1h.1v-.1m.1-.3v-.1M5 1.6h.1L5 1.5zm1 .2q.1 0 0 0m-1-.3h.1m1.2-.1H6M4.6.8q0 .1 0 .1h-.1zm.1.1zq0 0 0-.1M4.6.7v.1zm.4.2zM4.8.7h-.1zm.2 0q0 0-.1 0V.5h-.4.5M4.8.4h-.2zm0 0zM4.8.4zM5 0H5m.2 0"/></svg>