<svg width="206" height="88" viewBox="0 0 206 88" fill="none" xmlns="http://www.w3.org/2000/svg">
<path d="M153.158 5.22439C153.179 5.22545 153.249 5.25594 153.322 5.28173L153.325 5.28152C153.269 5.28946 153.188 5.30344 153.107 5.31513C153.037 5.29143 152.933 5.26516 152.91 5.24568C152.891 5.22828 152.883 5.20583 153.158 5.22439Z" fill="#003932"/>
<path d="M89.5826 2.84789C89.6852 2.83726 89.9681 2.86468 90.1515 2.89554C90.4499 2.94511 90.1895 2.93522 90.0397 2.93012C89.872 2.92375 89.6502 2.90644 89.45 2.89272L89.4537 2.89251C89.4918 2.87642 89.4942 2.85539 89.5826 2.84789Z" fill="#003932"/>
<path d="M86.5686 2.502C86.5679 2.49048 86.7105 2.49368 86.7887 2.48912C86.8614 2.51493 86.9309 2.54086 86.9855 2.5608L86.9858 2.56531C86.9116 2.57658 86.8268 2.59094 86.816 2.58926C86.4142 2.53878 86.5699 2.52504 86.5686 2.502Z" fill="#003932"/>
<path fill-rule="evenodd" clip-rule="evenodd" d="M45.9086 0.346846C47.4271 0.207158 47.8123 0.21943 48.019 0.343633C48.0411 0.356182 47.9784 0.373768 48.0001 0.386336C48.1254 0.457582 48.4983 0.440233 49.3476 0.355874C49.4749 0.343802 49.5523 0.327813 49.651 0.312796C49.9561 0.294945 50.1365 0.333072 50.4549 0.300573C50.5398 0.290985 50.5633 0.270971 50.52 0.261947C50.3903 0.23722 50.1058 0.237711 49.7764 0.261599C49.6487 0.269072 49.5784 0.287052 49.4795 0.299773C48.7633 0.286219 49.0234 0.231652 49.4332 0.179942C49.6417 0.153877 50.202 0.116618 50.7951 0.0934696C51.3881 0.0726301 52.0136 0.0591508 52.3557 0.0645491C52.6443 0.0707657 52.8406 0.0751659 53.2139 0.0694967C54.2979 0.0476516 54.3596 0.0581272 54.2844 0.168732C54.2548 0.209752 54.6722 0.227134 54.6529 0.262925C54.6524 0.267803 54.7859 0.278203 54.814 0.276559C54.937 0.269366 55.1403 0.264081 55.1471 0.257069C55.1928 0.187398 55.2137 0.11448 55.2274 0.0443729C55.2388 -0.00250896 55.6885 0.0218927 55.8198 0.0142269C56.8558 -0.0417736 57.8852 0.0895935 58.8713 0.0319099C58.9847 0.0229663 59.1245 0.0356414 59.1541 0.0547028C59.1763 0.0695612 59.1274 0.0839763 59.1848 0.0967654C59.4266 0.15195 58.1958 0.222013 59.4187 0.254455C59.9603 0.268948 59.659 0.163953 59.7912 0.116901C59.9969 0.0447753 60.3739 0.0341254 61.3953 0.0922167C62.092 0.136949 62.7127 0.158772 63.4782 0.162509C64.1834 0.169771 64.9579 0.145222 65.7714 0.238584C66.058 0.270343 66.5526 0.266576 66.9405 0.264679C67.2107 0.262723 67.7379 0.275788 67.8675 0.293634C69.3635 0.490353 71.3938 0.448128 72.96 0.626878C73.0748 0.638643 73.4022 0.644614 73.5908 0.645129C74.559 0.646247 75.4482 0.753746 76.3216 0.836674C76.9446 0.899583 77.5719 0.971591 76.9476 1.00352C76.4615 1.02735 77.2381 1.10875 77.5266 1.16815C77.8436 1.23278 77.5486 1.23638 77.232 1.23874C76.8619 1.2396 76.526 1.21981 76.2695 1.15624C75.8903 1.0629 75.4731 1.11042 75.0655 1.07883C74.9942 1.07608 74.8308 1.08334 74.8064 1.094C74.7093 1.13665 75.2951 1.17408 75.568 1.21357C75.866 1.25622 76.1084 1.26042 76.433 1.27147C76.8004 1.28464 77.2401 1.3167 77.6405 1.34642C78.2409 1.38984 79.0219 1.42049 79.2561 1.52228C79.3109 1.5468 79.5829 1.56546 79.5819 1.54934C79.5952 1.45651 80.2606 1.52133 80.9582 1.59134C80.9939 1.59387 81.1391 1.58323 81.1387 1.57173C81.1381 1.56022 81.0581 1.5348 80.9541 1.5224C79.5854 1.36908 79.8098 1.30981 80.1115 1.23438C80.5043 1.13978 80.4155 1.13568 81.6666 1.22884C82.832 1.32006 82.6025 1.34511 82.2985 1.37907C82.2243 1.38803 82.3229 1.4309 82.4556 1.44855C82.7281 1.48341 82.7335 1.45299 82.8614 1.45013C83.1781 1.44778 83.5517 1.44425 83.854 1.44043C84.33 1.42644 84.5628 1.45001 85.0137 1.55299C85.3636 1.63188 85.9083 1.63228 86.2866 1.64942C87.0182 1.68057 87.6408 1.7299 88.2179 1.85791C88.4163 1.90175 88.7682 1.95709 89.0679 1.9696C89.4924 1.98635 89.9326 2.02537 90.3948 2.07689C90.8533 2.12632 91.323 2.18215 91.7679 2.24162C92.5388 2.33747 93.4926 2.45506 94.2682 2.50905C94.5967 2.5268 94.8554 2.56468 95.1535 2.60963C95.8215 2.70921 96.5172 2.79576 97.1912 2.81641C97.5261 2.82223 97.9272 2.86111 98.0359 2.89404C98.5182 3.04374 99.0661 3.03931 99.9477 3.08016C101.028 3.10708 102.279 3.19586 103.518 3.25741C104.139 3.28808 104.683 3.33944 105.293 3.36153C105.807 3.3823 106.226 3.36477 106.852 3.41366C107.563 3.47139 107.213 3.51016 107.373 3.5586C107.42 3.572 107.531 3.58651 107.614 3.60014C107.712 3.58511 107.915 3.57296 107.9 3.55536C107.823 3.46971 108.206 3.4499 109.187 3.48724C109.672 3.50277 110.242 3.50182 110.646 3.52672C111.246 3.56324 111.662 3.55712 112.235 3.54903C113.216 3.53321 113.956 3.5938 113.726 3.67428C113.548 3.73552 113.672 3.77259 114.091 3.8243C114.45 3.86802 114.463 3.91562 113.689 3.93784C113.166 3.95223 113.656 3.9789 113.838 3.99826C114.085 4.02536 114.273 4.00538 114.457 3.99459C114.932 3.9691 114.87 3.9243 114.878 3.88226C114.894 3.78895 114.849 3.69676 114.947 3.60558C115.017 3.53904 115.742 3.51025 116.353 3.55537C116.861 3.59267 117.182 3.6015 117.821 3.58026C118.315 3.56293 118.974 3.57079 119.554 3.5738C120.309 3.57586 121.043 3.64139 121.822 3.57269C122.59 3.61557 123.328 3.57939 124.103 3.56178C125.016 3.54067 125.345 3.56564 125.35 3.64164C125.35 3.71316 125.341 3.78094 125.771 3.84578C125.936 3.87078 125.921 3.91782 125.374 3.93366C124.863 3.94973 124.981 3.96804 125.253 3.99141C125.5 4.01163 125.807 4.02816 126.123 4.00969C126.378 3.99475 126.76 3.95639 126.703 3.94816C126.121 3.85512 126.524 3.75284 126.447 3.65566C126.432 3.63804 126.632 3.6009 126.71 3.6009C127.508 3.60277 128.252 3.54334 129.037 3.57598C129.851 3.61155 130.473 3.60514 131.225 3.55423C131.774 3.51747 132.335 3.55391 132.389 3.61545C132.4 3.63094 132.376 3.64386 132.399 3.65873C132.513 3.72829 132.055 3.80361 132.735 3.87011C133.144 3.80458 132.891 3.73173 132.961 3.66289C133.045 3.5817 133.198 3.57487 134.338 3.59136C135.168 3.60288 136.012 3.61372 136.85 3.62482C137.469 3.63246 138.248 3.6217 138.496 3.70891C138.547 3.72667 138.764 3.73443 138.849 3.72489C139.343 3.66589 140.064 3.67956 140.809 3.69836C141.551 3.72658 142.318 3.75997 142.914 3.73433C143.053 3.72854 143.661 3.77866 144.008 3.8069C144.706 3.87465 145.314 3.93156 145.798 3.86402C145.939 3.8442 146.647 3.88364 146.69 3.89727C147.06 4.01192 147.878 3.99655 148.482 4.03977C149.211 4.09415 150.002 4.11251 150.659 4.20807C150.965 4.25492 151.276 4.2737 151.568 4.27971C152.68 4.30246 153.604 4.46112 154.632 4.57427C155.141 4.6231 155.634 4.65434 156.138 4.69417C156.388 4.71418 156.642 4.736 156.9 4.76711C157.159 4.80283 157.418 4.84572 157.688 4.89694C158.195 4.99664 158.75 5.04051 159.305 5.09125C160.109 5.15739 160.564 5.26469 160.523 5.33878C160.51 5.36263 160.422 5.37935 160.785 5.45047C160.81 5.45363 160.995 5.44748 161.123 5.44922C161.255 5.45075 161.452 5.46211 161.537 5.45713C161.721 5.44174 162.004 5.46697 162.433 5.56431C163.262 5.73996 164.21 5.93657 165.05 6.04921C165.527 6.11603 165.952 6.19483 166.352 6.28003C166.746 6.37715 167.125 6.47056 167.508 6.56599C168.02 6.68852 168.332 6.76739 168.701 6.80819C168.919 6.83238 169.224 6.87936 169.51 6.96654C169.648 7.0116 169.589 7.02917 169.691 7.07398C169.98 7.20037 168.78 6.95391 169.814 7.27706C170.412 7.46386 169.782 7.40149 170.115 7.5484C170.17 7.57291 170.361 7.62851 170.488 7.6604C170.719 7.7185 170.961 7.77127 170.757 7.68852C170.33 7.51482 170.622 7.51859 170.647 7.45714C170.678 7.38137 170.87 7.37472 171.272 7.44358C171.474 7.47801 171.726 7.53261 172.037 7.60686C172.192 7.6463 172.362 7.68739 172.546 7.73438C172.731 7.78367 172.923 7.84636 173.133 7.9103C173.913 8.15352 174.617 8.37558 175.401 8.58155C176.176 8.79507 176.851 9.13245 177.686 9.35626C177.9 9.4131 178.39 9.58335 178.54 9.65084C179.241 9.99578 179.874 10.1736 180.506 10.3931C180.848 10.5141 181.182 10.61 181.457 10.758C182.01 11.07 182.604 11.3682 183.422 11.6577C183.575 11.7135 183.835 11.8298 184.032 11.92L184.552 12.16L185.048 12.4176L186.043 12.9323C186.704 13.2796 187.4 13.602 188.044 13.9687L189.738 15.0294C189.802 15.0996 189.931 15.1729 190.14 15.2785C190.306 15.3751 190.495 15.4958 190.668 15.5989C191.015 15.8051 191.362 16.0093 191.708 16.2132C191.882 16.3185 192.062 16.4165 192.225 16.5248C192.388 16.6354 192.548 16.7461 192.711 16.8567C193.417 17.3539 193.892 17.7954 194.526 18.3453C194.762 18.5395 194.98 18.7396 195.209 18.9434C195.438 19.1472 195.682 19.3544 195.92 19.5854C196.571 20.1805 196.651 20.3307 196.286 20.1673C196.195 20.1287 195.998 19.997 196.192 20.2098C196.413 20.4511 196.631 20.5909 196.718 20.6158C196.827 20.6487 196.863 20.6004 196.926 20.5851C196.979 20.5728 197.162 20.7241 197.348 20.9235C197.524 21.1166 197.681 21.3061 197.648 21.3473C197.638 21.3617 197.613 21.3634 197.607 21.3868C197.594 21.4725 197.336 21.3012 197.578 21.6634C197.85 21.8852 197.802 21.7198 197.898 21.7346C197.967 21.7445 198.079 21.8283 198.277 22.0548C198.714 22.5237 199.101 23.0439 199.431 23.5029C199.738 23.9425 199.966 24.3061 200.319 24.7338C200.564 25.0176 200.75 25.5222 201.05 25.7658C201.114 25.8246 201.211 25.9553 201.288 26.1285C201.414 26.3892 201.618 26.7702 201.837 27.1595C202.06 27.5485 202.294 27.951 202.444 28.2657C202.601 28.5707 202.769 28.8914 202.868 29.1814C202.989 29.5278 203.143 29.8539 203.328 30.2058C203.391 30.3222 203.506 30.5652 203.52 30.6268C203.606 31.0516 203.764 31.4444 203.926 31.837C204.074 32.2328 204.247 32.6205 204.406 33.0248C204.73 33.812 204.747 34.213 204.609 34.3437C204.572 34.3759 204.525 34.3695 204.487 34.3902C204.477 34.3933 204.479 34.4372 204.477 34.4626C204.471 34.5414 204.499 34.6504 204.54 34.6783C204.606 34.7229 204.669 34.7494 204.717 34.7258C204.814 34.679 204.905 34.9416 205.024 35.3987C205.135 35.7689 205.19 36.154 205.269 36.5284C205.345 36.9053 205.431 37.2723 205.544 37.617C205.566 37.6943 205.609 37.8838 205.602 37.9328C205.549 38.546 205.718 39.2919 205.805 39.9824C205.841 40.5209 205.79 40.6323 205.7 40.6053C205.671 40.5978 205.62 40.7067 205.622 40.7392C205.647 41.0359 205.691 40.9387 205.728 40.955C205.772 40.9731 205.817 40.9592 205.861 40.9843C205.935 41.0264 205.978 41.3312 205.967 41.579C205.958 42.2058 205.897 42.7826 205.989 43.4335C206.023 43.7088 205.972 43.9383 205.935 44.1416C205.919 44.2465 205.869 44.4158 205.9 44.518C206.013 44.8695 205.936 45.3685 205.872 45.906C205.811 46.5012 205.692 47.0767 205.549 46.9418C205.5 46.8985 205.449 47.172 205.437 47.4014C205.43 47.5774 205.467 47.6098 205.503 47.5477C205.567 47.4354 205.632 47.256 205.687 47.2964C205.758 47.35 205.783 47.7671 205.709 48.0765C205.597 48.5914 205.485 49.1111 205.399 49.6315L205.267 50.4111L205.198 50.8009L205.092 51.1887C204.834 52.0472 204.671 52.9072 204.387 53.758C204.256 54.1839 204.125 54.6099 203.993 55.0381C203.844 55.4628 203.666 55.887 203.492 56.3132C203.383 56.5714 203.256 56.8909 203.201 57.0998C203.05 57.6216 202.733 58.1579 202.508 58.6818C202.234 59.3472 201.717 59.9367 201.491 60.6178C201.291 60.9068 201.114 61.2224 200.934 61.5403C200.735 61.8547 200.533 62.174 200.338 62.4836C200.122 62.8104 199.915 63.1461 199.707 63.4841C199.488 63.8181 199.244 64.149 199.001 64.4822C198.695 64.8999 198.49 65.1705 198.626 64.8251C198.673 64.7071 198.682 64.6303 198.692 64.5559C198.702 64.4883 198.582 64.6221 198.485 64.7271C198.338 64.886 198.274 65.0079 198.287 65.0395C198.311 65.1005 198.25 65.2679 198.226 65.3917C198.192 65.6084 197.733 66.1412 197.605 66.26C197.005 66.7735 196.583 67.4753 196.04 68.0363C195.629 68.4856 195.291 68.9629 194.85 69.2753C194.823 69.2931 194.745 69.3645 194.725 69.3889C194.181 69.9915 193.57 70.5544 192.955 71.1103C192.318 71.6583 191.634 72.1813 191.013 72.7491C190.709 73.035 190.463 73.1996 190.308 73.2896C190.153 73.3795 190.079 73.3886 190.069 73.3361C190.064 73.3087 190.031 73.2992 189.968 73.3167C189.905 73.3343 189.78 73.399 189.605 73.5618C189.527 73.6333 189.474 73.692 189.407 73.7583C189.33 73.8368 189.375 73.8181 189.468 73.7687C189.706 73.6416 189.922 73.5643 189.586 73.8428C189.23 74.134 188.894 74.4704 188.369 74.8039C187.878 75.0984 187.396 75.4385 186.924 75.7665C186.49 76.0692 186.247 76.2359 186.099 76.3208C185.947 76.4035 185.891 76.4071 185.836 76.3873C185.785 76.3694 185.848 76.2915 185.9 76.2121C185.972 76.1042 185.716 76.2257 185.243 76.5282C185.007 76.683 184.808 76.8215 184.542 76.955C184.241 77.1043 184.05 77.2382 183.945 77.3344C183.766 77.4997 184.161 77.3054 184.315 77.2617C184.374 77.2442 184.532 77.1452 184.582 77.0914C184.676 76.9935 184.731 76.9046 185.177 76.6867C185.402 76.5765 185.409 76.6202 185.311 76.7115C185.203 76.8102 185.093 76.9437 184.671 77.1486C184.155 77.3983 183.599 77.8674 183.139 78.0215C183.093 78.0336 182.814 78.1743 182.806 78.1797C182.467 78.4561 181.91 78.7404 181.329 79.024C180.752 79.3097 180.157 79.5991 179.684 79.8509C179.629 79.8819 179.333 79.9936 179.149 80.0668C179.142 80.0695 178.632 80.2984 178.123 80.527C177.869 80.6412 177.613 80.7555 177.422 80.8406C177.232 80.928 177.092 80.9775 177.092 80.9775C176.195 81.3997 175.164 81.7723 174.183 82.1624C173.472 82.4097 172.813 82.5914 172.02 82.9012C171.776 82.9964 171.473 83.0977 171.145 83.207C170.809 83.3098 170.445 83.4096 170.099 83.5246C169.471 83.73 168.682 83.924 168.077 84.1096C167.461 84.2889 166.904 84.4465 166.306 84.5578C164.708 85.051 162.853 85.2798 161.267 85.7262C160.6 85.823 159.924 85.9503 159.259 86.077C158.594 86.2037 157.936 86.3347 157.303 86.3972C156.5 86.4858 155.737 86.6389 155.241 86.691C154.343 86.7944 154.056 86.9387 153.07 86.9895C152.626 87.0039 151.552 87.152 150.856 87.232C149.693 87.3625 148.555 87.4476 147.498 87.5117C146.611 87.5567 145.737 87.5939 144.815 87.6502C144.035 87.7028 143.294 87.6932 142.592 87.7921C142.288 87.8329 141.617 87.8603 141.369 87.817C141.178 87.7798 140.916 87.8182 140.612 87.836C140.069 87.8701 139.68 87.8491 139.855 87.8088C140.217 87.7276 139.93 87.6863 139.468 87.637C139.153 87.6023 139.298 87.5316 139.199 87.4796C139.187 87.4734 138.931 87.4723 138.793 87.4758C138.68 87.4802 138.481 87.5023 138.471 87.5037C139.144 87.5798 138.373 87.7175 139.2 87.7916C139.6 87.8282 139.134 87.8879 138.578 87.9297C138.085 87.9678 137.626 87.9715 137.198 87.9481C136.597 87.9092 136.168 87.865 136.299 87.7927C136.336 87.7697 136.221 87.7533 135.986 87.7463C135.895 87.7655 135.761 87.7849 135.726 87.8054C135.678 87.8336 135.701 87.8623 135.699 87.8901C135.698 87.9364 135.379 87.955 134.896 87.9602C134.223 87.9672 133.608 87.9846 132.951 87.9976C132.261 88.0149 131.58 87.9326 130.95 87.9325C130.26 87.9359 129.608 87.99 129.128 87.884C128.969 87.8494 128.729 87.875 128.662 87.8904C128.462 87.9368 128.129 87.9147 127.687 87.9036C126.661 87.8828 125.578 87.8144 124.649 87.8734C123.922 87.9182 123.344 87.8344 122.936 87.7982C122.471 87.7561 122.566 87.7297 121.852 87.7576C121.117 87.7845 119.861 87.7377 118.827 87.6457C118.222 87.591 117.506 87.5218 116.651 87.5696C116.261 87.5924 115.224 87.5097 114.466 87.5125C113.64 87.5169 112.921 87.3929 112.116 87.3868C111.311 87.3808 110.684 87.3688 109.79 87.3009C108.91 87.2322 107.774 87.2199 106.826 87.1922C105.089 87.1367 103.416 87.0775 101.693 87.0119C100.199 86.9653 98.6213 86.8984 97.1487 86.9129C96.743 86.9158 96.3587 86.9221 95.9695 86.901C95.434 86.8722 94.9646 86.8187 94.4229 86.8065C94.0272 86.795 94.0429 86.882 93.3974 86.8597C92.7232 86.8345 92.0497 86.8274 91.3768 86.8252C90.7044 86.8298 90.0358 86.839 89.3628 86.8345C89.1136 86.8329 88.8572 86.8342 88.6185 86.8297C87.8198 86.8071 87.0375 86.9403 86.3855 86.8699C86.0168 86.8314 86.236 86.7494 86.1611 86.6868C86.1492 86.6759 86.0034 86.666 85.9211 86.657C85.8404 86.6709 85.7027 86.6836 85.6885 86.6959C85.6443 86.7308 85.6676 86.7665 85.6343 86.8031C85.5307 86.9177 85.5054 86.9124 84.1595 86.9056C83.5509 86.9066 83.0816 86.9177 82.5434 86.9654C81.945 87.0166 81.6121 86.9855 81.3649 86.9584C81.0891 86.9283 81.4569 86.8905 81.7788 86.8577C82.0124 86.8348 82.271 86.8129 82.5152 86.7893C81.9884 86.7901 81.461 86.779 80.9244 86.7942C80.8995 86.7934 80.7135 86.8369 80.6578 86.8587C80.4942 86.9214 80.9878 86.964 79.9468 87.0549C79.1747 87.1209 78.6387 87.1452 77.8743 87.1599C76.886 87.1808 75.7207 87.2794 74.6924 87.2864C74.4717 87.2855 73.8837 87.3334 73.5902 87.3667C72.784 87.4555 71.6645 87.484 71.1686 87.4669C70.3946 87.4382 70.1297 87.4748 69.6767 87.5175C69.012 87.5333 68.348 87.5652 67.6863 87.5716C66.8251 87.5734 66.0127 87.5608 65.0814 87.5829C63.8642 87.5848 62.5136 87.6177 61.3077 87.5103C60.4454 87.436 59.719 87.492 58.9314 87.4757C58.1255 87.4512 57.4944 87.4328 56.6013 87.3765C55.7578 87.3172 54.8818 87.2553 53.999 87.1937C53.1166 87.139 52.2286 87.0548 51.3526 86.9882C50.6556 86.9388 49.8772 86.8408 49.1211 86.7557C48.3653 86.6728 47.6397 86.5604 47.0572 86.4604C46.8632 86.4279 46.6423 86.3669 46.4504 86.3711C45.8359 86.3932 44.861 86.1661 44.1053 86.0878C43.2714 86.0095 42.5764 85.8146 41.8099 85.6746C41.1051 85.5518 40.3842 85.3998 39.6579 85.276C39.2013 85.1987 38.5538 85.0885 38.2313 84.9918C37.6557 84.8291 37.0986 84.6791 36.5356 84.548C35.9754 84.4052 35.4123 84.2763 34.8153 84.1725C34.2374 84.0307 33.6788 83.8579 33.1106 83.6994L32.2632 83.4551L31.4288 83.1919C30.8758 82.9885 30.1976 82.779 29.6822 82.6104C29.2835 82.4882 28.8879 82.3564 28.4921 82.2224C28.0994 82.0836 27.7164 81.9301 27.3304 81.784C26.5481 81.497 25.8096 81.1707 25.0557 80.8843C24.9245 80.8319 24.7711 80.7645 24.6394 80.7052C24.026 80.4453 23.6488 80.2086 23.1178 79.9577C22.2481 79.5119 22.8279 79.6972 22.671 79.5634C22.5999 79.5051 22.4739 79.422 22.2469 79.3151C22.0016 79.2 21.9699 79.2044 22.056 79.2756C22.344 79.5128 22.1633 79.4728 21.306 79.0608C20.7848 78.7955 20.2648 78.5485 19.7685 78.2817C19.2787 78.0053 18.7957 77.724 18.3388 77.4018C18.0147 77.1574 17.7776 77.0602 17.5195 76.909C16.9782 76.601 16.6927 76.4119 16.5281 76.2783C16.36 76.1449 16.3158 76.064 16.284 75.948C16.2755 75.9232 16.3334 75.9381 16.3138 75.9047C16.2978 75.8756 16.2152 75.8063 16.1623 75.7539C16.0928 75.7233 15.9788 75.6629 15.9575 75.6642C15.7701 75.6844 15.4967 75.5201 14.6605 74.8642C13.9695 74.3132 13.705 74.1112 13.6904 73.985C13.6862 73.9115 13.7714 73.911 13.7783 73.8483C13.7799 73.818 13.6809 73.7104 13.487 73.5578C13.3078 73.4181 13.211 73.35 13.1724 73.3592C13.1478 73.3652 13.1043 73.3493 13.0982 73.3681C13.0604 73.5112 12.8743 73.4897 11.9369 72.6293C11.5288 72.3505 11.119 71.9886 10.7337 71.6136C10.3693 71.2306 10.0259 70.837 9.73187 70.5007C9.37438 70.0548 8.9901 69.6403 8.63766 69.2195C8.29574 68.7958 7.92276 68.3902 7.60882 67.958C6.88307 67.0023 6.8796 67.0046 6.91597 66.7184C6.92088 66.6812 6.88696 66.5882 6.86881 66.5222C6.80577 66.4797 6.73447 66.419 6.68317 66.3943C6.53283 66.3199 6.31135 66.1274 6.10779 65.8759C5.9113 65.6239 5.71499 65.3162 5.58726 65.0232C5.33552 64.4395 5.09932 64.1183 4.81267 63.726C4.53636 63.3285 4.49491 63.1713 4.55985 63.1259C4.61796 63.0856 4.69601 63.0786 4.75369 63.0313C4.77717 63.0112 4.75302 62.9064 4.64939 62.7164C4.42613 62.3114 4.50811 62.5557 4.50873 62.6252C4.50765 62.7269 4.49503 62.8132 4.35749 62.6548C4.18954 62.4636 4.02545 62.2815 3.86705 62.0713C3.85146 62.049 3.78518 61.8911 3.75544 61.8097C3.67426 61.5811 3.56814 61.3469 3.45819 61.1131C3.35175 60.879 3.24511 60.6423 3.14263 60.4148C2.93499 59.9741 2.88136 59.5521 2.61962 59.0984C2.55631 58.9912 2.51231 58.7947 2.52704 58.743C2.55072 58.6631 2.52151 58.5309 2.40589 58.3205C2.18279 57.9199 1.96746 57.5326 1.97626 57.0814C1.97952 56.9564 1.91558 56.8353 1.86454 56.695C1.69942 56.2517 1.56193 55.7976 1.44579 55.3399L1.26668 54.6545C1.21401 54.4266 1.15752 54.1965 1.10485 53.9686C1.02475 53.6382 0.952578 53.3259 0.962615 53.0757C0.963559 52.9717 0.952883 52.7321 0.940474 52.7026C0.654731 51.966 0.687328 51.2522 0.57009 50.5358C0.473701 49.8712 0.37657 49.1925 0.281274 48.5464C0.164026 47.8299 0.163963 47.1158 0.119691 46.4297C0.0900164 45.7497 0.0630906 45.1111 0.0324594 44.415C-0.0206678 43.7595 0.0119393 43.0527 0 42.3717C0.00798308 41.7265 0.040143 41.0705 0.0167477 40.4363C0.00294527 40.1436 0.023129 39.7034 0.108619 39.3448C0.335534 38.3101 0.422672 37.1978 0.429114 36.1668C0.42607 35.5754 0.541567 35.0024 0.617493 34.4226C0.72164 33.6585 0.860496 32.9364 1.05522 32.1994C1.21082 31.5825 1.31565 30.7095 1.56938 30.3665C1.5859 30.3446 1.62602 30.183 1.64511 30.0849C1.70291 29.7996 1.67768 29.4358 1.8031 29.2712C1.95178 29.0776 2.07389 29.0936 2.12631 29.3771C2.20453 29.7954 2.3254 29.675 2.61988 28.939C2.65097 28.8632 2.6804 28.7552 2.7104 28.6611C2.69995 29.0821 2.89083 28.7854 2.91305 29.1063C2.95254 28.9308 2.99229 28.7551 3.03298 28.5798C3.30511 27.4073 3.62871 26.2902 3.99826 25.2252C4.0099 25.0809 4.00267 24.976 4.0086 24.8624C4.00942 24.8161 3.9198 24.9322 3.86456 25.0209C3.83804 25.0553 3.78217 25.2501 3.77183 25.3153C3.7393 25.5458 3.79866 25.5886 3.66102 26.0262C3.5469 26.3818 3.49302 26.8517 3.34563 26.7659C3.23513 26.703 3.11436 27.0706 3.01769 27.6008C2.99097 27.7503 2.97773 27.8898 2.94051 28.0421C2.87001 28.3536 2.81561 28.3339 2.75668 28.4205C2.7043 28.4975 2.63706 28.6884 2.66595 28.3955C2.72251 27.8491 2.81169 27.1901 2.60735 27.2852C2.55542 27.309 2.58302 26.9977 2.66126 26.6974C2.76517 26.3494 2.83429 26.068 2.85924 25.8285C2.88295 25.5683 2.95005 25.1992 2.6879 25.8802C2.61984 26.0528 2.52832 26.1965 2.4623 26.2836C2.41592 26.3418 2.3861 26.3159 2.37231 26.2635C2.35809 26.2018 2.41936 25.9789 2.47606 25.8555C2.71503 25.3238 2.85548 24.8671 2.9452 24.3996C3.00673 24.0563 3.21154 23.4875 3.38311 23.2001C3.65945 22.7588 3.7613 22.2581 4.01638 21.878C4.05845 21.8061 4.20501 21.5158 4.1915 21.4681C4.14596 21.2997 4.44737 20.7461 4.64243 20.4342C4.87951 20.0506 5.14517 19.6674 5.37475 19.2772C5.60061 18.885 5.86273 18.5002 6.12815 18.1149C6.28881 17.8837 6.44914 17.6476 6.62452 17.4248C6.80705 17.2015 6.97998 16.9903 7.12853 16.7944C7.83092 15.8543 8.76413 14.9074 9.48752 14.0817C9.76042 13.763 10.0822 13.4878 10.3787 13.207C10.6717 12.9264 10.9837 12.6584 11.2798 12.3707C11.549 12.1077 11.8905 11.8057 12.2721 11.52C12.6501 11.2321 13.0025 10.9317 13.3111 10.6733C13.8431 10.3417 14.3363 9.957 14.8739 9.59972C15.1409 9.42003 15.3969 9.23414 15.6788 9.06744C15.9573 8.90093 16.2399 8.7435 16.5302 8.5971C17.854 7.7524 19.2987 7.02521 20.8251 6.41592C20.9469 6.3695 21.145 6.28385 21.2557 6.22884C21.681 6.01908 22.1189 5.77854 22.6401 5.62557C23.084 5.49105 22.8446 5.65315 22.9694 5.6574C23.0015 5.65782 23.0829 5.65075 23.1559 5.62342C23.4379 5.51679 23.4468 5.48833 23.4351 5.47053C23.4119 5.43956 23.3955 5.40353 23.3898 5.36692C23.3804 5.32819 23.606 5.22725 23.9509 5.10077C24.1041 5.04328 24.2576 4.98801 24.4108 4.93052C25.9234 4.38906 27.4968 3.85085 29.0443 3.47606C30.4186 3.00278 32.0027 2.64657 33.4973 2.27949C33.9777 2.15895 34.4316 2.06987 34.9134 1.97235C36.1029 1.74329 37.3323 1.46349 38.5264 1.19255C40.027 0.86671 41.5624 0.705364 42.8731 0.598626C44.0069 0.511481 44.8787 0.446396 45.9086 0.346846ZM143.585 87.26C143.409 87.2819 143.15 87.3041 143.063 87.3254L143.059 87.3256C142.803 87.3891 143.409 87.3373 143.63 87.3452L144.249 87.2904L143.585 87.26ZM146.042 87.1484C145.847 87.1621 145.663 87.1871 145.458 87.2083C145.726 87.2181 146.031 87.2003 146.343 87.1751C146.523 87.1599 146.845 87.1362 146.656 87.1242C146.567 87.1179 146.251 87.1339 146.042 87.1484ZM140.971 87.4085C140.78 87.4266 140.556 87.4326 140.51 87.4422C140.366 87.4714 140.665 87.4678 140.861 87.4656C141.01 87.4638 141.167 87.4638 141.305 87.4626C141.586 87.4646 141.742 87.4488 141.762 87.4246C141.772 87.4125 141.703 87.3979 141.6 87.397L141.604 87.3968C141.404 87.3946 141.156 87.4046 140.971 87.4085ZM154.745 86.5401L154.748 86.5399C154.606 86.5596 154.397 86.6071 154.635 86.5596C154.052 86.6773 154.064 86.6836 154.289 86.6636C154.516 86.6457 154.791 86.6064 154.899 86.5677C154.986 86.5395 154.999 86.5091 154.745 86.5401ZM152.351 86.6336C152.311 86.6175 152.172 86.6165 151.872 86.6549C151.6 86.6916 151.455 86.7184 151.676 86.7147L151.672 86.7176C151.818 86.7137 152.021 86.7018 152.209 86.6908C152.271 86.6663 152.373 86.6416 152.351 86.6336ZM155.389 86.2478C155.268 86.2341 154.95 86.2784 154.625 86.3251C153.99 86.4085 153.85 86.4537 153.912 86.4939L153.916 86.4914C153.941 86.5061 153.982 86.5223 154.3 86.483C154.812 86.4206 155.5 86.2576 155.389 86.2478ZM135.075 87.5017C134.908 87.5091 134.76 87.5382 134.793 87.5547C134.83 87.5734 135.184 87.5993 135.223 87.597L135.223 87.5992C135.712 87.566 136.173 87.5365 136.63 87.5051C136.623 87.4778 135.539 87.4745 135.075 87.5017ZM133.335 87.5202C133.113 87.5517 132.292 87.521 132.378 87.5853C132.589 87.6007 132.765 87.623 132.968 87.6249C133.285 87.6295 133.821 87.5539 133.699 87.5311C133.602 87.5136 133.434 87.5075 133.335 87.5202ZM148.595 86.6146C148.353 86.6348 148.11 86.6545 147.867 86.6735C148.074 86.6641 148.295 86.6486 148.517 86.6247C148.543 86.6219 148.569 86.6179 148.595 86.6146ZM151.653 86.3249C151.427 86.3489 151.202 86.3724 150.976 86.3953C151.172 86.387 151.39 86.3673 151.653 86.3249ZM128.616 87.4726C128.36 87.4738 128.2 87.4833 128.251 87.508C128.253 87.5309 128.411 87.5448 128.671 87.5504C129.133 87.5602 129.186 87.534 129.138 87.5067C129.098 87.486 128.865 87.4742 128.612 87.4728L128.616 87.4726ZM159.859 85.5079C159.577 85.5567 159.398 85.6022 159.442 85.6205L159.438 85.6207C159.46 85.6286 159.567 85.6221 159.631 85.623C159.972 85.5522 160.133 85.5014 160.279 85.4489C160.138 85.4688 159.999 85.4835 159.859 85.5079ZM122.092 87.5401C122.179 87.5697 121.975 87.6072 122.567 87.6326C122.699 87.6387 122.852 87.632 122.994 87.6329C122.764 87.5932 122.825 87.5478 122.361 87.5126C122.349 87.511 122.205 87.5289 122.092 87.5401ZM163.195 84.8646C163.135 84.8681 163.056 84.8679 162.961 84.8873L162.962 84.8922C162.729 84.9359 162.487 84.9916 162.251 85.0401C162.016 85.0908 161.77 85.1397 161.545 85.1922C161.348 85.236 161.18 85.2898 160.998 85.3282C161.21 85.2996 161.418 85.2622 161.629 85.2198C162.096 85.1186 162.567 85.0146 163.038 84.9131C163.097 84.8981 163.205 84.864 163.195 84.8646ZM163.587 84.985C163.502 85.0015 163.403 85.019 163.34 85.0342C163.088 85.0928 162.948 85.14 162.991 85.1537C163.009 85.1595 163.144 85.1403 163.229 85.1307C163.53 85.0531 163.704 84.9942 163.734 84.9601C163.73 84.9606 163.668 84.969 163.587 84.985ZM167.09 83.9204C166.957 83.9467 166.822 83.9681 166.689 84.0013L164.329 84.597C164.202 84.6252 164.084 84.6646 163.965 84.697C164.099 84.6753 164.233 84.6582 164.37 84.6294L164.377 84.629C164.77 84.5367 165.163 84.4305 165.555 84.3313C165.948 84.232 166.341 84.1305 166.733 84.0313C166.86 83.9985 166.971 83.9574 167.09 83.9204ZM117.468 87.1243C117.08 87.11 116.812 87.105 116.899 87.13C116.936 87.1394 117.299 87.1549 117.517 87.1653C117.717 87.1744 118.02 87.1822 117.929 87.1552C117.889 87.1437 117.533 87.1275 117.468 87.1243ZM170.4 82.9639C170.116 82.9854 169.585 83.1943 169.245 83.2789C168.888 83.3852 168.577 83.4796 168.265 83.5718C168.126 83.6145 167.906 83.685 167.875 83.7031C167.768 83.7648 168.058 83.6765 168.244 83.6286C168.531 83.554 168.795 83.4946 169.089 83.415C169.579 83.2801 170.019 83.1388 170.314 83.0083C170.347 82.9934 170.393 82.9714 170.4 82.9639ZM175.425 81.1976C175.341 81.221 175.253 81.2378 175.173 81.2702C174.77 81.4278 174.373 81.585 173.984 81.7395C173.583 81.8831 173.177 82.0062 172.779 82.1266C172.464 82.2213 172.225 82.3395 172.118 82.4035C171.902 82.5338 172.404 82.3473 172.617 82.2771L172.62 82.2747C172.993 82.1488 173.377 82.013 173.753 81.8801C174.203 81.7174 174.633 81.5329 175.071 81.3594C175.196 81.3081 175.307 81.2507 175.425 81.1976ZM173.505 81.4809C173.237 81.5806 172.967 81.6786 172.698 81.775C172.717 81.7695 172.737 81.7638 172.757 81.7584C172.921 81.7118 173.232 81.6197 173.337 81.5766C173.474 81.5208 173.506 81.4956 173.505 81.4809ZM80.3738 86.5701C80.3142 86.5851 80.2011 86.6034 80.2089 86.6145C80.2168 86.6256 80.335 86.6415 80.4201 86.6366L80.4198 86.6321C81.1544 86.596 81.8975 86.5806 82.3595 86.5674C83.2192 86.5402 83.802 86.522 84.3812 86.5043C84.6012 86.4937 84.8215 86.4857 85.0414 86.4729C84.9336 86.4561 84.6881 86.4586 84.4956 86.4537C83.8297 86.4464 83.1302 86.4737 82.4308 86.5031C81.7312 86.5301 81.0352 86.5591 80.3738 86.5701ZM78.2369 86.7322C78.4325 86.73 78.6251 86.7348 78.8239 86.7254C79.0652 86.7136 79.4703 86.7038 79.436 86.6666L79.4324 86.6668C79.4254 86.658 79.0543 86.6705 78.8277 86.6746C78.619 86.696 78.4279 86.7141 78.2369 86.7322ZM76.7652 86.765C76.379 86.7945 75.9819 86.8247 75.5957 86.8542C75.4577 86.8669 75.3448 86.8827 75.2212 86.8969C75.2817 86.898 75.3318 86.9044 75.4026 86.9003C75.957 86.8841 76.5219 86.8626 77.0203 86.8034C77.1086 86.7936 77.1321 86.7713 77.1066 86.7613C77.07 86.7473 76.9315 86.7506 76.7652 86.765ZM69.1101 87.0931C68.9681 87.0991 68.8408 87.1133 68.7062 87.1235C68.8416 87.1271 69.0057 87.1292 69.1059 87.1372C70.0605 87.2084 71.3597 87.0284 72.3484 87.0745C72.406 87.078 72.9119 87.0322 73.195 87.0064C73.3295 86.9939 73.4499 86.98 73.5522 86.9647C73.5944 86.9576 73.6113 86.9451 73.5791 86.9424C73.5146 86.9346 73.3538 86.9252 73.3219 86.9271C72.6454 86.9829 71.9425 87.015 71.232 87.0381C70.5209 87.052 69.8095 87.061 69.1134 87.0879L69.1101 87.0931ZM175.429 80.7316C175.201 80.8243 174.973 80.9158 174.744 81.0059C174.815 80.9909 174.916 80.9617 175.087 80.8964L175.087 80.8986C175.193 80.8573 175.313 80.7925 175.429 80.7316ZM66.0761 87.125C65.8948 87.1287 65.5211 87.1344 65.7577 87.1622C65.8797 87.1782 66.1836 87.2019 66.2653 87.1971C66.7089 87.1758 67.153 87.161 67.6439 87.1554L67.6475 87.1552C67.7435 87.1541 67.8315 87.14 67.927 87.1298C67.7843 87.1242 67.6518 87.1134 67.5167 87.1144C67.04 87.1169 66.5562 87.12 66.0761 87.125ZM85.2865 86.0452C85.4041 86.0603 85.6594 86.0573 85.8924 86.0577C86.2224 86.0527 86.4981 86.0415 86.7138 86.025C86.237 86.0305 85.7612 86.0365 85.2865 86.0452ZM79.6689 86.2329C79.7562 86.2516 80.007 86.2563 80.2763 86.2475C80.589 86.2385 80.8976 86.2206 81.2026 86.2028C81.5078 86.1873 81.8133 86.1738 82.1184 86.1583C82.7288 86.1272 83.339 86.0941 83.9714 86.0756C83.9762 86.0755 83.9816 86.0739 83.9876 86.0733C82.537 86.1094 81.097 86.1616 79.6689 86.2329ZM62.9927 87.1757C63.3539 87.2054 63.52 87.2396 63.8646 87.2286C64.2127 87.2175 64.4889 87.1922 64.7688 87.1712C64.8431 87.1669 64.8704 87.1469 64.8134 87.141C64.7168 87.1328 64.4989 87.1247 64.3924 87.1286L64.3921 87.1241C63.9411 87.1412 63.5112 87.1569 62.9927 87.1757ZM77.8925 86.3318C77.7018 86.3436 77.5115 86.3536 77.3216 86.3648C77.4662 86.3807 77.6912 86.3852 77.9449 86.3704C78.1362 86.3569 78.4784 86.3113 78.4464 86.3039C78.4417 86.3029 78.4373 86.3008 78.433 86.2998C78.2526 86.3102 78.0724 86.3207 77.8925 86.3318ZM179.348 79.5283C179.43 79.4704 179.47 79.4241 179.23 79.5189C178.983 79.6166 178.694 79.7214 178.469 79.8294C177.967 80.069 177.487 80.3122 176.999 80.5534C177.326 80.4719 177.843 80.1875 178.249 80.0181L178.249 80.0154C178.509 79.9101 178.763 79.8077 179.003 79.7081C179.138 79.6402 179.307 79.5584 179.348 79.5283ZM62.1934 86.7056C62.2408 86.7137 62.371 86.7229 62.6389 86.732C62.9492 86.7416 64.1116 86.7729 65.2942 86.7869C66.4795 86.7868 67.6825 86.7835 68.0767 86.7674C69.0523 86.7149 69.8727 86.6856 70.9162 86.6962C71.3296 86.708 72.4631 86.6682 72.9407 86.5818C69.1791 86.7291 65.5991 86.768 62.1934 86.7056ZM59.1288 87.0807C59.0792 87.0859 59.3092 87.1212 59.4845 87.1363C59.9671 87.1751 59.9218 87.1289 60.0811 87.115C60.3185 87.0965 60.614 87.1 60.9075 87.129C61.3515 87.1724 61.6236 87.1358 61.9871 87.1423C62.1296 87.1455 62.257 87.1332 62.3919 87.1276C62.2633 87.119 62.1416 87.1077 62.0024 87.102L61.9988 87.1022C61.76 87.0954 61.5139 87.0867 61.2682 87.0826C60.7833 87.0694 60.2798 87.0479 59.8133 87.0452C59.5428 87.0425 59.288 87.0645 59.1288 87.0807ZM59.7493 86.6411C59.7808 86.6451 59.8276 86.6504 59.8935 86.6548C60.2037 86.6758 60.6299 86.6836 60.9751 86.6783C60.5639 86.6677 60.1553 86.6547 59.7493 86.6411ZM53.8219 86.7257C53.4116 86.7035 52.9752 86.6644 53.0131 86.7174L53.0169 86.7194C53.0476 86.7569 53.4197 86.7883 53.6272 86.8062C53.8951 86.8229 54.0597 86.8343 54.2168 86.8436C54.5238 86.8603 54.8737 86.8836 54.9074 86.8471C54.9443 86.8102 54.6261 86.7849 54.3043 86.7598C54.1435 86.7485 53.9791 86.7373 53.8219 86.7257ZM41.3429 84.7406C41.4164 84.7589 41.5015 84.7824 41.6022 84.8131C41.9176 84.9102 42.3678 84.997 42.8637 85.0766C43.8169 85.245 44.9048 85.3408 45.7291 85.4959C46.8005 85.6758 47.7043 85.7873 48.7132 85.8738C48.8955 85.8863 49.2504 85.9303 49.3728 85.9555C49.6539 86.013 49.8045 86.0917 50.3307 86.0817C50.96 86.0703 51.1043 86.2193 51.4561 86.208C51.7757 86.1985 51.8594 86.168 52.5338 86.2602C53.4636 86.393 54.4181 86.4597 55.3751 86.51C56.329 86.5697 57.291 86.5828 58.2467 86.6123C58.5946 86.6231 58.7941 86.6229 58.8394 86.6084C52.36 86.3534 46.5467 85.7146 41.3429 84.7406ZM181.45 77.9045C180.346 78.4987 179.224 79.0577 178.086 79.5818C178.376 79.491 178.876 79.2687 179.338 79.0505C179.771 78.8496 180.116 78.6676 180.5 78.4833C180.794 78.339 181.275 78.0473 181.418 77.9349C181.436 77.9211 181.446 77.9108 181.45 77.9045ZM181.281 78.5692C181.442 78.4697 181.476 78.4402 181.272 78.5376C180.888 78.7242 180.588 78.8295 180.161 79.0625C179.951 79.1764 179.834 79.2569 179.905 79.2529C180.042 79.2264 180.952 78.7734 181.281 78.5692ZM50.081 86.6696C50.0273 86.6636 49.9676 86.6785 49.9111 86.6841C49.9134 86.7233 50.225 86.7583 50.5329 86.7888C50.6044 86.7961 50.7388 86.7905 50.7141 86.7804C50.6231 86.7465 50.4032 86.7039 50.0773 86.6699L50.081 86.6696ZM46.6679 86.0233C46.6619 86.0307 46.9274 86.0709 47.0318 86.0925C47.3745 86.1695 47.8224 86.2193 48.2272 86.2626C48.6315 86.3014 48.9923 86.3241 49.1581 86.3583C50.0227 86.5319 50.9327 86.5687 51.788 86.6457C52.1032 86.6781 52.4348 86.6911 52.4003 86.6492C52.3613 86.6077 52.0009 86.5804 51.6899 86.5502C51.282 86.514 50.8741 86.4798 50.5171 86.4614C49.8607 86.4352 50.1543 86.3485 49.5367 86.3153C49.1547 86.2961 48.7535 86.2573 48.3521 86.2115C47.9504 86.1587 47.5449 86.1015 47.1507 86.0552C46.9106 86.0277 46.6881 86.0037 46.6679 86.0233ZM39.0049 84.7155C39.0364 84.7668 39.5688 84.8582 39.9184 84.9302C40.473 85.0387 41.0322 85.1655 41.5888 85.2484C42.2788 85.3583 42.8476 85.4636 43.3059 85.5685C43.7709 85.6684 44.125 85.7587 44.3834 85.8545C44.3487 85.8681 44.3318 85.8849 44.2757 85.8974C44.2019 85.9133 43.3136 85.7574 43.7731 85.883C43.9323 85.9268 44.3175 86.0014 44.5939 86.0407C45.1899 86.1283 44.9142 86.0382 44.9805 86.0181C45.061 85.9949 45.0264 85.9531 44.5978 85.8696C44.6562 85.8338 44.218 85.7021 45.1978 85.8435C45.4562 85.8792 45.7361 85.9739 45.9486 85.9569C46.0975 85.9459 45.7628 85.8845 45.4567 85.8238C44.9669 85.7277 44.573 85.6282 43.9473 85.5816C43.5258 85.5554 42.9442 85.4093 42.6175 85.3637C42.1294 85.2952 41.693 85.2054 41.2679 85.1194C40.8425 85.0287 40.4344 84.9297 39.9887 84.8564C39.6223 84.797 38.994 84.6979 39.0049 84.7155ZM190.66 72.4347C190.661 72.3957 190.534 72.4795 190.374 72.6065C189.765 73.0789 189.168 73.5183 188.699 73.9548C188.576 73.9713 188.27 74.2178 188.004 74.4183C187.289 74.9061 186.531 75.4426 185.858 75.8633C185.629 76.0154 185.387 76.15 185.153 76.2861C184.923 76.4244 184.697 76.5603 184.473 76.6958C184.027 76.9692 183.587 77.2397 183.141 77.5153C182.949 77.5774 182.694 77.7219 182.395 77.9058C182.254 77.9949 182.253 78.0294 182.426 77.9546C182.722 77.8311 182.818 77.7237 183.052 77.5829C183.239 77.4981 183.403 77.4421 183.62 77.3232C183.996 77.1209 184.53 76.6922 184.796 76.6697C184.845 76.6645 184.989 76.5775 185.074 76.5056C185.624 76.062 186.484 75.4847 187.254 75.0283L187.261 75.0256C187.591 74.826 187.851 74.6539 188.076 74.4882C188.29 74.3139 188.476 74.1505 188.679 73.9745C188.815 73.9227 189.022 73.8064 189.306 73.6118C189.424 73.3877 189.862 73.0869 190.388 72.7188C190.538 72.606 190.662 72.4739 190.66 72.4347ZM190.656 71.7187C190.663 71.6882 190.619 71.7127 190.551 71.7619C188.9 73.1629 187.097 74.4958 185.139 75.7439C184.376 76.2303 183.603 76.6957 182.821 77.1434C183.17 76.9943 183.604 76.7803 183.96 76.5662C184.39 76.3054 184.664 76.132 185.093 75.9198C185.6 75.659 185.643 75.4807 186.061 75.2021C186.297 75.0404 186.566 74.8397 186.762 74.7242C187.017 74.573 187.268 74.4174 187.515 74.262C187.758 74.1021 187.983 73.9318 188.211 73.7613C188.668 73.4204 189.117 73.0661 189.561 72.6935C189.653 72.6234 189.839 72.4715 189.968 72.3554C190.235 72.1225 190.631 71.8334 190.656 71.7187ZM37.4918 83.9341C37.5378 83.9522 37.5762 83.9705 37.6093 83.9882C37.8738 84.1253 38.3712 84.2301 39.0296 84.3487C39.2596 84.3861 39.6642 84.425 39.7993 84.4818C40.1097 84.6139 40.3859 84.6487 40.7255 84.6727C40.8508 84.6797 40.9364 84.6732 41.0642 84.6877C39.8397 84.4547 38.6491 84.2036 37.4918 83.9341ZM36.8018 84.4144C36.857 84.4458 36.8984 84.4804 37.047 84.5249C37.1811 84.5655 37.5338 84.6419 37.5327 84.6145C37.5316 84.596 37.2995 84.5262 37.1685 84.4784C37.0929 84.4643 37.0027 84.4469 36.9273 84.4351C36.8533 84.4236 36.8036 84.4147 36.8018 84.4144ZM27.0853 81.1305C26.6665 80.9701 26.1293 80.736 26.2326 80.8571C26.3011 80.9271 26.6023 81.0828 27.1692 81.2852C27.9255 81.5552 28.6761 81.8488 29.4601 82.1057C29.8488 82.2378 30.238 82.3719 30.6268 82.5063L31.8168 82.8852C32.0633 82.9609 32.3589 83.0823 32.6453 83.1718C32.9353 83.2611 33.2098 83.3303 33.4053 83.3258C33.785 83.4261 34.13 83.5401 34.4747 83.6517C34.8228 83.7607 35.1701 83.8535 35.5376 83.929C36.1571 84.0522 36.8319 84.2646 37.4095 84.3418C37.589 84.3682 37.8449 84.4181 37.6305 84.3451C37.4962 84.2998 37.2459 84.2199 37.1378 84.1985C36.2881 84.0356 35.4563 83.816 34.6146 83.6064C33.7924 83.3679 32.9565 83.1398 32.1548 82.8862C31.3677 82.6388 30.5671 82.4036 29.8 82.1319C29.4112 81.9998 29.0189 81.87 28.6405 81.7304L27.5147 81.2903L27.0853 81.1305ZM32.5856 82.6263C32.8249 82.6998 33.0481 82.7793 33.2358 82.8714C33.7911 82.9914 34.3894 83.1689 34.9937 83.3346C35.5443 83.4773 36.0949 83.6197 36.6119 83.7237C35.2211 83.384 33.8795 83.0177 32.5856 82.6263ZM30.1404 81.838C30.4081 81.9392 30.6722 82.0452 30.93 82.1603C30.9809 82.1781 31.1868 82.2265 31.3101 82.2655C31.7054 82.3882 32.1479 82.4938 32.5485 82.615C31.7267 82.3659 30.924 82.107 30.1404 81.838ZM192.746 71.0023C192.803 70.8955 192.492 71.206 192.47 71.2151C192.162 71.4803 192.006 71.6141 191.857 71.7407C191.779 71.8099 191.729 71.8729 191.666 71.9391C191.758 71.8736 191.861 71.8074 191.939 71.7381C192.223 71.4858 192.67 71.1661 192.746 71.0023ZM22.6864 78.711C22.7427 78.7472 22.8734 78.8141 22.9565 78.8575C23.2356 79.003 23.5216 79.1461 23.8113 79.2886L24.7075 79.6961C25.0039 79.8335 25.2968 79.9689 25.5896 80.1043C25.8856 80.2348 26.1711 80.3659 26.4461 80.5023C26.5231 80.5417 26.7013 80.6009 26.8325 80.6533C27.493 80.9266 28.2073 81.1435 28.8878 81.3949C28.905 81.4007 28.9223 81.4063 28.9394 81.4122C26.6963 80.5925 24.6148 79.6898 22.6864 78.711ZM192.235 71.104C192.292 71.0314 192.245 71.0224 192.058 71.1673C191.742 71.4146 191.584 71.5905 191.475 71.7309C191.368 71.8456 191.396 71.8392 191.553 71.7169C191.828 71.4998 192.103 71.2689 192.235 71.104ZM192.85 69.887C192.991 69.7309 192.995 69.6869 192.923 69.7258C192.773 69.8087 192.514 70.028 192.269 70.2294C191.872 70.6017 191.466 70.9698 191.049 71.3335C191.055 71.3374 191.061 71.3406 191.065 71.3457C191.084 71.3746 191.162 71.361 191.4 71.1715L191.4 71.1737C191.529 71.0714 191.654 70.9648 191.783 70.8556C191.908 70.7443 192.022 70.6264 192.14 70.5132C192.376 70.2868 192.612 70.0673 192.85 69.887ZM195.451 67.1628C195.381 67.1415 195.293 67.1606 195.166 67.2387C194.728 67.7377 194.273 68.2307 193.803 68.7175L193.625 68.973L193.474 69.0673C193.473 69.0644 193.472 69.0608 193.472 69.0566C193.352 69.1782 193.232 69.3001 193.11 69.421C193.152 69.4015 193.169 69.4121 193.152 69.4601C193.057 69.7175 193.732 69.031 193.955 68.8285C194.22 68.6121 194.049 68.6613 194.093 68.5735C194.138 68.4877 194.176 68.4183 194.329 68.2938C194.587 68.0823 194.971 67.5882 195.182 67.4834C195.203 67.4729 195.244 67.4444 195.281 67.4165L195.352 67.3581C195.465 67.2174 195.486 67.1608 195.451 67.1628ZM20.299 78.0449C20.2608 78.0565 20.5073 78.1923 20.6687 78.2729C20.8739 78.3741 20.942 78.3793 20.9293 78.3454L20.9257 78.3456C20.9167 78.316 20.8133 78.2553 20.6193 78.1628C20.5392 78.1328 20.327 78.0364 20.299 78.0449ZM198.283 63.2903C198.302 63.2399 198.293 63.2285 198.266 63.2424C198.007 63.6249 197.738 64.0048 197.462 64.3824C197.337 64.594 197.196 64.8121 197.04 65.0337C196.787 65.3904 196.458 65.7453 196.123 66.1111C196.003 66.2582 195.881 66.4049 195.758 66.5511C195.762 66.5469 195.766 66.543 195.77 66.5387C195.85 66.4439 195.93 66.3464 196.009 66.2516C195.981 66.3087 195.972 66.3486 195.923 66.423C195.819 66.5815 195.613 66.8221 195.677 66.8304C195.741 66.8359 195.914 66.625 196.07 66.438C196.373 66.0783 196.668 65.7234 196.971 65.3661C197.263 65.0046 197.522 64.6266 197.794 64.2385C198.237 63.6003 198.19 63.5313 198.283 63.2903ZM16.064 74.6342C16.0558 74.6708 16.1049 74.7496 16.2054 74.862C16.3969 75.0888 16.8711 75.2806 17.2623 75.5743C17.4039 75.6815 17.5926 75.8047 17.7592 75.9151C18.0109 76.0805 18.3885 76.3306 18.4214 76.276C18.4227 76.2738 18.4218 76.2713 18.4214 76.2683C17.6017 75.7396 16.8162 75.1946 16.064 74.6342ZM198.111 64.7192C198.101 64.669 197.894 64.9003 197.772 65.0669L197.775 65.0667C197.66 65.2213 197.592 65.3898 197.48 65.5465C197.674 65.3896 197.749 65.3966 197.97 65.1064C198.039 65.0146 198.121 64.7789 198.111 64.7192ZM14.66 74.3723C15.2023 74.6941 15.5953 75.1379 16.1197 75.4585C16.2966 75.5613 16.6072 75.758 16.4852 75.6175C16.4244 75.5518 16.1887 75.3532 16.1735 75.3445C15.7166 75.0824 15.1803 74.619 14.7445 74.3533L14.7477 74.3531C14.6739 74.3068 14.6495 74.3149 14.6023 74.297L14.66 74.3723ZM14.9239 74.7448C14.7343 74.6036 14.6712 74.6189 14.6408 74.6461C14.6836 74.7127 14.4205 74.592 14.7999 74.8723C15.0009 75.02 14.982 74.9382 15.0279 74.9309C15.0772 74.9233 15.1027 74.8798 14.9239 74.7448ZM13.7578 72.7887C13.5976 72.6686 13.3237 72.4261 13.463 72.6165C13.5173 72.6918 13.6625 72.8589 13.756 72.9344C14.0557 73.1872 14.3941 73.4309 14.7109 73.6712C15.03 73.9103 15.3416 74.1385 15.654 74.3254C15.0208 73.8412 14.4119 73.3457 13.8264 72.8398C13.8048 72.8236 13.7816 72.8068 13.7578 72.7887ZM200.021 60.4045C199.945 60.5394 199.869 60.6742 199.791 60.8086C199.87 60.7771 199.771 60.9946 199.552 61.3575C199.36 61.6623 199.165 61.9675 198.973 62.2723C198.794 62.55 198.797 62.495 198.795 62.4414C198.686 62.6114 198.575 62.781 198.462 62.9501C198.481 62.9623 198.513 62.9561 198.54 62.9632C198.579 62.9609 198.62 62.9746 198.675 62.9553C198.71 62.944 198.754 62.9574 198.875 62.7171C199.141 62.1699 199.568 61.6179 199.877 61.0614C200.059 60.711 200.192 60.4399 200.103 60.4382C200.068 60.4388 200.035 60.4373 200.021 60.4045ZM12.8642 72.7858C13.048 73.0038 13.2028 73.2071 13.4417 73.4542C13.5061 73.5198 13.6544 73.5576 13.6848 73.5304C13.6226 73.4416 13.9316 73.6175 13.5089 73.2681C13.2989 73.0885 13.0802 72.9465 12.8642 72.7858ZM200.706 60.77C200.759 60.6468 200.748 60.643 200.682 60.7185C200.481 60.9314 200.315 61.2555 200.084 61.6248C200.049 61.6892 200.044 61.7356 200.026 61.7851C200.078 61.7567 200.22 61.5796 200.368 61.3722C200.502 61.161 200.64 60.9195 200.706 60.77ZM201.571 59.1364C201.554 59.0963 201.469 59.2834 201.381 59.4202C201.235 59.6598 201.089 59.8952 200.943 60.1349C200.93 60.1521 200.927 60.2234 200.928 60.2533C200.929 60.2671 200.95 60.2589 200.97 60.2346L200.97 60.2373C201.087 60.1033 201.202 59.886 201.315 59.6876C201.34 59.6353 201.376 59.58 201.398 59.5349C201.472 59.3942 201.579 59.1567 201.571 59.1364ZM204.495 47.2368C204.502 46.8194 204.46 46.8139 204.363 47.2432C204.323 47.5758 204.278 47.9085 204.228 48.2413C204.276 48.2872 204.286 48.4596 204.229 48.7522C204.166 49.0771 204.1 49.4071 204.034 49.7299C203.967 50.044 203.924 50.1433 203.892 50.119C203.838 50.38 203.781 50.641 203.72 50.9018C203.729 50.8941 203.737 50.8951 203.744 50.9026C203.79 50.9489 203.731 51.1625 203.679 51.3618C203.641 51.5028 203.583 51.7231 203.559 51.6898C203.551 51.6766 203.546 51.6541 203.544 51.6252C203.086 53.4243 202.478 55.2139 201.717 56.9778C201.715 56.9859 201.713 56.994 201.711 57.0021C201.657 57.2293 201.594 57.4388 201.563 57.6347C201.468 57.8227 201.42 57.865 201.363 57.9146C201.318 57.9549 201.273 58.0059 201.225 58.0664C200.921 58.7126 200.595 59.3545 200.248 59.9919C200.181 60.2098 200.228 60.2652 200.394 60.1367C200.432 60.1091 200.565 59.8911 200.639 59.7597C200.717 59.6235 200.695 59.6178 200.635 59.6813C200.514 59.8062 200.405 59.9002 200.573 59.5461C200.7 59.2891 200.827 59.083 200.96 58.9157L200.953 58.9279C201.066 58.7942 201.426 58.0147 201.564 57.6392C201.75 57.2357 201.915 57.3299 202.021 56.8917C202.13 56.4554 202.335 56.1129 202.446 55.7667C202.629 55.2014 202.716 54.919 202.787 54.6769C202.865 54.4366 202.953 54.2372 203.132 53.8432C203.22 53.6509 203.328 53.4202 203.341 53.2785C203.382 52.8993 203.617 52.4163 203.636 52.1447C203.656 51.8132 203.913 51.4008 203.861 51.078C203.832 50.8301 204.07 50.3909 204.132 49.9435C204.197 49.4059 204.313 48.849 204.429 48.2807C204.515 47.8736 204.486 47.5632 204.495 47.2368ZM8.83771 67.5877C8.7451 67.521 8.64309 67.4391 8.72945 67.5895C8.92415 67.9316 9.15762 67.9644 9.44208 68.3798C9.53146 68.5063 9.62082 68.6354 9.71034 68.7642C9.85496 68.9822 10.0061 69.186 10.1865 69.4065C10.6843 70.0285 11.1489 70.4342 11.3392 70.4839C10.4377 69.547 9.60464 68.5809 8.83771 67.5877ZM7.98917 67.4691C7.92726 67.445 7.99137 67.568 8.09226 67.7099C8.34975 68.0901 8.67445 68.4596 8.98501 68.8343C9.28505 69.2119 9.61632 69.5739 9.89099 69.9438C9.96805 70.041 10.2016 70.2608 10.3778 70.4122C10.419 70.449 10.486 70.5001 10.486 70.4936C10.4658 70.4532 10.4409 70.3966 10.3915 70.3441C9.82665 69.7023 9.26494 69.0582 8.75193 68.3903C8.55194 68.1987 8.36876 67.985 8.22605 67.7392C8.12731 67.5741 8.05096 67.491 7.98917 67.4691ZM8.55198 68.7348C8.55825 68.7806 8.54994 68.8228 8.61264 68.9207C8.6714 69.0119 8.85495 69.2275 8.88617 69.2099L8.88631 69.2122C8.9069 69.1994 8.8052 69.0436 8.75673 68.9471C8.71499 68.9033 8.66527 68.8485 8.62365 68.807C8.5819 68.7633 8.55184 68.7325 8.55198 68.7348ZM202.871 56.1578C202.856 56.1517 202.81 56.2145 202.78 56.2463L202.689 56.6816C202.727 56.6061 202.769 56.5307 202.794 56.4788C202.891 56.2584 202.9 56.17 202.871 56.1578ZM203.59 54.3061C203.593 54.2877 203.533 54.3625 203.521 54.3979C203.436 54.6524 203.317 54.8029 203.249 55.0934L203.245 55.0936C203.211 55.232 203.179 55.3542 203.121 55.5725C203.254 55.3013 203.325 55.1767 203.371 55.0492C203.456 54.797 203.564 54.5202 203.59 54.3061ZM6.95589 66.0713C6.97642 66.1186 6.97907 66.1647 7.01409 66.2158C7.13921 66.4049 7.27311 66.6163 7.40913 66.7493C7.4169 66.7604 7.38593 66.6632 7.35076 66.6098L7.3544 66.6096C7.23299 66.4226 7.10332 66.2175 6.95589 66.0713ZM3.88622 58.7955C3.85045 58.849 3.88452 59.1191 3.96886 59.2826C4.19917 59.7452 4.24497 60.1008 4.49677 60.5667C4.75618 61.0391 5.01542 61.6827 5.26691 62.1417C5.46067 62.4678 5.66684 62.8235 5.85037 63.1571C6.03726 63.4881 6.21563 63.7918 6.31455 64.0193C6.44706 64.3328 6.6198 64.6096 6.7991 64.8718C6.9748 65.1342 7.14625 65.3852 7.28623 65.645C7.45243 65.9265 7.6488 66.2315 7.82767 66.3667C7.92154 66.4382 7.85988 66.3049 7.81655 66.1946C7.35475 65.5302 6.92185 64.8542 6.51378 64.1691C6.50822 64.1641 6.50252 64.1592 6.49696 64.1543C6.49234 64.1417 6.48713 64.1293 6.48244 64.1167C5.46083 62.3947 4.60547 60.6106 3.90196 58.777C3.89652 58.7824 3.89108 58.7887 3.88622 58.7955ZM4.70465 62.2049C4.55605 62.0403 4.59881 62.2805 4.66268 62.457C4.75735 62.7332 4.81358 62.6631 4.8867 62.7559C4.9789 62.8706 5.06292 63.0227 5.11313 63.1491C5.24821 63.5063 5.46641 63.8263 5.67037 64.1448L5.9802 64.6236C6.08568 64.7815 6.19112 64.9443 6.2865 65.1121C6.31425 65.159 6.39408 65.2396 6.44767 65.3034C6.40361 65.2205 6.36964 65.1348 6.31848 65.0523L6.32211 65.0521C6.06763 64.6626 5.84113 64.2621 5.5756 63.8062C5.39957 63.4791 5.13292 63.0624 4.98935 62.6825C4.89689 62.4431 4.7918 62.2946 4.70465 62.2049ZM204.617 50.3058C204.59 50.3928 204.556 50.478 204.536 50.5692L204.536 50.5669C204.462 50.9433 204.349 51.3151 204.257 51.6901C204.126 52.1716 204.019 52.6566 203.87 53.1345C203.839 53.224 203.823 53.3152 203.804 53.4065C203.833 53.3608 203.864 53.3333 203.892 53.2692C204.03 53.0069 204.189 52.4012 204.343 51.8077C204.496 51.2142 204.628 50.6289 204.622 50.4027L204.617 50.3058ZM204.999 48.3468C204.991 48.271 204.964 48.3051 204.941 48.4474C204.866 48.8723 204.76 49.3015 204.72 49.7128C204.71 49.7849 204.725 49.8511 204.743 49.8549C204.775 49.8645 204.811 49.8091 204.83 49.5839L204.827 49.5886C204.832 49.4959 204.847 49.3957 204.834 49.528C204.886 49.0328 205.017 48.8423 205.015 48.5652C205.014 48.4844 205.006 48.411 204.999 48.3468ZM2.97397 58.0562C2.80413 57.7728 2.90282 58.1801 2.8842 58.2853C2.87957 58.3272 2.82113 58.3585 2.94634 58.5498L2.94258 58.5478C3.25451 59.0056 3.37595 59.6736 3.65883 60.1816C3.78922 60.4004 3.79464 60.548 3.87337 60.7352C3.93991 60.8975 4.01636 61.0453 4.06765 61.0702C4.13736 61.1054 4.09734 60.9739 4.00088 60.7277C3.85051 60.3529 3.67165 59.9727 3.52087 59.591C3.37719 59.2089 3.24087 58.8309 3.14437 58.4645C3.12132 58.3758 3.02149 58.1368 2.97397 58.0562ZM205.255 47.2109C205.204 47.2439 205.158 47.2538 205.112 47.312C205.099 47.329 205.071 47.4738 205.055 47.5649C205.024 47.7606 205.04 47.8431 205.07 47.8782C205.116 47.9287 205.168 47.7154 205.215 47.6224C205.251 47.558 205.281 47.4683 205.316 47.39L205.312 47.3902C205.291 47.3268 205.273 47.2653 205.255 47.2109ZM204.732 44.3273C204.73 44.2394 204.702 43.8902 204.69 44.1655C204.668 44.4607 204.62 44.6133 204.571 44.745C204.56 44.9883 204.546 45.2317 204.529 45.4754C204.536 45.5749 204.514 45.809 204.525 45.8853C204.554 46.0949 204.519 46.2163 204.47 46.2231C204.457 46.3698 204.443 46.5165 204.428 46.6633C204.442 46.6369 204.458 46.6163 204.475 46.6004C204.529 46.5487 204.612 46.814 204.639 46.2974C204.646 45.9457 204.747 45.7244 204.718 45.4164C204.688 45.0878 204.722 44.6975 204.732 44.3273ZM2.87056 55.692C2.85035 55.8155 2.85907 55.968 3.03071 56.3727C3.16728 56.6951 3.25704 57.0664 3.36729 57.4251C3.57641 58.1326 3.62292 58.2882 3.75241 58.3824C3.42416 57.4963 3.13064 56.599 2.87056 55.692ZM205.295 44.9359C205.239 44.9893 205.203 45.1987 205.208 45.3995C205.215 45.6926 205.25 45.9309 205.171 46.2753C205.126 46.4743 205.148 46.5378 205.178 46.5661C205.212 46.6009 205.257 46.4595 205.269 46.2994C205.32 45.8016 205.329 45.3426 205.295 44.9359ZM205.29 42.4574C205.234 42.5277 205.242 43.1535 205.274 43.3319L205.281 43.3293C205.328 43.5784 205.317 43.8678 205.309 44.1502C205.301 44.425 205.262 44.6929 205.296 44.9137C205.333 44.6582 205.366 44.4563 205.391 44.2887C205.406 44.1192 205.412 43.9826 205.416 43.8599C205.419 43.6148 205.401 43.4263 205.358 43.133C205.323 42.904 205.379 42.3439 205.29 42.4574ZM2.48882 54.9759C2.53441 55.2044 2.55325 55.3445 2.58983 55.481C2.62993 55.6172 2.68056 55.7482 2.73471 55.8813C2.7054 55.7468 2.69383 55.6112 2.65731 55.4748L2.65744 55.477C2.62073 55.3382 2.5662 55.2002 2.48882 54.9759ZM205.677 42.9177C205.647 42.8965 205.608 42.9658 205.611 43.1273L205.615 43.2021C205.627 43.3706 205.665 43.4607 205.705 43.517C205.724 43.4073 205.76 43.2986 205.763 43.1691C205.771 42.836 205.71 42.9412 205.677 42.9177ZM204.604 42.9353C204.605 43.1041 204.606 43.273 204.604 43.4421C204.612 43.4488 204.621 43.4639 204.629 43.4922C204.67 43.6398 204.71 43.374 204.715 43.2028C204.725 42.8952 204.667 42.9883 204.632 42.9467C204.623 42.9359 204.614 42.9341 204.604 42.9353ZM2.65562 54.9092C2.65674 54.9484 2.65452 54.9928 2.64581 55.0432C2.62155 55.174 2.70826 55.2543 2.74279 55.2961L2.74265 55.2939C2.75199 55.3055 2.76042 55.3175 2.76938 55.3299C2.7307 55.1899 2.69274 55.0497 2.65562 54.9092ZM1.86308 51.2225C1.8628 51.2742 1.86734 51.3418 1.87933 51.4272C2.02679 52.4725 2.31696 53.5257 2.50685 54.5661C2.51659 54.6076 2.56609 54.647 2.60552 54.7173C2.30745 53.5659 2.06066 52.4001 1.86308 51.2225ZM203.958 36.2171C203.95 36.3122 203.929 36.385 203.937 36.5069C203.939 36.5691 203.946 36.6435 203.954 36.7184C204.14 37.6359 204.287 38.5634 204.394 39.4988C204.409 39.5817 204.423 39.6718 204.436 39.7735C204.488 40.0963 204.481 40.4663 204.526 40.7387C204.619 41.3669 204.65 41.8193 204.586 42.0921C204.592 42.2838 204.598 42.4757 204.601 42.6678C204.659 42.6574 204.693 42.6317 204.712 42.5469C204.737 42.4345 204.748 42.2118 204.712 41.7818C204.687 41.4112 204.679 41.037 204.615 40.6733C204.582 40.4835 204.591 40.2797 204.593 40.0786C204.589 39.8801 204.577 39.682 204.517 39.5052C204.352 39.0134 204.58 39.141 204.47 38.7131C204.406 38.4742 204.397 38.0331 204.28 37.9175C204.401 37.6146 204.158 37.065 204.075 36.6308C204.046 36.4939 203.999 36.3557 203.958 36.2171ZM205.189 39.5029C205.157 39.3685 205.149 39.362 205.133 39.4439C205.086 39.6754 205.122 39.9899 205.156 40.3807L205.16 40.3805C205.167 40.4516 205.191 40.4987 205.205 40.5533C205.236 40.5283 205.253 40.3449 205.258 40.1274C205.256 39.9104 205.224 39.6604 205.189 39.5029ZM204.625 36.4987C204.581 36.5389 204.653 36.8219 204.685 37.0111C204.723 37.2283 204.764 37.4384 204.831 37.6008C204.814 37.3754 204.812 37.1605 204.776 36.9154C204.746 36.705 204.66 36.4825 204.625 36.4987ZM203.922 35.7268C203.761 35.2279 203.767 35.5717 203.688 35.4977L203.688 35.4955C203.685 35.4923 203.682 35.4881 203.679 35.4843C203.708 35.6052 203.736 35.7265 203.764 35.8478C203.835 35.876 203.889 35.8368 203.922 35.7268ZM204.248 34.8016C204.184 34.7892 204.244 35.0331 204.292 35.2313C204.343 35.4362 204.411 35.6842 204.468 35.6926L204.468 35.6904C204.59 35.7086 204.399 35.3615 204.381 35.2424C204.344 35.0435 204.339 34.8218 204.248 34.8016ZM0.379654 46.9047C0.351827 46.9155 0.31558 46.9105 0.28898 46.9421C0.272339 46.9615 0.26259 47.0339 0.247727 47.0833C0.262309 47.1494 0.279874 47.2658 0.294594 47.2745C0.361033 47.3146 0.423193 47.3458 0.49319 47.5057C0.505472 47.5327 0.533141 47.3369 0.540086 47.2141C0.558063 46.9773 0.507651 46.9689 0.480905 46.9381L0.477729 46.9383C0.443563 46.9011 0.412041 46.9119 0.379654 46.9047ZM202.989 32.8324C202.876 32.6246 202.904 32.7742 202.94 32.9289C203.075 33.3324 203.201 33.7389 203.32 34.1478C203.347 34.2058 203.383 34.2902 203.428 34.4083C203.487 34.562 203.535 34.5361 203.514 34.4218C203.46 34.1176 203.508 33.8976 203.29 33.4736C203.189 33.2715 203.085 33.0116 202.989 32.8324ZM202.478 31.4203C202.427 31.4048 202.454 31.5073 202.518 31.6838C202.585 31.8599 202.632 31.9343 202.681 31.9619L202.717 31.977C202.74 31.9719 202.7 31.8466 202.648 31.7083C202.58 31.5185 202.522 31.4364 202.478 31.4203ZM202.188 30.6772C202.101 30.5343 201.968 30.1469 201.931 30.297C201.93 30.3 201.928 30.3022 201.927 30.3045C202.042 30.5664 202.153 30.8295 202.261 31.0944C202.287 31.0805 202.306 31.0495 202.326 31.0227C202.356 30.9817 202.247 30.7708 202.188 30.6772ZM200.955 28.0616C200.982 28.1753 200.996 28.2833 201.016 28.3999C201.283 28.9125 201.535 29.4318 201.773 29.9576C201.831 29.7977 201.727 29.463 201.489 29.0283C201.279 28.6064 201.174 28.4 201.073 28.2003C201.041 28.1375 200.95 28.0457 200.955 28.0616ZM200.64 27.3729C200.538 27.2263 200.415 27.0716 200.445 27.2246C200.459 27.2963 200.456 27.3344 200.436 27.3351C200.507 27.4604 200.578 27.5862 200.648 27.7124C200.654 27.7122 200.66 27.712 200.666 27.7109C200.712 27.699 200.749 27.7244 200.747 27.6831C200.739 27.6189 200.869 27.7013 200.64 27.3729ZM199.569 25.829C199.755 26.1462 199.982 26.4407 200.161 26.7538C200.165 26.7582 200.187 26.7613 200.185 26.7384C200.168 26.6216 200.098 26.4685 200 26.3102C199.891 26.1525 199.774 25.9836 199.669 25.8326L199.669 25.8304C199.578 25.6947 199.482 25.5944 199.434 25.576C199.477 25.6603 199.521 25.7402 199.569 25.829ZM193.569 18.8911C193.528 18.9097 193.425 18.8806 193.457 18.96C193.85 19.2923 194.233 19.6324 194.606 19.9802C194.662 20.0089 194.7 20.0173 194.775 20.0847C194.881 20.1839 194.907 20.2349 194.926 20.2816C195.264 20.6053 195.593 20.9355 195.914 21.2715C195.947 21.2983 195.98 21.324 196.014 21.348C196.106 21.4184 196.559 21.9433 196.851 22.2983C197.652 23.2162 198.395 24.1736 199.076 25.1665C199.194 25.3078 199.31 25.4441 199.425 25.5656C199.31 25.3076 198.964 24.874 198.924 24.73C198.855 24.4729 198.647 24.2031 198.369 23.9051C198.047 23.5681 197.889 23.3114 197.685 22.9929C197.513 22.7394 197.24 22.3924 197.058 22.2066C196.74 21.8925 196.434 21.5894 196.145 21.2828C195.832 20.9846 195.544 20.6777 195.285 20.3393C195.251 20.2997 195.045 20.1359 194.92 20.0183C194.622 19.7217 194.387 19.6061 194.134 19.4268C193.916 19.2779 193.913 19.2318 193.9 19.1887C193.882 19.1365 193.991 19.1737 193.762 18.963C193.746 18.9498 193.593 18.8804 193.569 18.8911ZM196.246 20.4495C196.152 20.4342 195.882 20.2539 195.892 20.3151C195.908 20.4112 196.319 20.785 196.575 21.0334C196.863 21.3285 197.002 21.5583 197.213 21.8163L197.209 21.8143C197.428 22.0856 197.588 22.1987 197.658 22.1877C197.626 22.1182 197.78 22.2058 197.466 21.887C197.216 21.6336 196.955 21.3738 196.768 21.156C196.577 20.9407 196.439 20.7732 196.495 20.689C196.51 20.6623 196.296 20.4586 196.246 20.4495ZM193.416 18.0612C193.291 17.9853 193.228 17.9498 193.281 18.0044C193.308 18.0329 193.349 18.072 193.394 18.1064C193.638 18.3185 193.882 18.531 194.126 18.7432L194.133 18.7427C194.381 18.9547 194.625 19.1671 194.872 19.3791C194.962 19.4547 195.062 19.5228 195.152 19.5961C195.12 19.5471 195.097 19.5115 195.044 19.4523C194.482 18.8727 194.054 18.4953 193.416 18.0612ZM1.89715 30.1348C1.86115 30.1278 1.81471 30.1813 1.7861 30.3583C1.75229 30.5683 1.75559 30.7439 1.80675 30.7062C1.8341 30.6858 1.90829 30.5015 1.93324 30.3823C1.99691 30.0759 1.92064 30.1703 1.89715 30.1348ZM193.562 17.8216C193.705 17.9472 193.802 18.0779 193.956 18.2191C194.276 18.5098 194.358 18.5169 194.407 18.4979C194.416 18.4743 194.391 18.4015 194.271 18.3091C194.025 18.1225 193.817 17.9708 193.562 17.8216ZM191.038 17.1034C191.549 17.459 192.047 17.8269 192.531 18.2061C192.656 18.2155 192.835 18.2592 192.605 18.0092C192.592 17.9994 192.409 17.875 192.339 17.8353C192.225 17.7726 192.065 17.6688 192.154 17.7792C192.242 17.885 192.373 18.0575 191.93 17.7322C191.514 17.4285 191.732 17.508 191.721 17.4532C191.717 17.442 191.75 17.4515 191.734 17.4316C191.695 17.3738 191.642 17.3077 191.592 17.246C191.511 17.2137 191.416 17.1707 191.355 17.1558L191.359 17.1579C191.319 17.1486 191.32 17.174 191.31 17.1815C191.264 17.1751 191.257 17.194 191.191 17.1609C191.107 17.1229 191.057 17.1034 191.038 17.1034ZM185.741 13.7752C185.382 13.6691 185.976 14.0204 185.859 14.0342C185.854 14.0347 185.851 14.0356 185.849 14.0374C186.059 14.1466 186.268 14.2566 186.477 14.3683C186.451 14.3432 186.371 14.2881 186.375 14.2811C186.224 14.0774 185.882 13.818 185.741 13.7752ZM185.191 13.0333C185.044 12.9632 184.773 12.8289 184.929 12.9445C184.975 12.979 185.143 13.0638 185.242 13.118C185.683 13.3487 185.993 13.4739 186.221 13.5368C186.243 13.5448 186.246 13.533 186.22 13.5184C185.828 13.2755 185.535 13.198 185.191 13.0333ZM181.967 12.0408C181.908 12.0581 181.9 12.0955 181.902 12.1391C181.902 12.1422 181.907 12.146 181.913 12.1516C182.026 12.2012 182.139 12.2507 182.252 12.3009C182.257 12.3016 182.261 12.3028 182.264 12.3029L182.264 12.3006C182.321 12.3042 182.338 12.2827 182.345 12.2823C182.372 12.2576 182.411 12.255 182.392 12.2307C182.361 12.1956 182.291 12.1419 182.238 12.0941C182.144 12.0742 181.999 12.032 181.967 12.0408ZM181.09 11.7571C181.078 11.7656 181.108 11.7912 181.146 11.8203C181.233 11.857 181.319 11.8933 181.405 11.9303C181.452 11.9417 181.5 11.9532 181.55 11.9657C181.475 11.9078 181.409 11.8562 181.345 11.8068C181.255 11.7867 181.107 11.7425 181.09 11.7571ZM168.876 7.66476C168.812 7.66395 168.973 7.73326 169.089 7.76806L169.089 7.77031C169.642 7.92275 170.041 7.98004 170.502 8.07782C170.204 7.96359 169.905 7.85199 169.606 7.73776C169.352 7.71104 169.072 7.66486 168.876 7.66476ZM167.606 7.37642C167.311 7.31522 167.378 7.37555 167.379 7.40324C167.381 7.42627 167.264 7.43568 167.643 7.52212L167.643 7.52437C167.711 7.53655 167.828 7.51356 167.888 7.51004C167.828 7.4627 167.959 7.44816 167.606 7.37642ZM164.111 6.24747C163.881 6.20548 163.437 6.16214 163.455 6.18183C163.509 6.2411 164.055 6.32932 164.364 6.37825C164.871 6.45723 165.288 6.52734 165.86 6.63481C166.707 6.80483 167.512 6.99592 168.328 7.19082L168.328 7.19533C168.61 7.26427 168.97 7.3401 168.989 7.29774C169.045 7.2829 168.842 7.22317 168.615 7.17176L166.379 6.67635C165.63 6.52147 164.867 6.39042 164.111 6.24747ZM166.222 7.0988C165.857 7.05549 165.964 7.12573 165.945 7.16613C165.942 7.17232 165.968 7.18474 166 7.19865C166.184 7.23641 166.368 7.27446 166.552 7.31328C166.585 7.31788 166.614 7.32213 166.638 7.32409L166.634 7.3243C166.802 7.33758 166.877 7.32414 166.901 7.32268C166.921 7.28926 166.952 7.28036 166.93 7.26089C166.907 7.24141 166.823 7.21167 166.769 7.18486C166.585 7.1563 166.369 7.11562 166.222 7.0988ZM164.678 6.75506C164.283 6.68351 163.983 6.65919 164.091 6.70124C164.312 6.78785 164.643 6.89048 164.954 6.98988C165.102 7.01843 165.249 7.04787 165.396 7.07707C165.414 7.07857 165.427 7.08065 165.435 7.08025C165.502 7.0717 165.504 7.04854 165.538 7.02805C165.523 7.00124 165.567 6.97772 165.469 6.93266C165.355 6.87922 165.002 6.81467 164.678 6.75506ZM159.038 5.87375C158.699 5.86353 159.08 5.92937 159.261 5.97196L159.264 5.96949C159.639 6.05726 160.088 6.14703 160.558 6.23607C161.537 6.38341 162.513 6.54344 163.485 6.71683C163.65 6.69336 163.869 6.66021 163.445 6.54733C163.337 6.51901 163.105 6.45614 162.871 6.40054C162.633 6.35207 162.388 6.30649 162.263 6.30224C161.518 6.27423 160.937 6.20171 160.055 5.98062C159.73 5.89338 159.313 5.8854 159.038 5.87375ZM157.989 5.29981C157.947 5.3046 157.995 5.3297 158.081 5.35005C158.265 5.39244 158.454 5.45754 158.797 5.47907L158.801 5.48111C159.733 5.53059 160.643 5.74779 161.684 5.89256C161.753 5.90709 161.99 5.95761 162.162 5.97988C162.359 6.003 162.509 6.0036 162.652 6.00912C162.669 6.01038 162.485 5.95865 162.406 5.94706C161.792 5.8582 161.34 5.73237 160.601 5.64616C160.063 5.57367 159.338 5.47274 158.696 5.38554C158.448 5.3538 158.18 5.27481 157.989 5.29981ZM148.901 4.85856C148.541 4.8542 148.084 4.77001 147.926 4.81384C147.828 4.84266 147.863 4.88231 147.907 4.91894C147.93 4.93842 148.116 4.95321 148.237 4.95077C148.446 4.94774 148.687 4.8619 148.844 4.98893C148.857 4.99962 148.88 5.00932 148.913 5.0188C149.376 5.04895 149.838 5.08058 150.3 5.11445C150.355 5.10982 150.39 5.10293 150.409 5.09177C150.437 5.07399 150.565 5.06881 150.65 5.05692C150.719 5.08059 150.813 5.10743 150.85 5.13066C150.868 5.14183 150.893 5.15152 150.927 5.1614C152.05 5.24808 153.17 5.34683 154.287 5.45814C154.373 5.45761 154.453 5.45461 154.527 5.44677C154.672 5.46801 154.757 5.49151 154.836 5.51417C155.298 5.56208 155.76 5.61209 156.221 5.66467C156.483 5.68736 156.746 5.71568 157.035 5.76035C157.284 5.79032 157.532 5.82094 157.781 5.85236C157.84 5.84335 157.853 5.82297 157.982 5.8293C158.328 5.84601 158.318 5.80979 157.98 5.73491C157.634 5.66041 157.087 5.56756 156.495 5.49126C155.904 5.42418 155.267 5.36904 154.756 5.34115C154.421 5.32153 154.039 5.29308 153.982 5.2571C153.838 5.16386 153.187 5.16726 152.773 5.10131C151.612 5.07913 150.157 4.8636 148.901 4.85856ZM158.628 5.13991C158.281 5.12089 157.567 5.01269 157.534 5.07004C157.529 5.08201 157.661 5.10869 157.73 5.13003C158.123 5.15557 158.664 5.22075 158.931 5.21441C158.97 5.21213 158.952 5.20198 158.962 5.19676C158.904 5.17015 158.774 5.14753 158.628 5.13991ZM154.608 4.93834C154.512 4.93704 154.498 4.95175 154.485 4.96409C154.478 4.96914 154.575 4.9843 154.625 4.9952C155.228 5.01309 156 5.12047 156.657 5.16749C156.904 5.18771 156.918 5.17775 156.677 5.14101L156.681 5.1408C156.462 5.11431 156.225 5.08628 155.939 5.04993C155.531 5.02063 155.007 4.94505 154.608 4.93834ZM144.011 4.6432C143.988 4.66536 144.669 4.76647 144.726 4.75872C144.821 4.74624 144.867 4.72733 144.88 4.70813L144.876 4.70564C144.899 4.67198 144.634 4.64817 144.32 4.6319C144.196 4.63685 144.023 4.63575 144.011 4.6432ZM126.633 4.4537C126.545 4.46349 126.41 4.47158 126.382 4.48015C126.312 4.50503 126.502 4.51936 126.758 4.52053C126.89 4.51975 127.163 4.50814 127.163 4.50814C127.196 4.47621 126.897 4.46596 126.633 4.4537ZM124.521 4.37606C124.489 4.38025 124.49 4.39189 124.511 4.39064C124.868 4.40213 125.229 4.41576 125.589 4.42934C125.625 4.42951 125.757 4.4173 125.765 4.41222C125.793 4.38984 125.713 4.36641 125.457 4.36293C125.15 4.35775 124.801 4.35046 124.521 4.37606ZM132.817 3.93223C132.558 3.94048 132.398 3.95483 132.432 3.97829C132.443 3.98689 132.626 4.00581 132.679 4.0027C133.01 3.99491 133.218 3.97581 133.256 3.94589C133.152 3.92888 133.012 3.92773 132.817 3.93223ZM118.189 4.38618C117.752 4.38638 117.764 4.42028 117.741 4.45626C117.818 4.47953 117.575 4.52855 118.073 4.53405C118.422 4.53674 118.783 4.49929 118.767 4.45867C118.754 4.42249 118.793 4.38314 118.189 4.38618ZM97.965 3.67909C97.7436 3.66662 97.4433 3.6428 97.5236 3.67508C97.5786 3.6973 97.7941 3.73079 97.9771 3.75932C98.0885 3.77592 98.3141 3.79995 98.4247 3.80503C98.956 3.82476 99.3563 3.85419 99.6576 3.8943C99.9587 3.92983 100.161 3.97391 100.288 4.02651C100.325 4.04285 100.411 4.05821 100.473 4.07539C100.722 4.07927 100.743 4.0622 100.756 4.04303L100.749 4.04568C100.772 4.01198 100.788 3.97629 100.803 3.94301C101.626 4.00581 100.825 4.06873 101.736 4.12403C102.418 4.1673 102.897 4.2619 103.577 4.25911C104.46 4.2583 105.285 4.31625 106.203 4.35733C106.927 4.3912 107.794 4.4145 108.271 4.35884C108.614 4.31799 108.662 4.3569 108.792 4.38397C108.9 4.40538 109.083 4.42213 109.361 4.42667C110.772 4.45271 112.187 4.48317 113.6 4.49059C114.131 4.4942 114.254 4.464 114.287 4.42507C114.3 4.41039 114.26 4.38036 114.605 4.39244C114.687 4.39457 114.738 4.41736 114.739 4.43117C114.753 4.48346 114.973 4.52134 115.622 4.4903C115.98 4.47394 116.166 4.4817 116.473 4.4961C116.948 4.51913 117.253 4.49884 117.296 4.45471C117.327 4.42751 117.346 4.39864 117.323 4.36994C117.266 4.30401 116.748 4.26477 116.202 4.29902C114.883 4.38775 113.536 4.24255 112.247 4.29487C111.91 4.30765 111.846 4.25843 111.77 4.23054C111.715 4.21062 111.626 4.15564 111.355 4.19694C111.051 4.24243 110.725 4.19914 110.494 4.20572C109.989 4.21907 109.735 4.19921 109.445 4.16536C108.753 4.08566 108.834 4.19425 108.488 4.17524C108.074 4.15325 107.865 4.11457 107.759 4.07453C107.708 4.05444 107.558 4.0425 107.427 4.04788C106.969 4.06544 106.565 4.10038 106.066 4.09491C105.728 4.0916 105.551 3.99102 104.81 3.98122C104.586 3.97817 104.336 3.97414 104.176 3.98348C103.743 4.00189 103.234 3.99482 102.624 3.96583C101.877 3.9217 101.225 3.90661 100.771 3.93318C99.8062 3.87637 98.9832 3.74199 97.965 3.67909ZM110.589 3.88817C110.333 3.90078 109.593 3.84023 109.568 3.90176C109.557 3.93013 110.282 3.92941 110.677 3.9386C110.923 3.9427 111.176 3.94619 111.414 3.9461C111.503 3.94782 111.574 3.93467 111.619 3.92506C111.63 3.92444 111.512 3.91251 111.444 3.90955L111.448 3.90934C111.202 3.90293 110.952 3.89693 110.589 3.88817ZM106.899 3.7826C106.792 3.79343 106.826 3.82652 107.122 3.83464C107.318 3.83934 107.509 3.82317 107.708 3.81615C107.629 3.79999 107.535 3.77565 107.514 3.77689C107.293 3.77594 107.012 3.77137 106.899 3.7826ZM100.761 3.46487C100.482 3.45573 100.116 3.45657 100.067 3.47559C99.9737 3.5111 100.458 3.5311 100.726 3.55006L100.72 3.55046C101.335 3.59536 101.956 3.62363 102.559 3.65534C103.162 3.68474 103.754 3.70348 104.309 3.75191C104.762 3.7693 105.093 3.77996 105.411 3.79142C105.657 3.79783 105.824 3.78783 105.751 3.75977C105.685 3.73356 105.481 3.70865 105.235 3.70225C104.468 3.68239 103.577 3.6051 103.008 3.60377C102.135 3.59243 101.484 3.48721 100.761 3.46487ZM45.4626 0.987897C45.3528 0.996635 45.247 1.01885 45.1411 1.03429C45.2831 1.02829 45.4219 1.02459 45.571 1.01818C45.688 1.01133 45.8587 1.00632 46.0005 0.99802C46.1404 0.992112 46.2495 0.990097 46.2528 0.990042C46.2266 1.0331 45.8217 1.0405 45.5702 1.05982C45.1132 1.09581 44.67 1.12893 44.2452 1.16766C43.8207 1.21329 43.4145 1.26726 43.0271 1.33615C42.3122 1.46348 43.1322 1.42697 43.0609 1.48429C43.0515 1.49183 43.0532 1.49699 43.0642 1.50083C44.7624 1.33047 46.6073 1.20584 48.5602 1.12181C48.8712 1.10167 49.1487 1.08366 49.3758 1.06866C49.6948 1.04768 49.8758 1.03443 50.2352 1.03419C51.1894 1.03843 52.2267 1.00564 53.1932 0.979121C53.6055 0.968862 53.6757 0.890553 54.4025 0.961264C54.5222 0.973008 54.6881 0.97985 54.8837 0.983294C55.2398 0.982038 55.5978 0.981792 55.9574 0.982414C56.3314 0.979241 56.7149 0.975969 57.0518 0.97761C57.7352 0.979205 57.6001 0.917594 57.9439 0.892856C58.486 0.854203 58.7035 0.860222 59.1068 0.938301C59.2473 0.967051 59.2459 1.00146 59.6554 1.00523C60.9303 1.01613 62.328 1.11687 63.467 1.05485C63.7578 1.03783 63.9536 1.03825 64.1273 1.08585C64.3517 1.14898 64.9428 1.14916 65.407 1.17284C66.7418 1.23569 68.0715 1.27107 69.4067 1.33852C70.3527 1.38485 71.2656 1.46789 72.211 1.5027C74.5118 1.58762 76.8264 1.84272 79.1146 1.95379C81.5419 2.19076 84.0262 2.36668 86.4585 2.62646C87.4436 2.73289 87.9731 2.77312 87.6413 2.63773C87.5865 2.61551 88.066 2.65679 88.2279 2.6866C88.379 2.71473 88.4269 2.7445 88.4568 2.76817L88.4392 2.77146C88.5738 2.87913 89.1062 2.85502 89.4361 2.8958C89.4544 2.90397 89.4551 2.91529 89.4946 2.92222C90.9115 3.10508 93.1219 3.40114 93.8699 3.40822C94.2899 3.40907 94.7241 3.46661 95.1786 3.50934C95.2466 3.51461 95.3508 3.52967 95.4332 3.54101C95.5139 3.55211 95.5777 3.564 95.5804 3.56451C95.5532 3.58688 95.2918 3.55627 95.0843 3.53837C94.859 3.52151 94.6441 3.506 94.4224 3.48892C94.5631 3.51998 94.6617 3.55591 94.852 3.58407C96.256 3.79305 96.9692 3.81849 96.8678 3.66733C96.8254 3.61204 96.4725 3.53998 95.9578 3.50308C94.7495 3.41433 93.8334 3.27841 92.8867 3.10039C92.592 3.05065 92.3928 2.99326 92.1513 2.9404C91.938 2.94364 91.6415 2.9329 91.5322 2.95085C91.3986 2.97487 91.4227 3.02209 91.3716 3.05973C91.3511 3.07479 91.3811 3.10077 91.1197 3.07447C91.0759 3.05624 91.0318 3.03574 90.9915 3.01731C90.6404 2.85538 90.6254 2.84448 89.3973 2.71765C88.4377 2.62128 87.615 2.49869 86.6876 2.40505C85.9785 2.3333 86.0774 2.32284 85.8987 2.37028C85.8006 2.39677 85.6486 2.40784 85.9044 2.46671C85.9946 2.48685 85.993 2.51965 85.6564 2.48619C85.5275 2.47293 85.4154 2.44482 85.279 2.42508C84.7944 2.35179 85.4976 2.32865 84.6426 2.25161C83.9234 2.18969 83.4184 2.08087 82.9074 2.04837C82.1504 1.9957 82.1517 1.97013 82.1241 1.92329C82.1 1.87848 81.8534 1.85804 81.486 1.84487C81.0508 1.82874 80.6152 1.81011 80.2126 1.80363C79.6855 1.79519 79.0049 1.71973 78.6401 1.63248C78.5645 1.61612 78.4814 1.59793 78.402 1.57949C78.3134 1.58468 78.2102 1.5884 78.1429 1.59465C77.6196 1.65301 77.6124 1.65302 76.5627 1.53881C76.226 1.50305 75.9371 1.49708 75.6583 1.47642C74.6715 1.40245 73.5955 1.38444 72.6945 1.25691C72.2962 1.20166 72.2199 1.23856 72.0461 1.24873C71.8192 1.2643 71.4736 1.25451 71.2219 1.2115C70.7151 1.12792 70.2889 1.0903 69.9009 1.14998C69.2694 1.00443 68.4252 1.05133 67.7087 1.03318C66.9349 1.00913 65.9581 0.927974 65.3814 0.987141C64.7296 0.918995 64.0091 0.891542 63.2725 0.893048C62.3404 0.90137 61.8462 0.796494 61.0729 0.781657C60.4174 0.771479 60.332 0.713721 59.9785 0.69512C59.5214 0.668746 59.2866 0.731029 58.7642 0.743116C57.6018 0.769535 56.462 0.697763 55.3791 0.74495C54.7828 0.772907 54.5304 0.718193 54.1165 0.700814C53.7005 0.688182 53.0543 0.716181 52.178 0.784403C51.9867 0.800217 51.7245 0.820187 51.4969 0.82426C50.722 0.841871 51.3995 0.74415 50.8945 0.748275C50.1084 0.757298 51.0102 0.841222 50.1216 0.860875C50.0433 0.860835 49.9789 0.857571 49.9005 0.857531C48.8225 0.865154 47.5605 0.952953 46.6792 0.916708C46.5009 0.910965 45.8771 0.954401 45.4626 0.987897ZM22.6882 6.49636C22.2021 6.64266 21.457 6.98681 20.932 7.19779L20.4686 7.54595C19.9289 7.80631 20.1481 7.78422 19.9043 7.93483C19.8932 7.94204 19.8843 7.94937 19.8764 7.955C20.0837 7.85204 20.2915 7.75072 20.4999 7.65128C20.5353 7.59571 20.4882 7.57828 20.4758 7.54327C20.8573 7.37539 21.2507 7.22775 21.2009 7.28606C21.1793 7.31116 21.1718 7.32687 21.176 7.33499C21.6615 7.11302 22.1492 6.90038 22.6381 6.69598C22.6708 6.66668 22.6243 6.66641 22.4796 6.70254C22.3568 6.73283 22.2516 6.75761 22.532 6.62803C22.8993 6.45865 22.9579 6.42512 22.6882 6.49636ZM97.4281 3.20905C97.1458 3.19091 97.0357 3.19525 97.2336 3.23218C97.3668 3.25675 97.5749 3.28155 97.7507 3.30593L97.8986 3.28099C97.8188 3.25562 97.7246 3.22867 97.4281 3.20905ZM91.2916 2.54893C91.1643 2.56331 91.4999 2.6408 91.7221 2.66708L91.7222 2.66933C92.1525 2.72272 92.5637 2.75444 92.9503 2.7919C92.9883 2.7712 91.9562 2.53547 91.8814 2.53522C91.6428 2.53071 91.4224 2.53436 91.2916 2.54893ZM91.2704 2.31459C91.2325 2.3353 91.3947 2.36952 91.6637 2.40462L91.6675 2.40711C91.8002 2.42475 91.9324 2.43298 92.147 2.45276C91.8947 2.39821 91.6745 2.35102 91.4547 2.30381C91.3908 2.30753 91.2876 2.30436 91.2704 2.31459ZM85.241 1.96246C85.4562 1.98916 85.7115 2.02994 85.8758 2.03882C86.3008 2.06477 86.6005 2.07698 87.174 2.14508C87.9265 2.23046 88.7673 2.30175 89.5815 2.40664C89.8076 2.43732 90.3365 2.47072 90.3892 2.4584C90.5046 2.43312 90.0145 2.3859 89.7565 2.3548C89.2728 2.30222 88.7857 2.24961 88.1981 2.18463C87.4288 2.11641 86.5207 1.99394 85.6855 1.955C85.4929 1.94779 85.3869 1.96086 85.241 1.96246ZM25.2226 5.59699C25.2535 5.52374 24.7525 5.71253 24.4623 5.79884C24.3155 5.8444 24.1005 5.88445 23.9394 5.9886C23.888 6.02165 23.9104 6.03908 23.9802 6.01651C24.2913 5.91974 24.6337 5.81191 24.9691 5.70678L24.9655 5.707C25.1052 5.66185 25.2026 5.61897 25.2226 5.59699ZM82.3705 1.6335C82.056 1.61032 81.7196 1.58171 81.7324 1.62246C81.7461 1.6748 82.2357 1.70611 82.5975 1.74501C82.9011 1.76192 83.5215 1.84137 83.4721 1.78879C83.4333 1.74251 82.9102 1.67583 82.3705 1.6335ZM58.1807 0.387035C57.9848 0.384633 57.6435 0.39036 57.9049 0.421257C58.0519 0.43808 58.3065 0.467246 58.4381 0.466475C59.8431 0.448973 61.2113 0.472867 62.5833 0.558979C62.7441 0.570366 63.0427 0.55998 63.2524 0.554642C63.6363 0.546051 64.0817 0.554408 64.4533 0.578878C65.3822 0.637756 66.3482 0.722214 67.2915 0.724795L67.2812 0.727658C68.3067 0.734669 69.1397 0.857195 70.0975 0.863558C71.2113 0.978638 72.2223 0.917305 73.397 1.04036C73.7545 1.0771 73.738 1.02502 73.7614 1.00276C73.7816 0.983103 73.5765 0.939573 73.445 0.942599C72.684 0.954776 71.9196 0.8541 71.1558 0.817911C67.8582 0.673457 64.538 0.5092 61.2126 0.435706C60.9669 0.431606 60.5824 0.42641 60.4995 0.412772C59.6407 0.275838 58.9464 0.395372 58.1807 0.387035ZM71.1874 0.628863C70.916 0.614699 70.749 0.622157 70.8148 0.650664L70.8149 0.652917C70.8407 0.665275 70.9768 0.680521 71.1814 0.712412C71.3302 0.701392 71.5259 0.696573 71.5962 0.680906C71.7083 0.655855 71.4263 0.637986 71.1874 0.628863ZM41.1918 1.54031C40.7636 1.64161 41.0982 1.64502 41.0234 1.70255L41.0271 1.70504C41.0135 1.71275 41.028 1.71887 41.0284 1.72576C40.6042 1.776 40.1013 1.81699 40.2197 1.77308C40.5123 1.66584 40.1497 1.67524 39.5155 1.784C38.6335 1.91649 38.0199 2.1303 38.0729 2.18267C38.083 2.19546 38.0953 2.21195 38.1473 2.21675C38.9987 2.04097 39.9264 1.8859 40.9206 1.75106C40.9644 1.74094 41.0077 1.73249 41.0495 1.72181C41.8981 1.56585 41.5665 1.55556 41.3473 1.52216C41.3365 1.52049 41.2094 1.53697 41.1918 1.54031ZM53.3222 0.391433C53.1277 0.407436 52.8656 0.425132 52.8057 0.442458C52.6343 0.494084 53.1634 0.472322 53.409 0.471818L53.4052 0.469778C53.7289 0.467011 54.0704 0.465774 54.4047 0.462385C55.1483 0.455853 55.9179 0.466236 56.6069 0.439786C56.8058 0.432769 56.9184 0.409955 57.0705 0.394121C56.9312 0.386095 56.7238 0.370547 56.6599 0.374284C56.1275 0.398502 55.5938 0.281567 55.0337 0.37901C54.5475 0.462923 53.8996 0.343803 53.3222 0.391433ZM49.1176 0.501365C48.0283 0.558175 46.8695 0.642156 45.819 0.694381C45.2336 0.726326 44.6738 0.775062 44.1214 0.823563C43.5694 0.878969 43.0247 0.936071 42.4657 0.991891C42.3382 1.00397 42.1941 1.03552 42.0565 1.05743C42.156 1.05392 42.249 1.05802 42.3587 1.04698L42.362 1.04905C43.3105 0.956573 44.26 0.875689 45.2423 0.813587C46.8214 0.672661 48.4472 0.598075 50.0563 0.543201C50.2019 0.536994 50.3435 0.521924 50.4888 0.511111C50.3352 0.501614 50.2063 0.48825 50.0243 0.480411C49.7603 0.470437 49.4761 0.485007 49.1176 0.501365ZM44.1289 0.589802C43.8365 0.639262 43.8949 0.663534 43.9461 0.68596C43.9615 0.694253 44.2226 0.678825 44.2656 0.676305C44.6011 0.631253 44.5003 0.60977 44.4207 0.589003C44.3954 0.581244 44.2285 0.588596 44.1289 0.589802ZM46.282 0.461553C45.867 0.485838 45.5908 0.508732 45.6879 0.526158C45.7852 0.543557 46.1213 0.512554 46.3625 0.498442C46.586 0.485365 46.8941 0.462411 46.7792 0.446022C46.7211 0.437908 46.3564 0.4572 46.282 0.461553Z" fill="#003932"/>
<path d="M2.31986 28.8019C2.4133 28.4567 2.45557 28.5651 2.51125 28.5434L2.51139 28.5456C2.51044 28.6497 2.63916 28.4227 2.53618 28.787C2.46578 29.0408 2.37749 29.1709 2.32604 29.1439C2.28932 29.1252 2.23501 29.112 2.31986 28.8019Z" fill="#003932"/>
<path d="M2.54224 26.4874C2.5255 26.5645 2.51684 26.6595 2.49849 26.7092C2.41652 26.9474 2.33363 27.1766 2.25111 27.4056C2.14405 27.7007 2.06872 27.7467 2.06148 27.6247C2.04854 27.406 2.1866 27.2177 2.24827 26.997C2.36065 26.6114 2.42139 26.7302 2.54224 26.4874Z" fill="#003932"/>
<path d="M78.2721 1.0784C78.3521 1.04599 77.2764 0.910608 78.3265 0.97393C79.177 1.03047 78.5745 1.0701 78.7735 1.12547C79.0304 1.19594 79.3978 1.27363 79.2011 1.3175C79.1589 1.32688 79.0776 1.33412 79.0141 1.34246C78.8886 1.3267 78.7095 1.30732 78.6446 1.29264C78.3632 1.22701 77.8421 1.15079 78.2721 1.0784Z" fill="#003932"/>
<path d="M35.7561 23.1177V25.1811H31.6226V38.5374H29.0755V25.1811H24.9197V23.1177H35.7561Z" fill="#F2F1ED"/>
<path d="M43.307 26.1129C44.2454 26.1129 45.0796 26.3126 45.8095 26.7119C46.5542 27.1113 47.1352 27.7029 47.5522 28.4869C47.9842 29.2708 48.2002 30.2174 48.2002 31.3268V38.5374H45.6754V31.7039C45.6754 30.6094 45.3998 29.7737 44.8487 29.1968C44.2976 28.6052 43.5454 28.3094 42.5921 28.3094C41.6388 28.3094 40.8791 28.6052 40.3131 29.1968C39.7619 29.7737 39.4864 30.6094 39.4864 31.7039V38.5374H36.9393V22.1193H39.4864V27.7325C39.9183 27.2148 40.462 26.8155 41.1174 26.5345C41.7877 26.2534 42.5176 26.1129 43.307 26.1129Z" fill="#F2F1ED"/>
<path d="M61.336 32.1255C61.336 32.584 61.3062 32.9982 61.2466 33.3679H51.8402C51.9147 34.3442 52.2796 35.1281 52.935 35.7197C53.5904 36.3114 54.3947 36.6072 55.3481 36.6072C56.7184 36.6072 57.6866 36.0377 58.2527 34.8988H61.0009C60.6285 36.0229 59.9507 36.9474 58.9676 37.6722C57.9994 38.3821 56.7929 38.7371 55.3481 38.7371C54.1713 38.7371 53.1137 38.4783 52.1753 37.9606C51.2518 37.4281 50.5219 36.6885 49.9857 35.7419C49.4644 34.7805 49.2037 33.6712 49.2037 32.4139C49.2037 31.1567 49.4569 30.0547 49.9634 29.1081C50.4847 28.1467 51.2071 27.4071 52.1306 26.8894C53.0691 26.3717 54.1415 26.1129 55.3481 26.1129C56.5099 26.1129 57.5451 26.3644 58.4537 26.8673C59.3624 27.3701 60.0699 28.0801 60.5763 28.9972C61.0828 29.8994 61.336 30.9422 61.336 32.1255ZM58.6772 31.3268C58.6623 30.3949 58.3271 29.648 57.6717 29.0859C57.0163 28.5239 56.2045 28.2428 55.2363 28.2428C54.3575 28.2428 53.6053 28.5239 52.9797 29.0859C52.3541 29.6332 51.9817 30.3801 51.8625 31.3268H58.6772Z" fill="#F2F1ED"/>
<path d="M28.2712 49.6567V54.1827H33.6335V56.2461H28.2712V60.9719H34.3038V63.0352H25.7241V47.5933H34.3038V49.6567H28.2712Z" fill="#F2F1ED"/>
<path d="M35.1956 55.2921C35.1956 53.7834 35.5457 52.43 36.2457 51.2319C36.9607 50.0338 37.9215 49.102 39.128 48.4364C40.3494 47.756 41.6826 47.4158 43.1274 47.4158C44.7808 47.4158 46.248 47.8226 47.529 48.6361C48.8249 49.4348 49.7633 50.5737 50.3442 52.0528H47.2832C46.8811 51.2393 46.3225 50.6329 45.6075 50.2335C44.8925 49.8341 44.0658 49.6345 43.1274 49.6345C42.0996 49.6345 41.1836 49.8637 40.3792 50.3223C39.5749 50.7808 38.9418 51.439 38.4801 52.2969C38.0332 53.1547 37.8098 54.1531 37.8098 55.2921C37.8098 56.431 38.0332 57.4294 38.4801 58.2873C38.9418 59.1451 39.5749 59.8107 40.3792 60.2841C41.1836 60.7426 42.0996 60.9719 43.1274 60.9719C44.0658 60.9719 44.8925 60.7722 45.6075 60.3728C46.3225 59.9734 46.8811 59.367 47.2832 58.5535H50.3442C49.7633 60.0326 48.8249 61.1715 47.529 61.9703C46.248 62.769 44.7808 63.1683 43.1274 63.1683C41.6677 63.1683 40.3345 62.8355 39.128 62.1699C37.9215 61.4895 36.9607 60.5503 36.2457 59.3522C35.5457 58.1541 35.1956 56.8008 35.1956 55.2921Z" fill="#F2F1ED"/>
<path d="M51.0802 55.2921C51.0802 53.7834 51.4302 52.43 52.1303 51.2319C52.8453 50.0338 53.806 49.102 55.0126 48.4364C56.234 47.756 57.5671 47.4158 59.012 47.4158C60.6654 47.4158 62.1326 47.8226 63.4136 48.6361C64.7095 49.4348 65.6479 50.5737 66.2288 52.0528H63.1678C62.7656 51.2393 62.207 50.6329 61.4921 50.2335C60.7771 49.8341 59.9504 49.6345 59.012 49.6345C57.9842 49.6345 57.0681 49.8637 56.2638 50.3223C55.4594 50.7808 54.8264 51.439 54.3646 52.2969C53.9177 53.1547 53.6943 54.1531 53.6943 55.2921C53.6943 56.431 53.9177 57.4294 54.3646 58.2873C54.8264 59.1451 55.4594 59.8107 56.2638 60.2841C57.0681 60.7426 57.9842 60.9719 59.012 60.9719C59.9504 60.9719 60.7771 60.7722 61.4921 60.3728C62.207 59.9734 62.7656 59.367 63.1678 58.5535H66.2288C65.6479 60.0326 64.7095 61.1715 63.4136 61.9703C62.1326 62.769 60.6654 63.1683 59.012 63.1683C57.5522 63.1683 56.2191 62.8355 55.0126 62.1699C53.806 61.4895 52.8453 60.5503 52.1303 59.3522C51.4302 58.1541 51.0802 56.8008 51.0802 55.2921Z" fill="#F2F1ED"/>
<path d="M77.1755 59.8847H70.6737L69.5565 63.0352H66.8977L72.4611 47.5933H75.4104L80.9738 63.0352H78.2927L77.1755 59.8847ZM76.4605 57.8213L73.9358 50.655L71.3887 57.8213H76.4605Z" fill="#F2F1ED"/>
<path d="M88.8214 59.8716L88.9071 61.4964L87.7248 62.4095L87.3175 63.1713L86.7871 63.0138L86.5893 63.5054L85.7712 63.548L86.0119 63.8687L85.7613 64.0669L84.7573 64.1192L84.4382 64.432L82.4791 64.0526L82.2972 63.4326L81.6455 63.0962L81.317 61.8173L81.6341 61.4675L82.8613 61.4037L82.8516 61.219L83.8029 60.8733L84.1825 61.0017L84.2001 61.334L84.701 61.6412L84.6582 60.8288L85.4763 60.7862L85.6582 61.4062L85.8384 60.5822L86.0831 60.2733L86.8951 61.527L86.825 60.1976L86.2299 60.2286L86.2595 59.3754L84.7353 57.3441L83.9915 57.3828L83.8077 56.7259L83.2246 56.2748L82.892 55.6256L82.8744 55.2933L82.5026 55.3126L82.4227 53.7986L82.6086 53.789L82.5735 53.1243L83.2372 52.2751L83.5641 52.11L83.5466 51.7776L84.6174 50.8702L84.952 50.8528L85.4024 50.1999L86.4358 49.998L86.4261 49.8134L88.5829 49.7011L88.6005 50.0335L89.0467 50.0103L89.2033 50.1502L89.2286 50.6303L89.4145 50.6206L89.5436 50.9471L89.9155 50.9278L90.2403 51.4293L90.0151 52.1075L87.5469 52.6803L86.568 53.9162L85.8731 54.1745L85.7125 54.6642L85.2741 54.8352L84.8433 55.8573L85.2327 56.1703L85.5302 56.1549L86.1114 56.5689L86.3421 57.4086L86.8706 57.5292L87.1798 57.7353L87.1934 57.9938L87.4909 57.9783L88.2598 59.1232L88.2969 59.8248L88.8214 59.8716Z" fill="#D6EDD3"/>
<path d="M96.3944 76.2884L95.3355 76.7138L94.9559 75.8819L95.0227 75.0268L94.7624 75.0403L94.9525 73.6974L95.25 73.6819L95.1367 72.9472L95.7317 72.9163L97.1771 68.5087L97.4374 68.4952L97.4492 68.0132L97.692 67.6673L97.9151 67.6557L97.978 66.7267L98.3344 65.7084L98.5947 65.6948L98.6027 65.139L98.9962 64.8223L99.0335 64.1168L100.164 60.7995L100.387 60.7879L101.115 58.3431L100.372 58.3818L100.164 59.3924L99.9036 59.4059L99.9211 59.7383L99.3828 60.1366L99.3454 60.8421L98.6486 61.0635L98.6135 60.3988L98.0733 60.7601L98.2199 61.419L97.3899 61.9436L97.3351 62.3167L96.1529 62.5264L95.3838 62.085L94.7498 61.3774L94.5286 61.426L94.4857 60.6136L93.9672 59.9741L93.9204 59.0878L93.6973 59.0994L93.2983 57.8982L93.1892 55.8303L92.968 55.8789L92.2583 52.324L93.9748 52.3458L93.9571 52.717L94.511 52.6141L95.3779 53.4947L95.589 54.6686L95.4948 55.7103L95.7296 55.9203L95.8095 57.4343L96.4883 58.9912L97.1283 59.106L97.7508 58.8885L97.7352 58.5931L97.9818 58.321L98.3537 58.3017L98.3362 57.9693L98.753 58.0957L99.5302 57.2777L100.076 56.3236L100.059 55.9912L101.085 54.9381L101.672 55.4629L102.195 54.7692L101.488 54.806L101.977 54.1881L102.933 53.9162L102.813 53.0707L105.662 49.8121L105.639 49.369L107.682 49.9292L107.83 50.625L108.128 50.6095L107.276 52.8385L106.706 53.3495L106.269 54.9645L105.792 55.804L105.079 56.4335L105.048 57.2498L104.787 57.2633L104.253 58.439L104.554 58.4974L104.577 58.9405L104.28 58.956L104.233 60.1804L103.8 60.4621L103.731 61.2803L103.054 63.2781L102.541 63.4529L102.276 64.7997L101.83 64.8229L101.81 65.8607L101.327 65.8859L101.213 67.2619L100.916 67.2774L100.884 66.6865L100.587 66.702L100.643 67.7729L100.953 67.979L100.976 68.4221L100.365 69.5648L100.105 69.5783L99.997 70.3615L99.49 70.6471L99.069 71.8539L98.6325 72.0618L98.5951 72.7673L98.2408 73.119L97.7668 74.7358L97.0112 75.2565L96.9935 75.6277L96.3944 76.2884ZM102.004 58.2228L102.069 57.3307L102.515 57.3075L102.75 55.4068L102.267 55.432L102.196 56.2132L101.26 56.8544L100.722 57.9563L102.004 58.2228ZM98.5845 59.1413L98.6351 60.1014L99.2301 60.0705L99.1795 59.1104L98.5845 59.1413Z" fill="#D6EDD3"/>
<path d="M138.427 51.6988L137.193 52.3554L137.203 52.54L136.338 52.3999L136.209 52.7769L134.432 53.0175L134.023 52.3353L132.535 53.1162L131.216 52.8516L131.328 52.1423L130.566 52.5522L128.914 52.3419L128.554 51.8793L127.699 51.9238L127.748 52.847L127.386 53.0509L127.415 53.6049L127.135 53.9527L127.211 55.3928L126.921 55.556L126.891 58.5199L127.077 58.5102L127.261 59.1671L127.901 59.2819L128.563 59.0994L129.226 58.2502L129.71 58.2251L129.839 57.8481L130.843 57.7958L130.9 57.4596L131.303 57.3275L130.905 58.9775L130.046 59.6517L130.064 59.984L129.367 60.909L128.548 60.9516L128.341 61.2586L128.018 61.4976L127.671 61.2934L126.891 61.3341L125.722 61.0986L125.356 60.5252L124.857 60.255L124.329 60.1344L124.1 59.3316L123.83 59.1605L123.781 58.2374L123.591 58.1732L123.474 55.9576L123.796 53.571L124.417 51.9094L124.714 51.894L124.611 49.9368L123.93 49.0466L123.895 48.3819L123.523 48.4012L123.404 48.9629L123.676 49.1709L123.443 49.7014L122.452 50.0121L122.352 49.536L123.155 49.198L122.778 47.6994L122.57 48.0065L122.363 47.61L122.494 46.5663L121.928 47.1512L121.899 46.5973L124.078 45.4841L124.236 45.661L124.571 45.6436L124.731 45.1539L126.041 45.2339L125.712 46.0656L125.354 46.3434L125.275 46.977L125.479 47.2997L126.516 47.8752L126.446 46.5458L127.031 46.3302L127.021 46.1456L126.716 46.0134L126.988 45.5178L127.36 45.4985L127.714 45.1468L127.691 44.7036L128.122 43.6814L128.588 43.324L128.738 42.6496L129.514 41.7946L129.7 41.7849L129.682 41.4526L130.401 40.2303L130.698 40.2148L131.012 39.0876L131.346 39.0702L131.319 38.5532L131.605 38.3162L131.981 38.3707L131.947 37.7429L132.374 37.3504L132.535 36.8607L132.991 36.3186L133.684 36.0233L136.635 36.1289L136.819 36.7859L135.846 38.1325L135.128 37.9477L135.151 38.3908L134.817 38.4083L134.881 39.6268L132.588 43.5231L131.238 43.3712L131.026 43.6044L131.831 44.0068L131.844 44.2653L130.95 44.9784L130.836 45.6508L130.509 45.816L130.63 46.6983L130.333 46.7138L129.831 47.8137L129.422 47.835L129.469 48.7213L129.242 49.3626L128.261 49.1544L128.287 49.6345L131.618 50.572L131.968 50.85L133.277 50.9299L133.291 51.1884L133.968 51.3013L134.596 51.1945L135.274 51.3074L135.289 51.6028L135.871 51.3134L138.102 51.1973L138.417 51.5141L138.427 51.6988ZM132.226 43.0235L132.581 41.9683L132.172 41.9896L131.743 43.0487L132.226 43.0235ZM124.455 56.8693L124.426 56.3154L123.979 56.3386L124.009 56.8925L124.455 56.8693ZM125.12 58.8713L124.328 57.2832L123.993 57.3006L124.024 57.8915L124.359 57.8741L124.562 58.9003L125.12 58.8713ZM121.82 57.821L121.597 57.8326L120.614 58.9946L120.317 59.0101L120.158 59.5368L119.356 59.8748L118.972 59.6726L119.003 60.2634L118.036 60.3137L118.019 59.9814L118.725 59.9446L118.675 58.9845L117.391 59.3846L117.794 60.6596L117.087 60.6964L117.032 59.6624L116.23 60.0004L116.267 60.702L114.014 61.1155L113.582 60.6936L112.615 60.744L111.63 60.4619L111.233 60.0012L111.981 58.6293L112.688 58.5925L112.292 58.1687L113.549 57.2517L113.784 56.7581L114.371 56.5794L114.221 55.8467L113.328 55.8931L112.968 55.4305L112.682 55.6675L112.001 55.4808L111.984 55.1485L112.671 54.7424L112.471 54.4936L111.338 54.9229L110.792 54.4699L110.309 54.4951L109.058 52.7087L109.967 50.847L111.102 50.4547L111.085 50.1223L112.829 49.254L113.713 49.0598L114.101 48.6323L116.099 48.3432L116.109 48.5278L117.922 48.2484L117.931 48.433L119.579 48.5694L119.8 49.2244L118.046 50.6117L118.062 50.9071L117.737 51.1092L117.755 51.4415L116.3 52.1467L116.038 52.8269L115.245 53.3495L114.687 53.3785L115.502 52.5585L115.326 52.0493L115.791 51.6918L116.04 50.0496L114.551 50.7936L114.38 51.0987L113.498 51.3298L113.255 51.6757L112.351 52.2041L112.182 52.5462L112.378 52.7211L112.419 53.4966L112.873 53.6211L112.883 53.8057L113.366 53.7805L113.767 54.3151L114.388 54.0606L114.566 54.6068L115.801 54.6906L116.574 53.7987L116.871 53.7833L117.357 53.0915L118.167 52.9012L118.439 52.4057L118.968 52.5263L119.183 52.367L119.295 51.6576L119.741 51.6344L119.694 52.1552L119.987 52.7694L118.993 53.0063L119.017 53.4495L118.506 53.6612L117.777 54.6989L117.079 54.8833L117.108 55.4372L118.131 55.7543L120.437 55.6343L120.934 55.8676L120.946 56.0892L121.28 56.0717L121.519 56.3556L122.01 56.4781L122.051 57.2536L121.82 57.821ZM117.265 51.3559L117.203 50.1742L116.608 50.2052L116.67 51.3869L117.265 51.3559ZM116.543 51.8008L116.516 51.2838L116.144 51.3032L116.171 51.8202L116.543 51.8008ZM118.845 57.2723L118.663 56.6523L117.9 57.0253L117.734 56.7007L115.71 56.5097L115.234 56.6826L115.275 57.4581L114.904 57.4774L114.588 57.8641L114.606 58.1965L114.212 58.5132L114.24 59.0302L116.614 58.092L116.958 58.2592L116.857 57.7461L118.845 57.2723ZM120.415 58.7458L120.384 58.155L119.342 58.2092L119.373 58.8L120.415 58.7458ZM121.982 50.9993L121.782 51.4541L120.121 52.4663L120.068 51.4692L120.365 51.4538L120.497 51.1137L121.223 50.7426L121.395 49.7709L122.366 49.7945L122.104 50.4746L121.734 50.5309L121.982 50.9993Z" fill="#D6EDD3"/>
<path d="M179.918 56.1306L179.681 56.5873L179.235 56.6105L179.071 57.0264L178.337 57.2497L177.984 56.9348L176.72 57.0006L175.376 56.2559L174.986 55.2394L175.247 55.2258L175.182 54.0072L175.681 53.5739L175.932 51.9686L174.678 52.2191L174 52.8098L172.763 53.3925L172.243 53.4196L171.865 54.0317L171.307 54.0608L170.432 54.4396L169.948 55.1683L169.234 55.7609L168.351 55.992L167.132 56.9071L166.687 57.6708L166.278 57.6921L166.112 58.071L165.237 58.4498L164.493 58.4885L164.176 58.8383L162.911 58.9041L161.064 57.8153L161.043 57.4091L160.857 57.4188L160.411 56.7385L159.352 56.4603L159.528 56.9695L159.044 56.9947L158.886 57.5214L158.357 58.1043L157.242 58.1624L157.112 58.5394L155.66 59.2815L155.176 59.3066L155.012 59.7225L154.427 59.9381L154.078 59.697L152.286 59.6422L150.585 58.5088L150.732 57.7605L150.918 57.7509L151.123 57.4069L151.057 56.1514L151.355 55.4324L151.275 55.3255L151.468 54.7599L151.729 54.7464L151.705 54.3033L151.439 54.206L151.422 53.8737L151.682 53.8601L151.584 53.4209L151.946 53.2169L151.927 52.8476L152.344 50.8634L153.069 50.4554L154.724 50.7395L155.525 51.7717L155.154 52.5315L155.348 53.3731L154.876 53.6198L154.737 54.5158L154.179 54.5448L154.598 55.4117L154.06 55.81L154.218 55.9869L154.143 57.3979L155.921 56.4537L155.909 56.2322L156.98 56.0283L157.109 55.6513L157.444 55.6339L158.011 55.0859L163.069 55.5263L162.938 55.8664L163.869 56.5585L164.362 56.0144L165.96 55.1907L166.518 54.4581L167.365 54.2659L167.743 53.6538L168.896 52.8903L169.305 52.869L169.992 52.4629L170.16 52.1209L170.718 52.0919L170.81 51.7168L172.779 50.8738L173.114 50.8563L173.541 50.4638L174.21 50.429L174.565 50.0773L177.624 50.1033L178.395 50.5815L178.915 50.5544L179.084 50.916L179.651 51.0716L179.476 54.117L179.263 54.3133L178.78 54.3384L178.809 54.8923L178.27 55.2906L178.987 55.4385L179.004 55.7708L179.905 55.8721L179.918 56.1306ZM151.543 53.349L149.56 56.0442L149.57 56.2288L149.299 56.7613L148.861 56.9322L148.544 56.5784L148.503 57.21L147.41 58.4148L146.537 58.8305L146.545 58.9782L146.204 59.5884L145.592 59.287L145.621 59.8409L144.423 60.4587L144.151 60.9542L142.914 61.537L142.922 61.6847L141.372 61.9875L141.192 61.4045L140.857 61.4219L140.888 62.0127L140.346 62.3372L138.97 62.4088L138.68 62.5719L138.189 62.4494L137.913 62.1675L136.637 62.0118L136.621 61.7163L136.299 61.2518L135.852 61.275L135.594 60.6219L135.099 60.4255L135.449 60L134.929 60.0271L134.546 58.4178L134.18 58.5479L134.019 58.3341L134.644 57.4499L134.123 57.477L133.935 56.7462L134.039 55.8891L134.56 55.862L134.159 55.3275L134.374 55.1682L134.329 54.3188L134.596 53.7125L134.889 53.6232L134.864 53.1431L135.193 53.0149L135.371 52.154L135.943 51.6799L135.925 51.3476L138.032 48.8681L138.366 48.8507L138.503 48.6214L139.016 48.4466L139.29 47.988L139.588 47.9725L139.758 47.6674L140.719 47.5063L140.711 47.3586L141.567 47.3141L141.555 47.0925L142.522 47.0422L142.534 47.2638L143.434 47.365L143.678 47.7596L143.976 47.7442L144.669 48.1524L144.829 48.3663L145.469 48.4811L145.34 48.8581L145.439 50.7414L144.744 50.9997L144.646 51.9675L144.505 52.123L143.91 52.154L143.783 52.5679L143.092 52.9001L142.851 53.2829L142.293 53.3119L142.056 53.7686L141.618 53.9395L141.575 53.1271L141.315 53.1407L141.199 53.7762L140.904 53.8286L140.771 54.1318L139.089 54.0711L138.827 53.3442L138.381 53.3674L138.326 53.7406L138.032 53.8299L137.919 54.5023L137.525 54.819L137.408 55.4176L136.977 55.7363L136.942 56.4787L137.165 56.4671L137.186 56.8732L136.963 56.8849L136.859 59.149L137.162 59.2443L137.751 59.8061L139.462 59.7171L139.47 59.8648L141.061 59.6339L141.18 59.0722L142.11 59.0239L142.654 59.4399L142.772 58.8413L145.246 57.6758L145.234 57.4542L145.706 57.2075L145.952 57.639L146.064 56.9296L146.89 56.3312L146.88 56.1466L148.206 55.1149L149.482 54.5671L150.58 52.7696L151.585 52.0138L151.994 51.9925L152.009 52.2879L152.27 52.2744L152.209 52.5367L151.949 52.5503L151.543 53.349ZM142.54 53.0399L142.524 52.7445L142.822 52.729L142.587 52.519L142.252 52.5365L142.28 53.0534L142.54 53.0399ZM141.18 51.9998L141.157 51.5567L141.591 51.3119L142.004 50.6609L142.302 50.6454L142.674 49.9225L141.819 49.967L141.689 50.3441L141.104 50.5597L140.938 50.2351L140.284 50.5653L140.46 51.0745L140.159 51.0162L139.489 51.7546L139.231 52.5086L141.18 51.9998ZM139.262 51.6923L138.401 50.9225L138.424 51.3656L139.262 51.6923ZM138.89 53.1188L138.847 52.3064L138.364 52.3315L138.518 53.1381L138.89 53.1188ZM136.726 57.3415L136.677 56.4184L136.194 56.4435L136.243 57.3667L136.726 57.3415Z" fill="#D6EDD3"/>
</svg>
